<svg width="154" height="29" viewBox="0 0 154 29" fill="none" xmlns="http://www.w3.org/2000/svg">
<path d="M0.910523 5.57628V1.45889H22.5434V5.57628H14.163V28.5728H9.29093V5.57628H0.910523ZM26.5019 28.5728V8.23736H31.2945V28.5728H26.5019ZM28.9114 5.35122C28.1524 5.35122 27.4992 5.09967 26.952 4.59658C26.4048 4.08467 26.1312 3.47125 26.1312 2.75633C26.1312 2.03259 26.4048 1.41918 26.952 0.916087C27.4992 0.404172 28.1524 0.148215 28.9114 0.148215C29.6793 0.148215 30.3324 0.404172 30.8708 0.916087C31.418 1.41918 31.6916 2.03259 31.6916 2.75633C31.6916 3.47125 31.418 4.08467 30.8708 4.59658C30.3324 5.09967 29.6793 5.35122 28.9114 5.35122ZM42.0745 28.9832C40.7859 28.9832 39.6252 28.7537 38.5926 28.2947C37.5687 27.8269 36.7567 27.1385 36.1566 26.2294C35.5652 25.3203 35.2695 24.1994 35.2695 22.8667C35.2695 21.7193 35.4814 20.7705 35.905 20.0202C36.3287 19.27 36.9068 18.6698 37.6393 18.2197C38.3719 17.7696 39.1972 17.4298 40.1151 17.2003C41.0418 16.962 41.9995 16.7899 42.988 16.684C44.1795 16.5604 45.146 16.4501 45.8874 16.353C46.6288 16.2471 47.1671 16.0882 47.5025 15.8764C47.8468 15.6557 48.0189 15.3159 48.0189 14.857V14.7775C48.0189 13.7802 47.7232 13.0079 47.1318 12.4607C46.5405 11.9134 45.6888 11.6398 44.5767 11.6398C43.4028 11.6398 42.4716 11.8958 41.7832 12.4077C41.1036 12.9196 40.6446 13.5242 40.4063 14.2215L35.9315 13.586C36.2845 12.3503 36.8671 11.3177 37.6791 10.488C38.4911 9.64954 39.484 9.02288 40.6579 8.60806C41.8318 8.1844 43.1292 7.97258 44.5502 7.97258C45.5299 7.97258 46.5052 8.08732 47.4761 8.31679C48.4469 8.54627 49.334 8.9258 50.1371 9.45536C50.9403 9.97611 51.5846 10.6866 52.0701 11.5869C52.5643 12.4871 52.8115 13.6125 52.8115 14.9629V28.5728H48.2042V25.7793H48.0453C47.7541 26.3442 47.3437 26.8737 46.8141 27.368C46.2934 27.8534 45.6358 28.2462 44.8415 28.5463C44.0559 28.8375 43.1336 28.9832 42.0745 28.9832ZM43.319 25.4615C44.281 25.4615 45.1151 25.2718 45.8212 24.8923C46.5273 24.5039 47.0701 23.992 47.4496 23.3565C47.8379 22.721 48.0321 22.0282 48.0321 21.278V18.8817C47.8821 19.0052 47.6261 19.12 47.2642 19.2259C46.9112 19.3318 46.514 19.4245 46.0727 19.5039C45.6314 19.5833 45.1945 19.654 44.762 19.7157C44.3295 19.7775 43.9544 19.8305 43.6367 19.8746C42.9218 19.9717 42.2819 20.1306 41.717 20.3512C41.1521 20.5719 40.7064 20.8808 40.3799 21.278C40.0533 21.6663 39.89 22.1694 39.89 22.7872C39.89 23.6698 40.2122 24.3362 40.8565 24.7863C41.5008 25.2365 42.3216 25.4615 43.319 25.4615ZM57.8423 1.45889H63.8529L71.9024 21.1059H72.2201L80.2695 1.45889H86.2801V28.5728H81.567V9.94521H81.3154L73.822 28.4933H70.3004L62.807 9.9055H62.5555V28.5728H57.8423V1.45889ZM100.42 28.9699C98.3807 28.9699 96.6199 28.5463 95.1371 27.699C93.6632 26.8428 92.529 25.6337 91.7347 24.0714C90.9403 22.5004 90.5431 20.6513 90.5431 18.5242C90.5431 16.4324 90.9403 14.5966 91.7347 13.0167C92.5378 11.428 93.6588 10.1923 95.0974 9.30973C96.5361 8.4183 98.2263 7.97258 100.168 7.97258C101.421 7.97258 102.604 8.17558 103.716 8.58158C104.837 8.97875 105.826 9.59658 106.682 10.4351C107.547 11.2735 108.226 12.3415 108.721 13.6389C109.215 14.9276 109.462 16.4633 109.462 18.2462V19.7157H92.7938V16.4854H104.868C104.859 15.5675 104.661 14.751 104.272 14.0361C103.884 13.3124 103.341 12.7431 102.644 12.3283C101.955 11.9134 101.152 11.706 100.234 11.706C99.2545 11.706 98.394 11.9443 97.6526 12.4209C96.9112 12.8887 96.3331 13.5066 95.9183 14.2744C95.5122 15.0335 95.3048 15.8675 95.296 16.7766V19.5966C95.296 20.7793 95.5122 21.7943 95.9447 22.6416C96.3772 23.4801 96.9818 24.1244 97.7585 24.5745C98.5352 25.0158 99.4443 25.2365 100.486 25.2365C101.183 25.2365 101.814 25.1394 102.379 24.9452C102.944 24.7422 103.434 24.4465 103.849 24.0582C104.263 23.6698 104.577 23.1888 104.789 22.6151L109.263 23.1182C108.981 24.3009 108.443 25.3336 107.648 26.2162C106.863 27.09 105.856 27.7696 104.63 28.255C103.403 28.7316 101.999 28.9699 100.42 28.9699ZM121.063 28.9302C119.465 28.9302 118.035 28.5198 116.773 27.699C115.511 26.8781 114.514 25.6866 113.781 24.1244C113.049 22.5622 112.682 20.6645 112.682 18.4315C112.682 16.172 113.053 14.2656 113.794 12.7122C114.545 11.15 115.555 9.97169 116.826 9.17734C118.097 8.37416 119.514 7.97258 121.076 7.97258C122.268 7.97258 123.247 8.17558 124.015 8.58158C124.783 8.97875 125.392 9.45978 125.842 10.0247C126.292 10.5807 126.641 11.1059 126.888 11.6001H127.087V1.45889H131.892V28.5728H127.179V25.3689H126.888C126.641 25.8631 126.283 26.3883 125.816 26.9443C125.348 27.4916 124.73 27.9593 123.962 28.3477C123.194 28.736 122.228 28.9302 121.063 28.9302ZM122.4 24.9982C123.415 24.9982 124.28 24.7246 124.995 24.1773C125.71 23.6213 126.253 22.849 126.623 21.8605C126.994 20.872 127.179 19.7201 127.179 18.4051C127.179 17.09 126.994 15.947 126.623 14.9761C126.261 14.0052 125.723 13.2506 125.008 12.7122C124.302 12.1738 123.433 11.9046 122.4 11.9046C121.332 11.9046 120.441 12.1826 119.726 12.7387C119.011 13.2947 118.472 14.0626 118.11 15.0423C117.749 16.022 117.568 17.1429 117.568 18.4051C117.568 19.676 117.749 20.8102 118.11 21.8075C118.481 22.7961 119.024 23.5772 119.739 24.1509C120.463 24.7157 121.35 24.9982 122.4 24.9982ZM153.072 13.6125L148.703 14.0891C148.579 13.6478 148.363 13.2329 148.054 12.8446C147.754 12.4562 147.348 12.1429 146.836 11.9046C146.324 11.6663 145.698 11.5472 144.956 11.5472C143.959 11.5472 143.12 11.7634 142.441 12.1959C141.77 12.6284 141.439 13.1888 141.448 13.8773C141.439 14.4686 141.655 14.9496 142.097 15.3203C142.547 15.691 143.288 15.9955 144.321 16.2338L147.789 16.9752C149.713 17.3901 151.143 18.0476 152.079 18.9479C153.023 19.8481 153.5 21.0264 153.509 22.4827C153.5 23.7625 153.125 24.8923 152.383 25.872C151.651 26.8428 150.631 27.6019 149.325 28.1491C148.019 28.6963 146.518 28.9699 144.824 28.9699C142.335 28.9699 140.331 28.4492 138.813 27.4077C137.295 26.3574 136.39 24.8967 136.099 23.0255L140.773 22.5754C140.984 23.4933 141.435 24.1862 142.123 24.654C142.811 25.1217 143.707 25.3556 144.811 25.3556C145.949 25.3556 146.863 25.1217 147.551 24.654C148.248 24.1862 148.597 23.6081 148.597 22.9196C148.597 22.3371 148.372 21.8561 147.922 21.4765C147.48 21.097 146.792 20.8058 145.856 20.6028L142.388 19.8746C140.437 19.4686 138.994 18.7846 138.059 17.8225C137.123 16.8517 136.66 15.6248 136.668 14.142C136.66 12.8887 136.999 11.8031 137.688 10.8852C138.385 9.95845 139.352 9.24354 140.587 8.74045C141.832 8.22853 143.266 7.97258 144.89 7.97258C147.273 7.97258 149.149 8.48008 150.517 9.49508C151.894 10.5101 152.745 11.8826 153.072 13.6125Z" fill="#F3ECF8"/>
</svg>
