<svg width="99" height="92" viewBox="0 0 99 92" fill="none" xmlns="http://www.w3.org/2000/svg">
<path d="M36.7534 33.4056C36.847 33.4055 36.9406 33.4054 37.0342 33.4052C37.2363 33.4049 37.4383 33.4048 37.6404 33.4049C37.9409 33.4051 38.2414 33.4049 38.5419 33.4046C39.11 33.404 39.6781 33.404 40.2462 33.404C40.6851 33.4041 41.1239 33.4041 41.5628 33.4039C41.626 33.4039 41.6892 33.4038 41.7524 33.4038C41.8476 33.4038 41.9429 33.4038 42.0382 33.4037C42.923 33.4034 43.8078 33.4032 44.6927 33.4034C44.7426 33.4034 44.7426 33.4034 44.7936 33.4034C44.9624 33.4034 45.1311 33.4035 45.2999 33.4035C45.3334 33.4035 45.3669 33.4035 45.4015 33.4035C45.4692 33.4035 45.537 33.4035 45.6048 33.4036C46.6593 33.4038 47.7139 33.4035 48.7684 33.4028C49.9551 33.402 51.1418 33.4016 52.3285 33.4017C52.4552 33.4017 52.5818 33.4018 52.7085 33.4018C52.7397 33.4018 52.7709 33.4018 52.803 33.4018C53.2725 33.4018 53.7419 33.4016 54.2114 33.4012C54.7456 33.4007 55.2799 33.4007 55.8141 33.4011C56.1125 33.4014 56.4109 33.4013 56.7093 33.4008C56.933 33.4004 57.1566 33.4007 57.3803 33.4012C57.4701 33.4013 57.5599 33.4012 57.6498 33.4009C58.374 33.3986 59.0866 33.4539 59.7941 33.6167C59.8299 33.6248 59.8656 33.6328 59.9024 33.6411C61.5993 34.034 63.1735 34.8564 64.4448 36.0483C64.5281 36.1256 64.6128 36.1994 64.7 36.2724C65.2675 36.7668 65.7402 37.4014 66.1386 38.0357C66.1533 38.0589 66.1679 38.0821 66.183 38.106C66.407 38.4625 66.6031 38.8294 66.7833 39.2097C66.7959 39.2362 66.8086 39.2627 66.8216 39.29C68.0234 41.825 67.9346 44.6145 67.0866 47.2384C67.0698 47.2904 67.0698 47.2904 67.0527 47.3435C66.8908 47.8384 66.6945 48.3167 66.4799 48.7911C66.4643 48.8258 66.4486 48.8605 66.4325 48.8962C65.8766 50.1199 65.1479 51.2715 64.2615 52.2839C64.218 52.3353 64.1756 52.3876 64.1337 52.4403C63.9178 52.711 63.6851 52.9573 63.4394 53.2009C63.3753 53.2645 63.3116 53.3285 63.248 53.3925C62.9971 53.6434 62.7385 53.8723 62.4604 54.093C62.4186 54.1284 62.377 54.164 62.3358 54.2001C62.002 54.4908 61.6478 54.7487 61.2849 55.0019C61.2607 55.0188 61.2366 55.0358 61.2117 55.0532C60.7976 55.3422 60.3621 55.5922 59.9197 55.835C59.8847 55.8543 59.8497 55.8736 59.8136 55.8934C58.3689 56.6815 56.793 57.198 55.1726 57.473C55.1449 57.4777 55.1171 57.4825 55.0885 57.4873C54.3092 57.6191 53.5399 57.6641 52.7501 57.6627C52.6565 57.6628 52.5629 57.663 52.4693 57.6631C52.2672 57.6635 52.0652 57.6635 51.8631 57.6634C51.5626 57.6632 51.2621 57.6634 50.9616 57.6637C50.3935 57.6643 49.8254 57.6644 49.2573 57.6643C48.8185 57.6642 48.3796 57.6643 47.9408 57.6644C47.8776 57.6645 47.8144 57.6645 47.7511 57.6645C47.6559 57.6646 47.5606 57.6646 47.4654 57.6646C46.5805 57.6649 45.6957 57.6651 44.8109 57.6649C44.7609 57.6649 44.7609 57.6649 44.7099 57.6649C44.5412 57.6649 44.3724 57.6649 44.2036 57.6648C44.1701 57.6648 44.1366 57.6648 44.102 57.6648C44.0343 57.6648 43.9665 57.6648 43.8987 57.6648C42.8442 57.6646 41.7896 57.6649 40.7351 57.6656C39.5484 57.6664 38.3617 57.6668 37.175 57.6666C37.0484 57.6666 36.9217 57.6666 36.795 57.6666C36.7482 57.6666 36.7482 57.6666 36.7005 57.6666C36.231 57.6665 35.7616 57.6668 35.2921 57.6672C34.7579 57.6676 34.2237 57.6677 33.6894 57.6672C33.391 57.667 33.0926 57.667 32.7942 57.6675C32.5706 57.6679 32.3469 57.6676 32.1233 57.6672C32.0334 57.6671 31.9436 57.6672 31.8537 57.6675C31.1295 57.6697 30.4169 57.6144 29.7094 57.4516C29.6558 57.4395 29.6558 57.4395 29.6011 57.4272C27.9042 57.0343 26.33 56.2119 25.0587 55.0201C24.9754 54.9427 24.8907 54.8689 24.8035 54.796C24.236 54.3015 23.7633 53.667 23.3649 53.0326C23.3503 53.0094 23.3356 52.9862 23.3205 52.9624C23.0965 52.6059 22.9004 52.2389 22.7203 51.8586C22.7076 51.8321 22.6949 51.8056 22.6819 51.7783C21.4801 49.2433 21.5689 46.4538 22.4169 43.83C22.4281 43.7953 22.4393 43.7606 22.4508 43.7249C22.6127 43.2299 22.8091 42.7516 23.0236 42.2773C23.0393 42.2426 23.0549 42.2079 23.071 42.1721C23.6269 40.9484 24.3556 39.7968 25.242 38.7844C25.2856 38.7331 25.328 38.6808 25.3698 38.6281C25.5857 38.3573 25.8184 38.111 26.0642 37.8674C26.1283 37.8039 26.1919 37.7399 26.2556 37.6758C26.5065 37.4249 26.765 37.196 27.0431 36.9754C27.0849 36.94 27.1265 36.9043 27.1677 36.8683C27.5015 36.5775 27.8557 36.3196 28.2187 36.0665C28.2428 36.0495 28.2669 36.0326 28.2918 36.0151C28.7059 35.7262 29.1414 35.4762 29.5838 35.2333C29.6188 35.214 29.6538 35.1948 29.6899 35.1749C31.1346 34.3868 32.7105 33.8704 34.3309 33.5954C34.3586 33.5906 34.3864 33.5859 34.415 33.581C35.1943 33.4492 35.9636 33.4042 36.7534 33.4056Z" fill="#F3ECF8"/>
<path d="M48.1278 36.4454C49.3867 36.4436 50.6455 36.4423 51.9044 36.4415C52.0533 36.4414 52.2023 36.4413 52.3512 36.4412C52.3808 36.4412 52.4105 36.4411 52.441 36.4411C52.9198 36.4408 53.3986 36.4402 53.8774 36.4395C54.3694 36.4388 54.8615 36.4384 55.3535 36.4382C55.6566 36.4381 55.9597 36.4378 56.2628 36.4372C56.496 36.4367 56.7292 36.4367 56.9624 36.4368C57.0575 36.4368 57.1526 36.4366 57.2477 36.4363C59.3372 36.4302 61.1873 37.0867 62.689 38.5661C64.0661 39.9555 64.6774 41.7867 64.6726 43.7068C64.6637 44.9898 64.2702 46.2614 63.7508 47.4279C63.7354 47.4627 63.7199 47.4975 63.704 47.5334C63.2432 48.56 62.6383 49.5873 61.8609 50.4083C61.792 50.4816 61.7264 50.5562 61.6609 50.6324C61.4905 50.8277 61.3081 51.0105 61.1249 51.1937C61.0916 51.2274 61.0583 51.2611 61.024 51.2958C60.7947 51.5253 60.5547 51.7336 60.3001 51.9345C60.2599 51.967 60.2197 51.9995 60.1795 52.032C59.6236 52.4673 59.0298 52.8567 58.4041 53.1843C58.3676 53.2034 58.3676 53.2034 58.3303 53.2229C58.1543 53.3144 57.9765 53.4018 57.7974 53.4872C57.7723 53.4993 57.7472 53.5113 57.7214 53.5237C56.8221 53.9515 55.8888 54.2352 54.9155 54.434C54.8828 54.4409 54.8501 54.4477 54.8164 54.4548C53.6729 54.6907 52.478 54.6338 51.3177 54.631C51.0782 54.6306 50.8387 54.6305 50.5992 54.6304C50.1985 54.6302 49.7979 54.6297 49.3972 54.6291C48.9851 54.6284 48.573 54.6278 48.1609 54.6275C48.1226 54.6275 48.1226 54.6275 48.0835 54.6275C47.9553 54.6274 47.8271 54.6273 47.6989 54.6272C46.6411 54.6264 45.5832 54.625 44.5254 54.6234C44.5461 54.4163 44.5734 54.2135 44.6146 54.0094C44.6197 53.9837 44.6248 53.958 44.6301 53.9315C44.6475 53.8449 44.6651 53.7582 44.6827 53.6716C44.6957 53.607 44.7086 53.5424 44.7216 53.4779C44.7504 53.3343 44.7794 53.1907 44.8084 53.0471C44.8573 52.8049 44.9061 52.5625 44.9548 52.3202C45.011 52.0402 45.0673 51.7602 45.1237 51.4802C45.2973 50.6176 45.4702 49.7548 45.643 48.892C45.6537 48.8389 45.6537 48.8389 45.6646 48.7846C45.7384 48.4161 45.8122 48.0475 45.886 47.679C45.9852 47.1834 46.0845 46.6878 46.1838 46.1922C46.1914 46.154 46.1991 46.1158 46.207 46.0765C46.238 45.9214 46.2691 45.7663 46.3002 45.6111C46.355 45.3373 46.4099 45.0635 46.4647 44.7897C46.6333 43.9484 46.8018 43.1071 46.9704 42.2657C47.1044 41.5967 47.2384 40.9277 47.3724 40.2587C47.4544 39.8496 47.5363 39.4404 47.6183 39.0313C47.674 38.7535 47.7296 38.4757 47.7853 38.1979C47.8173 38.038 47.8493 37.8781 47.8814 37.7182C47.9107 37.5721 47.94 37.4259 47.9692 37.2797C47.9798 37.2268 47.9904 37.174 48.001 37.1212C48.0154 37.0494 48.0297 36.9776 48.0441 36.9058C48.0521 36.866 48.0601 36.8261 48.0683 36.7851C48.09 36.6721 48.1093 36.5589 48.1278 36.4454Z" fill="#E5D2F4"/>
<path d="M38.1881 36.4375C38.4275 36.438 38.667 36.438 38.9065 36.4381C39.3072 36.4383 39.7078 36.4388 40.1085 36.4395C40.5206 36.4402 40.9327 36.4407 41.3448 36.441C41.3831 36.441 41.3831 36.441 41.4222 36.4411C41.5504 36.4412 41.6786 36.4413 41.8068 36.4414C42.8646 36.4421 43.9225 36.4435 44.9803 36.4452C44.9745 36.4994 44.9686 36.5536 44.9627 36.6078C44.9578 36.6531 44.9578 36.6531 44.9528 36.6993C44.9397 36.8086 44.9202 36.9158 44.8986 37.0237C44.8903 37.065 44.882 37.1063 44.8735 37.1488C44.865 37.1908 44.8564 37.2327 44.8476 37.276C44.839 37.3189 44.8305 37.3619 44.8217 37.4062C44.7578 37.7228 44.7578 37.7228 44.7149 37.8085C44.6702 37.8086 44.6255 37.8087 44.5794 37.8088C43.5154 37.811 42.4515 37.8137 41.3875 37.8172C41.2562 37.8176 41.125 37.818 40.9937 37.8185C40.9676 37.8185 40.9414 37.8186 40.9145 37.8187C40.4927 37.8201 40.0709 37.821 39.6491 37.8218C39.2156 37.8226 38.782 37.8239 38.3485 37.8255C38.1053 37.8264 37.8621 37.8271 37.6189 37.8274C37.3895 37.8276 37.1601 37.8284 36.9307 37.8295C36.847 37.8298 36.7632 37.83 36.6795 37.8299C36.0448 37.8296 35.4434 37.8827 34.832 38.0642C34.7984 38.074 34.7649 38.0839 34.7303 38.094C34.4183 38.1887 34.1255 38.3112 33.8318 38.4523C33.7729 38.4805 33.7729 38.4805 33.7127 38.5092C33.4775 38.6217 33.2426 38.735 33.008 38.8489C32.8116 38.9443 32.6147 39.0385 32.4173 39.1317C32.0135 39.3228 31.6125 39.5196 31.2123 39.7181C31.149 39.7495 31.0856 39.7809 31.0222 39.8121C30.6763 39.9826 30.3408 40.1584 30.0168 40.3677C29.9261 40.4216 29.9261 40.4216 29.8503 40.4216C29.8503 40.4466 29.8503 40.4716 29.8503 40.4974C29.8864 40.484 29.9226 40.4707 29.9599 40.457C31.3446 39.948 32.7327 39.4593 34.217 39.357C34.2629 39.3538 34.3088 39.3506 34.3562 39.3474C34.8325 39.3166 35.3074 39.3132 35.7845 39.3148C35.8796 39.3148 35.9746 39.3148 36.0697 39.3147C36.2717 39.3147 36.4738 39.3149 36.6759 39.3153C36.968 39.316 37.2601 39.3162 37.5522 39.3163C38.0265 39.3164 38.5008 39.3169 38.975 39.3176C39.4349 39.3183 39.8948 39.3189 40.3547 39.3192C40.3975 39.3192 40.3975 39.3192 40.4411 39.3193C40.5841 39.3194 40.727 39.3195 40.87 39.3195C42.0505 39.3203 43.231 39.3217 44.4115 39.3234C44.3583 39.6937 44.2899 40.0602 44.216 40.4269C44.2039 40.4873 44.1918 40.5477 44.1797 40.6081C44.1468 40.7728 44.1137 40.9375 44.0806 41.1021C44.0448 41.2802 44.0092 41.4583 43.9735 41.6364C43.9118 41.9446 43.8499 42.2528 43.7881 42.561C43.6986 43.0068 43.6092 43.4526 43.5199 43.8985C43.3749 44.6222 43.2297 45.346 43.0845 46.0697C42.9437 46.772 42.8028 47.4742 42.662 48.1765C42.6533 48.2198 42.6447 48.2631 42.6357 48.3077C42.541 48.7802 42.4462 49.2528 42.3515 49.7254C42.3432 49.7669 42.3349 49.8084 42.3263 49.8512C42.293 50.0171 42.2598 50.1831 42.2265 50.349C42.1291 50.8349 42.0317 51.3207 41.9342 51.8066C41.8731 52.1111 41.8121 52.4156 41.751 52.7201C41.7158 52.8958 41.6805 53.0716 41.6453 53.2473C41.613 53.4081 41.5807 53.569 41.5485 53.7298C41.5368 53.788 41.5251 53.8462 41.5134 53.9045C41.4976 53.9835 41.4817 54.0626 41.4659 54.1417C41.4571 54.1856 41.4483 54.2295 41.4392 54.2748C41.4169 54.3907 41.3968 54.5067 41.3779 54.6232C40.1013 54.6275 38.8248 54.6309 37.5482 54.6328C37.3969 54.6331 37.2456 54.6333 37.0943 54.6336C37.0492 54.6337 37.0492 54.6337 37.0031 54.6337C36.5178 54.6345 36.0325 54.636 35.5472 54.6378C35.0479 54.6396 34.5486 54.6406 34.0493 54.641C33.7421 54.6412 33.4349 54.6421 33.1278 54.6436C32.9161 54.6446 32.7044 54.6449 32.4927 54.6447C32.3712 54.6445 32.2497 54.6448 32.1283 54.6457C30.9331 54.6544 29.8252 54.4231 28.7506 53.9036C28.726 53.8918 28.7013 53.88 28.676 53.8679C27.377 53.2364 26.3083 52.1464 25.6411 50.874C25.6275 50.8482 25.6139 50.8224 25.5998 50.7958C25.1587 49.9491 24.8448 48.9865 24.8358 48.0263C24.8354 47.9936 24.835 47.961 24.8347 47.9274C24.8229 46.6287 24.8229 46.6287 24.9725 46.0453C24.9985 45.9428 25.0213 45.8398 25.0439 45.7365C25.3692 44.2972 25.9939 42.8732 26.8546 41.6713C26.8752 41.6424 26.8959 41.6134 26.9171 41.5836C27.146 41.264 27.3741 40.9461 27.6448 40.6602C27.7137 40.587 27.7793 40.5123 27.8448 40.4361C28.0153 40.2409 28.1976 40.058 28.3809 39.8749C28.4141 39.8411 28.4474 39.8074 28.4817 39.7727C28.711 39.5432 28.951 39.3349 29.2056 39.134C29.2458 39.1015 29.286 39.069 29.3262 39.0365C30.3279 38.2522 31.4589 37.6001 32.6563 37.1647C32.684 37.1545 32.7117 37.1444 32.7402 37.1339C34.5304 36.4839 36.3076 36.4331 38.1881 36.4375Z" fill="#E5D2F4"/>
<path d="M27.1572 35.3848C27.0525 35.4661 26.946 35.5356 26.8309 35.6012C26.379 35.8617 25.9455 36.1344 25.5267 36.4452C25.5048 36.4612 25.483 36.4773 25.4606 36.4938C24.5316 37.1795 23.6587 37.9969 22.9481 38.9068C22.9055 38.9605 22.8629 39.0141 22.8203 39.0678C22.5908 39.3582 22.3695 39.6452 22.1801 39.9638C22.0936 40.0671 22.058 40.066 21.9243 40.0808C21.8029 40.0784 21.6826 40.0682 21.5617 40.0579C21.5248 40.0549 21.4879 40.052 21.4499 40.049C21.3255 40.039 21.2012 40.0286 21.0768 40.0183C20.9871 40.011 20.8973 40.0038 20.8075 39.9965C20.612 39.9807 20.4165 39.9647 20.2209 39.9486C19.9302 39.9246 19.6394 39.901 19.3487 39.8774C18.7993 39.8327 18.2499 39.7877 17.7005 39.7426C17.2764 39.7078 16.8524 39.6731 16.4283 39.6385C16.3674 39.6335 16.3066 39.6285 16.2457 39.6236C16.1539 39.6161 16.0622 39.6086 15.9705 39.6011C15.1175 39.5314 14.2646 39.4616 13.4117 39.3916C13.3795 39.389 13.3473 39.3863 13.3142 39.3836C13.053 39.3622 12.7918 39.3407 12.5305 39.3193C11.511 39.2356 10.4914 39.1522 9.47183 39.0691C8.32705 38.9758 7.18229 38.8823 6.03756 38.7884C5.91564 38.7784 5.79371 38.7684 5.67178 38.7584C5.62675 38.7547 5.62675 38.7547 5.5808 38.7509C5.12665 38.7137 4.67248 38.6766 4.2183 38.6397C3.70219 38.5977 3.18611 38.5554 2.67005 38.5128C2.38093 38.489 2.09179 38.4653 1.80263 38.4419C1.58731 38.4245 1.37202 38.4067 1.15674 38.3888C1.06921 38.3815 0.981659 38.3744 0.894101 38.3674C0.775903 38.358 0.657749 38.3481 0.539597 38.3381C0.504891 38.3354 0.470185 38.3328 0.434428 38.33C0.354706 38.323 0.27532 38.3124 0.196123 38.3009C0.183609 38.2759 0.171096 38.2509 0.158203 38.2251C1.88204 38.0414 3.60588 37.8576 5.32972 37.6739C5.35574 37.6711 5.38176 37.6684 5.40856 37.6655C5.97566 37.6051 6.54276 37.5446 7.10985 37.4842C7.38845 37.4545 7.66704 37.4248 7.94563 37.3951C7.97334 37.3921 8.00105 37.3892 8.02959 37.3861C8.80059 37.304 9.57159 37.2218 10.3426 37.1396C10.5305 37.1196 10.7184 37.0995 10.9064 37.0795C10.9867 37.0709 11.0671 37.0624 11.1474 37.0538C11.2009 37.0481 11.2544 37.0424 11.3079 37.0367C11.6016 37.0054 11.8953 36.9741 12.189 36.9428C12.5087 36.9087 12.8285 36.8746 13.1482 36.8406C13.1745 36.8378 13.2008 36.8349 13.2278 36.8321C13.9678 36.7532 14.7077 36.6744 15.4477 36.5955C15.9166 36.5456 16.3855 36.4956 16.8545 36.4457C16.9316 36.4375 17.0088 36.4292 17.086 36.421C18.4626 36.2744 19.8393 36.1274 21.2158 35.9799C21.5327 35.946 21.8495 35.9121 22.1663 35.8782C22.2098 35.8736 22.2533 35.8689 22.2982 35.8641C22.5132 35.8411 22.7283 35.8181 22.9433 35.7951C23.3931 35.7471 23.8429 35.6989 24.2927 35.6505C24.5923 35.6183 24.8919 35.5863 25.1915 35.5543C25.3618 35.5361 25.5322 35.5179 25.7025 35.4995C25.857 35.4828 26.0116 35.4663 26.1662 35.4499C26.2217 35.4439 26.2772 35.438 26.3327 35.4319C26.609 35.4019 26.8793 35.3776 27.1572 35.3848Z" fill="#FAD692"/>
<path d="M20.8641 43.3379C20.839 43.4779 20.8017 43.6084 20.7558 43.743C20.4018 44.8004 20.1619 45.857 20.1057 46.9735C19.8025 46.9512 19.5065 46.9084 19.2073 46.8549C19.1606 46.8466 19.1138 46.8384 19.0656 46.8299C18.9367 46.8072 18.8078 46.7843 18.679 46.7613C18.5392 46.7365 18.3994 46.7118 18.2596 46.6872C18.0171 46.6443 17.7746 46.6014 17.532 46.5583C17.1803 46.4959 16.8285 46.4337 16.4767 46.3715C15.9343 46.2756 15.392 46.1796 14.8496 46.0835C13.9393 45.9223 13.0289 45.7615 12.1185 45.6008C12.0459 45.588 11.9733 45.5751 11.9006 45.5623C11.615 45.5119 11.3293 45.4615 11.0437 45.4111C10.3343 45.2858 9.62501 45.1606 8.91569 45.0353C8.82481 45.0192 8.73393 45.0031 8.64304 44.9871C8.31802 44.9297 7.99299 44.8722 7.66797 44.8148C7.66797 44.7898 7.66797 44.7648 7.66797 44.7391C9.29977 44.5604 10.9316 44.3818 12.5634 44.2036C12.7561 44.1825 12.9488 44.1615 13.1414 44.1404C13.1989 44.1341 13.1989 44.1341 13.2576 44.1277C13.8787 44.0599 14.4997 43.9919 15.1207 43.9238C15.7579 43.854 16.3951 43.7844 17.0323 43.7148C17.4255 43.6719 17.8187 43.6289 18.2119 43.5857C18.4815 43.5562 18.7512 43.5267 19.0208 43.4974C19.1764 43.4804 19.332 43.4634 19.4875 43.4463C19.63 43.4306 19.7725 43.415 19.9151 43.3996C19.9908 43.3914 20.0666 43.383 20.1423 43.3745C20.3846 43.3485 20.6204 43.332 20.8641 43.3379Z" fill="#FAD692"/>
<path d="M59.8452 50.571C59.5536 50.7812 59.2382 50.9414 58.9186 51.1035C58.8627 51.132 58.8068 51.1606 58.7509 51.1891C58.585 51.2738 58.4188 51.3579 58.2526 51.442C58.2288 51.454 58.205 51.4661 58.1805 51.4785C57.6265 51.7589 57.0696 52.0331 56.5078 52.2974C56.387 52.3544 56.2667 52.4121 56.1463 52.4698C55.2394 52.9007 54.3013 53.2298 53.2864 53.2265C53.2316 53.2265 53.2316 53.2265 53.1757 53.2266C53.0541 53.2266 52.9326 53.2264 52.811 53.2262C52.7235 53.2262 52.6361 53.2262 52.5486 53.2262C52.3117 53.2263 52.0748 53.226 51.8379 53.2258C51.5901 53.2255 51.3424 53.2255 51.0946 53.2255C50.6789 53.2254 50.2632 53.2251 49.8475 53.2248C49.4194 53.2244 48.9914 53.2242 48.5633 53.224C48.5237 53.224 48.5237 53.224 48.4833 53.224C48.3508 53.2239 48.2182 53.2239 48.0857 53.2238C46.9875 53.2234 45.8893 53.2228 44.791 53.2219C44.8031 53.1428 44.8152 53.0637 44.8273 52.9846C44.8341 52.9406 44.8408 52.8965 44.8478 52.8511C44.8674 52.7259 44.8896 52.6014 44.9144 52.4771C44.9225 52.4363 44.9307 52.3955 44.9391 52.3535C44.9473 52.3128 44.9555 52.2721 44.964 52.2302C44.9724 52.1879 44.9808 52.1456 44.9894 52.102C44.9975 52.0618 45.0056 52.0215 45.0139 51.98C45.0212 51.9439 45.0285 51.9078 45.0359 51.8705C45.0565 51.7828 45.0565 51.7828 45.0944 51.7071C45.1151 51.7071 45.1359 51.707 45.1573 51.707C46.3929 51.7048 47.6286 51.702 48.8642 51.6984C49.0132 51.698 49.1621 51.6976 49.3111 51.6972C49.3555 51.697 49.3555 51.697 49.4009 51.6969C49.8786 51.6956 50.3562 51.6946 50.8339 51.6938C51.3254 51.693 51.817 51.6917 52.3085 51.6901C52.6109 51.6891 52.9132 51.6884 53.2156 51.6882C53.449 51.688 53.6823 51.6871 53.9157 51.6861C54.0103 51.6858 54.1049 51.6856 54.1996 51.6857C55.0915 51.6861 55.9827 51.6279 56.8543 51.4302C56.9072 51.4185 56.9601 51.4069 57.013 51.3953C57.3829 51.313 57.7452 51.2142 58.1029 51.089C58.2193 51.0485 58.3368 51.0113 58.4541 50.9733C58.7376 50.8785 59.0183 50.7759 59.2988 50.6724C59.333 50.6598 59.3672 50.6472 59.4025 50.6343C59.433 50.623 59.4636 50.6117 59.495 50.6001C59.7105 50.5261 59.7105 50.5261 59.8452 50.571Z" fill="#F3ECF8"/>
<path d="M20.4455 50.0788C20.4628 50.1255 20.4802 50.1722 20.4981 50.2202C20.9857 51.5627 20.9857 51.5627 21.5751 52.8625C21.621 52.957 21.621 52.957 21.621 53.0328C21.4349 53.0095 21.2604 52.973 21.0792 52.9228C21.0526 52.9155 21.026 52.9082 20.9987 52.9006C20.9102 52.8762 20.8217 52.8516 20.7333 52.827C20.6695 52.8093 20.6057 52.7917 20.5418 52.7741C20.3682 52.7262 20.1947 52.678 20.0212 52.6298C19.8379 52.579 19.6545 52.5283 19.4712 52.4776C19.1604 52.3917 18.8496 52.3056 18.5389 52.2196C18.0569 52.086 17.5749 51.9529 17.0928 51.8199C16.9342 51.7761 16.7756 51.7323 16.6169 51.6885C16.5782 51.6778 16.5394 51.6671 16.4995 51.6561C15.3751 51.3457 14.2509 51.0347 13.127 50.7226C13.127 50.6976 13.127 50.6726 13.127 50.6469C14.0084 50.5726 14.8898 50.4985 15.7713 50.4247C16.1806 50.3904 16.5899 50.3561 16.9991 50.3215C17.356 50.2914 17.7129 50.2615 18.0699 50.2317C18.2587 50.2159 18.4475 50.2001 18.6364 50.184C18.8144 50.1689 18.9925 50.154 19.1705 50.1393C19.2356 50.1339 19.3006 50.1284 19.3656 50.1228C19.7268 50.0919 20.0827 50.0709 20.4455 50.0788Z" fill="#FAD692"/>
<path fill-rule="evenodd" clip-rule="evenodd" d="M3.87562 9.35321C5.73443 9.35321 7.52775 8.25166 8.50745 6.67542L51.0412 6.67543L51.6759 3.10504L9.14219 3.10504C8.72292 1.5288 7.32127 0.427246 5.46246 0.427246C2.95898 0.427246 0.574276 2.42539 0.136082 4.89023C-0.302111 7.35507 1.37214 9.35321 3.87562 9.35321ZM4.35168 6.67542C5.35307 6.67542 6.30695 5.87616 6.48223 4.89023C6.6575 3.90429 5.9878 3.10504 4.98641 3.10504C3.98502 3.10504 3.03114 3.90429 2.85586 4.89023C2.68058 5.87616 3.35028 6.67542 4.35168 6.67542Z" fill="#F3ECF8"/>
<path fill-rule="evenodd" clip-rule="evenodd" d="M92.495 9.35321C90.5497 9.35321 89.105 8.14672 88.7632 6.45227H58.1069L53.7421 31.0043H50.1158L55.1153 2.88189H89.5963C90.6017 1.4258 92.3121 0.427246 94.0818 0.427246C96.5853 0.427246 98.2596 2.42539 97.8214 4.89023C97.3832 7.35507 94.9985 9.35321 92.495 9.35321ZM92.9711 6.67542C91.9697 6.67542 91.3 5.87616 91.4752 4.89023C91.6505 3.90429 92.6044 3.10504 93.6058 3.10504C94.6072 3.10504 95.2769 3.90429 95.1016 4.89023C94.9263 5.87616 93.9725 6.67542 92.9711 6.67542Z" fill="#F3ECF8"/>
<path fill-rule="evenodd" clip-rule="evenodd" d="M46.1497 31.0043L49.8005 10.4689H16.0845C15.7426 8.77447 14.298 7.56797 12.3527 7.56797C9.84918 7.56797 7.46448 9.56612 7.02628 12.031C6.58809 14.4958 8.26234 16.4939 10.7658 16.4939C12.5356 16.4939 14.246 15.4954 15.2514 14.0393H45.5394L42.5234 31.0043H46.1497ZM13.3724 12.031C13.1971 13.0169 12.2433 13.8162 11.2419 13.8162C10.2405 13.8162 9.57078 13.0169 9.74606 12.031C9.92134 11.045 10.8752 10.2458 11.8766 10.2458C12.878 10.2458 13.5477 11.045 13.3724 12.031Z" fill="#F3ECF8"/>
<path fill-rule="evenodd" clip-rule="evenodd" d="M37.2888 60.4488H40.9152L38.3176 75.0603C39.8611 75.7224 40.7479 77.3259 40.4149 79.1989C39.9767 81.6637 37.592 83.6618 35.0885 83.6618C32.5851 83.6618 30.9108 81.6637 31.349 79.1989C31.6666 77.4123 33.0069 75.8708 34.6739 75.1578L37.2888 60.4488ZM35.5646 80.9841C36.566 80.9841 37.5199 80.1848 37.6951 79.1989C37.8704 78.2129 37.2007 77.4137 36.1993 77.4137C35.1979 77.4137 34.2441 78.2129 34.0688 79.1989C33.8935 80.1848 34.5632 80.9841 35.5646 80.9841Z" fill="#F3ECF8"/>
<path fill-rule="evenodd" clip-rule="evenodd" d="M38.7836 31.0043L41.0855 18.056H22.1231C21.7038 16.4798 20.3022 15.3782 18.4434 15.3782C15.9399 15.3782 13.5552 17.3764 13.117 19.8412C12.6788 22.306 14.3531 24.3042 16.8565 24.3042C18.7154 24.3042 20.5087 23.2026 21.4884 21.6264H36.8244L35.1572 31.0043H38.7836ZM19.4631 19.8412C19.2879 20.8271 18.334 21.6264 17.3326 21.6264C16.3312 21.6264 15.6615 20.8271 15.8368 19.8412C16.0121 18.8553 16.9659 18.056 17.9673 18.056C18.9687 18.056 19.6384 18.8553 19.4631 19.8412Z" fill="#F3ECF8"/>
<path fill-rule="evenodd" clip-rule="evenodd" d="M29.9226 60.4488H33.549L32.1332 68.4127C33.6117 69.1014 34.451 70.6742 34.1256 72.5044C33.6874 74.9692 31.3027 76.9674 28.7993 76.9674C26.2958 76.9674 24.6215 74.9692 25.0597 72.5044C25.3851 70.6743 26.7834 69.1015 28.5068 68.4128L29.9226 60.4488ZM29.2753 74.2896C30.2767 74.2896 31.2306 73.4903 31.4059 72.5044C31.5811 71.5185 30.9114 70.7192 29.91 70.7192C28.9087 70.7192 27.9548 71.5185 27.7795 72.5044C27.6042 73.4903 28.2739 74.2896 29.2753 74.2896Z" fill="#F3ECF8"/>
<path fill-rule="evenodd" clip-rule="evenodd" d="M44.8812 60.4488H48.5076L44.5925 82.4711C46.0711 83.1598 46.9104 84.7326 46.585 86.5628C46.1468 89.0276 43.7621 91.0258 41.2586 91.0258C38.7551 91.0258 37.0809 89.0276 37.5191 86.5628C37.8444 84.7328 39.2428 83.16 40.9661 82.4713L44.8812 60.4488ZM40.2389 86.5628C40.0636 87.5487 40.7333 88.348 41.7347 88.348C42.7361 88.348 43.6899 87.5487 43.8652 86.5628C44.0405 85.5769 43.3708 84.7776 42.3694 84.7776C41.368 84.7776 40.4141 85.5769 40.2389 86.5628Z" fill="#F3ECF8"/>
<path fill-rule="evenodd" clip-rule="evenodd" d="M79.5736 14.0393C79.9929 15.6156 81.3945 16.7171 83.2533 16.7171C85.7568 16.7171 88.1415 14.719 88.5797 12.2541C89.0179 9.78929 87.3437 7.79114 84.8402 7.79114C82.9814 7.79114 81.1881 8.89269 80.2083 10.4689L60.5661 10.4689L59.9313 14.0393L79.5736 14.0393ZM82.2336 12.2541C82.0583 13.2401 82.728 14.0393 83.7294 14.0393C84.7308 14.0393 85.6847 13.2401 85.8599 12.2541C86.0352 11.2682 85.3655 10.4689 84.3641 10.4689C83.3627 10.4689 82.4088 11.2682 82.2336 12.2541Z" fill="#F3ECF8"/>
<path fill-rule="evenodd" clip-rule="evenodd" d="M74.1986 24.3042C72.3398 24.3042 70.9382 23.2027 70.5189 21.6264L58.5825 21.6264L59.2173 18.056L71.1536 18.056C72.1333 16.4798 73.9267 15.3782 75.7855 15.3782C78.2889 15.3782 79.9632 17.3764 79.525 19.8412C79.0868 22.3061 76.7021 24.3042 74.1986 24.3042ZM74.6747 21.6264C73.6733 21.6264 73.0036 20.8272 73.1789 19.8412C73.3541 18.8553 74.308 18.056 75.3094 18.056C76.3108 18.056 76.9805 18.8553 76.8052 19.8412C76.63 20.8272 75.6761 21.6264 74.6747 21.6264Z" fill="#F3ECF8"/>
</svg>
