<svg width="98" height="92" viewBox="0 0 98 92" fill="none" xmlns="http://www.w3.org/2000/svg">
<path fill-rule="evenodd" clip-rule="evenodd" d="M3.87562 9.35321C5.73443 9.35321 7.52775 8.25166 8.50745 6.67542L51.0412 6.67543L51.6759 3.10504L9.14219 3.10504C8.72292 1.5288 7.32127 0.427246 5.46246 0.427246C2.95898 0.427246 0.574276 2.42539 0.136082 4.89023C-0.302111 7.35507 1.37214 9.35321 3.87562 9.35321ZM4.35168 6.67542C5.35307 6.67542 6.30695 5.87616 6.48223 4.89023C6.6575 3.90429 5.9878 3.10504 4.98641 3.10504C3.98502 3.10504 3.03114 3.90429 2.85586 4.89023C2.68058 5.87616 3.35028 6.67542 4.35168 6.67542Z" fill="#F3ECF8"/>
<path fill-rule="evenodd" clip-rule="evenodd" d="M92.495 9.35321C90.5497 9.35321 89.105 8.14672 88.7632 6.45227H58.1069L53.7421 31.0043H50.1158L55.1153 2.88189H89.5963C90.6017 1.4258 92.3121 0.427246 94.0818 0.427246C96.5853 0.427246 98.2596 2.42539 97.8214 4.89023C97.3832 7.35507 94.9985 9.35321 92.495 9.35321ZM92.9711 6.67542C91.9697 6.67542 91.3 5.87616 91.4752 4.89023C91.6505 3.90429 92.6044 3.10504 93.6058 3.10504C94.6072 3.10504 95.2769 3.90429 95.1016 4.89023C94.9263 5.87616 93.9725 6.67542 92.9711 6.67542Z" fill="#F3ECF8"/>
<path fill-rule="evenodd" clip-rule="evenodd" d="M46.1497 31.0043L49.8005 10.4689H16.0845C15.7426 8.77447 14.298 7.56797 12.3527 7.56797C9.84918 7.56797 7.46448 9.56612 7.02628 12.031C6.58809 14.4958 8.26234 16.4939 10.7658 16.4939C12.5356 16.4939 14.246 15.4954 15.2514 14.0393H45.5394L42.5234 31.0043H46.1497ZM13.3724 12.031C13.1971 13.0169 12.2433 13.8162 11.2419 13.8162C10.2405 13.8162 9.57078 13.0169 9.74606 12.031C9.92134 11.045 10.8752 10.2458 11.8766 10.2458C12.878 10.2458 13.5477 11.045 13.3724 12.031Z" fill="#F3ECF8"/>
<path fill-rule="evenodd" clip-rule="evenodd" d="M37.2888 60.4488H40.9152L38.3176 75.0603C39.8611 75.7224 40.7479 77.3259 40.4149 79.1989C39.9767 81.6637 37.592 83.6618 35.0885 83.6618C32.5851 83.6618 30.9108 81.6637 31.349 79.1989C31.6666 77.4123 33.0069 75.8708 34.6739 75.1578L37.2888 60.4488ZM35.5646 80.9841C36.566 80.9841 37.5199 80.1848 37.6951 79.1989C37.8704 78.2129 37.2007 77.4137 36.1993 77.4137C35.1979 77.4137 34.2441 78.2129 34.0688 79.1989C33.8935 80.1848 34.5632 80.9841 35.5646 80.9841Z" fill="#F3ECF8"/>
<path fill-rule="evenodd" clip-rule="evenodd" d="M38.7836 31.0043L41.0855 18.056H22.1231C21.7038 16.4798 20.3022 15.3782 18.4434 15.3782C15.9399 15.3782 13.5552 17.3764 13.117 19.8412C12.6788 22.306 14.3531 24.3042 16.8565 24.3042C18.7154 24.3042 20.5087 23.2026 21.4884 21.6264H36.8244L35.1572 31.0043H38.7836ZM19.4631 19.8412C19.2879 20.8271 18.334 21.6264 17.3326 21.6264C16.3312 21.6264 15.6615 20.8271 15.8368 19.8412C16.0121 18.8553 16.9659 18.056 17.9673 18.056C18.9687 18.056 19.6384 18.8553 19.4631 19.8412Z" fill="#F3ECF8"/>
<path fill-rule="evenodd" clip-rule="evenodd" d="M29.9226 60.4488H33.549L32.1332 68.4127C33.6117 69.1014 34.451 70.6742 34.1256 72.5044C33.6874 74.9692 31.3027 76.9674 28.7993 76.9674C26.2958 76.9674 24.6215 74.9692 25.0597 72.5044C25.3851 70.6743 26.7834 69.1015 28.5068 68.4128L29.9226 60.4488ZM29.2753 74.2896C30.2767 74.2896 31.2306 73.4903 31.4059 72.5044C31.5811 71.5185 30.9114 70.7192 29.91 70.7192C28.9087 70.7192 27.9548 71.5185 27.7795 72.5044C27.6042 73.4903 28.2739 74.2896 29.2753 74.2896Z" fill="#F3ECF8"/>
<path fill-rule="evenodd" clip-rule="evenodd" d="M44.8812 60.4488H48.5076L44.5925 82.4711C46.0711 83.1598 46.9104 84.7326 46.585 86.5628C46.1468 89.0276 43.7621 91.0258 41.2586 91.0258C38.7551 91.0258 37.0809 89.0276 37.5191 86.5628C37.8444 84.7328 39.2428 83.16 40.9661 82.4713L44.8812 60.4488ZM40.2389 86.5628C40.0636 87.5487 40.7333 88.348 41.7347 88.348C42.7361 88.348 43.6899 87.5487 43.8652 86.5628C44.0405 85.5769 43.3708 84.7776 42.3694 84.7776C41.368 84.7776 40.4141 85.5769 40.2389 86.5628Z" fill="#F3ECF8"/>
<path fill-rule="evenodd" clip-rule="evenodd" d="M79.5736 14.0393C79.9929 15.6156 81.3945 16.7171 83.2533 16.7171C85.7568 16.7171 88.1415 14.719 88.5797 12.2541C89.0179 9.78929 87.3437 7.79114 84.8402 7.79114C82.9814 7.79114 81.188 8.89269 80.2083 10.4689L60.5661 10.4689L59.9313 14.0393L79.5736 14.0393ZM82.2336 12.2541C82.0583 13.2401 82.728 14.0393 83.7294 14.0393C84.7308 14.0393 85.6847 13.2401 85.8599 12.2541C86.0352 11.2682 85.3655 10.4689 84.3641 10.4689C83.3627 10.4689 82.4088 11.2682 82.2336 12.2541Z" fill="#F3ECF8"/>
<path fill-rule="evenodd" clip-rule="evenodd" d="M74.1986 24.3042C72.3398 24.3042 70.9382 23.2027 70.5189 21.6264L58.5825 21.6264L59.2173 18.056L71.1536 18.056C72.1333 16.4798 73.9267 15.3782 75.7855 15.3782C78.2889 15.3782 79.9632 17.3764 79.525 19.8412C79.0868 22.3061 76.7021 24.3042 74.1986 24.3042ZM74.6747 21.6264C73.6733 21.6264 73.0036 20.8272 73.1789 19.8412C73.3541 18.8553 74.308 18.056 75.3094 18.056C76.3108 18.056 76.9805 18.8553 76.8052 19.8412C76.63 20.8272 75.6761 21.6264 74.6747 21.6264Z" fill="#F3ECF8"/>
</svg>
