<svg width="24" height="24" viewBox="0 0 24 24" fill="none" xmlns="http://www.w3.org/2000/svg">
<path fill-rule="evenodd" clip-rule="evenodd" d="M7.67693 7.35182C8.36587 7.35182 8.89105 7.40452 9.25246 7.50994C9.73811 7.65299 10.1541 7.90711 10.5005 8.27229C10.8468 8.63747 11.1104 9.08547 11.2911 9.6163C11.4718 10.1434 11.5621 10.7947 11.5621 11.5702C11.5621 12.2516 11.4774 12.8389 11.308 13.3321C11.1009 13.9344 10.8054 14.422 10.4214 14.7947C10.1315 15.077 9.73999 15.2973 9.24682 15.4554C8.87787 15.5721 8.38469 15.6304 7.76728 15.6304H4.62186V7.35182H7.67693ZM6.29339 14.2356H7.5414C8.00822 14.2356 8.34517 14.2093 8.55222 14.1565C8.82328 14.0888 9.04729 13.974 9.22423 13.8121C9.40493 13.6502 9.55176 13.3848 9.6647 13.0158C9.77764 12.6431 9.83411 12.1368 9.83411 11.4968C9.83411 10.8568 9.77764 10.3655 9.6647 10.0229C9.55176 9.6803 9.39364 9.413 9.19034 9.221C8.98705 9.029 8.72917 8.89912 8.41669 8.83135C8.18328 8.77865 7.72587 8.75229 7.04445 8.75229H6.29339V14.2356Z" fill="#0A0A0B"/>
<path d="M14.7019 14.2356H18.8581V15.6304H13.0304V7.41958H14.7019V14.2356Z" fill="#0A0A0B"/>
<path fill-rule="evenodd" clip-rule="evenodd" d="M17.6957 2C19.5206 2 21 3.47941 21 5.30435V17.6957C21 19.5206 19.5206 21 17.6957 21H5.30435C3.47941 21 2 19.5206 2 17.6957V5.30435C2 3.47941 3.47941 2 5.30435 2H17.6957ZM5.30435 3.65217C4.39188 3.65217 3.65217 4.39188 3.65217 5.30435V17.6957C3.65217 18.6081 4.39188 19.3478 5.30435 19.3478H17.6957C18.6081 19.3478 19.3478 18.6081 19.3478 17.6957V5.30435C19.3478 4.39188 18.6081 3.65217 17.6957 3.65217H5.30435Z" fill="#0A0A0B"/>
</svg>
