<svg width="24" height="25" viewBox="0 0 24 25" fill="none" xmlns="http://www.w3.org/2000/svg">
<mask id="mask0_11201_24317" style="mask-type:alpha" maskUnits="userSpaceOnUse" x="0" y="0" width="24" height="25">
<rect y="0.5" width="24" height="24" fill="#D9D9D9"/>
</mask>
<g mask="url(#mask0_11201_24317)">
<path d="M4.05 21.5C3.75 21.5 3.5 21.4 3.3 21.2C3.1 21 3 20.75 3 20.45V16.4C3 16.1833 3.075 15.9875 3.225 15.8125C3.375 15.6375 3.56667 15.5167 3.8 15.45L7.25 14.75C7.48333 14.7167 7.72083 14.7375 7.9625 14.8125C8.20417 14.8875 8.4 15 8.55 15.15L10.9 17.5C11.5333 17.1333 12.1333 16.7292 12.7 16.2875C13.2667 15.8458 13.8083 15.3667 14.325 14.85C14.875 14.3167 15.3792 13.7625 15.8375 13.1875C16.2958 12.6125 16.6917 12.0167 17.025 11.4L14.6 8.95C14.4667 8.81667 14.375 8.65833 14.325 8.475C14.275 8.29167 14.2667 8.06667 14.3 7.8L14.95 4.3C14.9833 4.08333 15.0917 3.89583 15.275 3.7375C15.4583 3.57917 15.6667 3.5 15.9 3.5H19.95C20.25 3.5 20.5 3.6 20.7 3.8C20.9 4 21 4.25 21 4.55C21 6.63333 20.5458 8.69167 19.6375 10.725C18.7292 12.7583 17.4417 14.6083 15.775 16.275C14.1083 17.9417 12.2583 19.2292 10.225 20.1375C8.19167 21.0458 6.13333 21.5 4.05 21.5ZM17.95 9.5C18.2333 8.85 18.45 8.19167 18.6 7.525C18.75 6.85833 18.8667 6.18333 18.95 5.5H16.75L16.3 7.85L17.95 9.5ZM9 18.4L7.35 16.75L5 17.25V19.45C5.68333 19.4 6.35833 19.2833 7.025 19.1C7.69167 18.9167 8.35 18.6833 9 18.4Z" fill="#1C1B1F"/>
</g>
</svg>
