<svg width="33" height="33" viewBox="0 0 33 33" fill="none" xmlns="http://www.w3.org/2000/svg">
<rect x="0.333008" y="0.5" width="32" height="32" rx="8" fill="#E5D2F4"/>
<mask id="mask0_11639_22610" style="mask-type:alpha" maskUnits="userSpaceOnUse" x="4" y="4" width="25" height="25">
<rect x="4.33301" y="4.5" width="24" height="24" fill="#D9D9D9"/>
</mask>
<g mask="url(#mask0_11639_22610)">
<path d="M10.333 26.5C9.49967 26.5 8.79134 26.2083 8.20801 25.625C7.62467 25.0417 7.33301 24.3333 7.33301 23.5V20.5H10.333V6.5L11.833 8L13.333 6.5L14.833 8L16.333 6.5L17.833 8L19.333 6.5L20.833 8L22.333 6.5L23.833 8L25.333 6.5V23.5C25.333 24.3333 25.0413 25.0417 24.458 25.625C23.8747 26.2083 23.1663 26.5 22.333 26.5H10.333ZM22.333 24.5C22.6163 24.5 22.8538 24.4042 23.0455 24.2125C23.2372 24.0208 23.333 23.7833 23.333 23.5V9.5H12.333V20.5H21.333V23.5C21.333 23.7833 21.4288 24.0208 21.6205 24.2125C21.8122 24.4042 22.0497 24.5 22.333 24.5ZM13.333 13.5V11.5H19.333V13.5H13.333ZM13.333 16.5V14.5H19.333V16.5H13.333ZM21.333 13.5C21.0497 13.5 20.8122 13.4042 20.6205 13.2125C20.4288 13.0208 20.333 12.7833 20.333 12.5C20.333 12.2167 20.4288 11.9792 20.6205 11.7875C20.8122 11.5958 21.0497 11.5 21.333 11.5C21.6163 11.5 21.8538 11.5958 22.0455 11.7875C22.2372 11.9792 22.333 12.2167 22.333 12.5C22.333 12.7833 22.2372 13.0208 22.0455 13.2125C21.8538 13.4042 21.6163 13.5 21.333 13.5ZM21.333 16.5C21.0497 16.5 20.8122 16.4042 20.6205 16.2125C20.4288 16.0208 20.333 15.7833 20.333 15.5C20.333 15.2167 20.4288 14.9792 20.6205 14.7875C20.8122 14.5958 21.0497 14.5 21.333 14.5C21.6163 14.5 21.8538 14.5958 22.0455 14.7875C22.2372 14.9792 22.333 15.2167 22.333 15.5C22.333 15.7833 22.2372 16.0208 22.0455 16.2125C21.8538 16.4042 21.6163 16.5 21.333 16.5ZM10.333 24.5H19.333V22.5H9.33301V23.5C9.33301 23.7833 9.42884 24.0208 9.62051 24.2125C9.81217 24.4042 10.0497 24.5 10.333 24.5Z" fill="#442060"/>
</g>
</svg>
