<svg width="32" height="33" viewBox="0 0 32 33" fill="none" xmlns="http://www.w3.org/2000/svg">
<rect y="0.5" width="32" height="32" rx="8" fill="#E5D2F4"/>
<mask id="mask0_11639_22594" style="mask-type:alpha" maskUnits="userSpaceOnUse" x="4" y="4" width="24" height="25">
<rect x="4" y="4.5" width="24" height="24" fill="#D9D9D9"/>
</mask>
<g mask="url(#mask0_11639_22594)">
<path d="M16 17.5C15.0167 17.5 14.1875 17.1625 13.5125 16.4875C12.8375 15.8125 12.5 14.9833 12.5 14C12.5 13.0167 12.8375 12.1875 13.5125 11.5125C14.1875 10.8375 15.0167 10.5 16 10.5C16.9833 10.5 17.8125 10.8375 18.4875 11.5125C19.1625 12.1875 19.5 13.0167 19.5 14C19.5 14.9833 19.1625 15.8125 18.4875 16.4875C17.8125 17.1625 16.9833 17.5 16 17.5ZM16 15.5C16.4333 15.5 16.7917 15.3583 17.075 15.075C17.3583 14.7917 17.5 14.4333 17.5 14C17.5 13.5667 17.3583 13.2083 17.075 12.925C16.7917 12.6417 16.4333 12.5 16 12.5C15.5667 12.5 15.2083 12.6417 14.925 12.925C14.6417 13.2083 14.5 13.5667 14.5 14C14.5 14.4333 14.6417 14.7917 14.925 15.075C15.2083 15.3583 15.5667 15.5 16 15.5ZM16 26.5C13.6833 25.9167 11.7708 24.5875 10.2625 22.5125C8.75417 20.4375 8 18.1333 8 15.6V9.5L16 6.5L24 9.5V15.6C24 18.1333 23.2458 20.4375 21.7375 22.5125C20.2292 24.5875 18.3167 25.9167 16 26.5ZM16 8.625L10 10.875V15.6C10 16.5 10.125 17.375 10.375 18.225C10.625 19.075 10.9667 19.875 11.4 20.625C12.1 20.275 12.8333 20 13.6 19.8C14.3667 19.6 15.1667 19.5 16 19.5C16.8333 19.5 17.6333 19.6 18.4 19.8C19.1667 20 19.9 20.275 20.6 20.625C21.0333 19.875 21.375 19.075 21.625 18.225C21.875 17.375 22 16.5 22 15.6V10.875L16 8.625ZM16 21.5C15.4 21.5 14.8167 21.5667 14.25 21.7C13.6833 21.8333 13.1417 22.0167 12.625 22.25C13.1083 22.75 13.6333 23.1833 14.2 23.55C14.7667 23.9167 15.3667 24.2 16 24.4C16.6333 24.2 17.2333 23.9167 17.8 23.55C18.3667 23.1833 18.8917 22.75 19.375 22.25C18.8583 22.0167 18.3167 21.8333 17.75 21.7C17.1833 21.5667 16.6 21.5 16 21.5Z" fill="#442060"/>
</g>
</svg>
