<svg width="33" height="33" viewBox="0 0 33 33" fill="none" xmlns="http://www.w3.org/2000/svg">
<rect x="0.666992" y="0.5" width="32" height="32" rx="8" fill="#E5D2F4"/>
<mask id="mask0_11639_22602" style="mask-type:alpha" maskUnits="userSpaceOnUse" x="4" y="4" width="25" height="25">
<rect x="4.66699" y="4.5" width="24" height="24" fill="#D9D9D9"/>
</mask>
<g mask="url(#mask0_11639_22602)">
<path d="M9.66699 12.5V23.5H23.667V12.5H20.667V20.5L16.667 18.5L12.667 20.5V12.5H9.66699ZM9.66699 25.5C9.11699 25.5 8.64616 25.3042 8.25449 24.9125C7.86283 24.5208 7.66699 24.05 7.66699 23.5V11.025C7.66699 10.7917 7.70449 10.5667 7.77949 10.35C7.85449 10.1333 7.96699 9.93333 8.11699 9.75L9.36699 8.225C9.55033 7.99167 9.77949 7.8125 10.0545 7.6875C10.3295 7.5625 10.617 7.5 10.917 7.5H22.417C22.717 7.5 23.0045 7.5625 23.2795 7.6875C23.5545 7.8125 23.7837 7.99167 23.967 8.225L25.217 9.75C25.367 9.93333 25.4795 10.1333 25.5545 10.35C25.6295 10.5667 25.667 10.7917 25.667 11.025V23.5C25.667 24.05 25.4712 24.5208 25.0795 24.9125C24.6878 25.3042 24.217 25.5 23.667 25.5H9.66699ZM10.067 10.5H23.267L22.417 9.5H10.917L10.067 10.5ZM14.667 12.5V17.25L16.667 16.25L18.667 17.25V12.5H14.667Z" fill="#442060"/>
</g>
</svg>
