<svg width="48" height="48" viewBox="0 0 48 48" fill="none" xmlns="http://www.w3.org/2000/svg">
<rect width="48" height="48" rx="4" fill="#F3ECF8"/>
<path d="M10.667 20.0003C10.667 17.4857 10.667 16.2297 11.4483 15.4483C12.2297 14.667 13.4857 14.667 16.0003 14.667H32.0003C34.515 14.667 35.771 14.667 36.5523 15.4483C37.3337 16.2297 37.3337 17.4857 37.3337 20.0003C37.3337 20.6283 37.3337 20.943 37.139 21.139C36.943 21.3337 36.627 21.3337 36.0003 21.3337H12.0003C11.3723 21.3337 11.0577 21.3337 10.8617 21.139C10.667 20.943 10.667 20.627 10.667 20.0003ZM10.667 32.0003C10.667 34.515 10.667 35.771 11.4483 36.5523C12.2297 37.3337 13.4857 37.3337 16.0003 37.3337H32.0003C34.515 37.3337 35.771 37.3337 36.5523 36.5523C37.3337 35.771 37.3337 34.515 37.3337 32.0003V25.3337C37.3337 24.7057 37.3337 24.391 37.139 24.195C36.943 24.0003 36.627 24.0003 36.0003 24.0003H12.0003C11.3723 24.0003 11.0577 24.0003 10.8617 24.195C10.667 24.391 10.667 24.707 10.667 25.3337V32.0003Z" fill="#B16CE9"/>
<path d="M17.334 12V16M30.6673 12V16" stroke="#B16CE9" stroke-width="2" stroke-linecap="round"/>
</svg>
