<svg width="49" height="48" viewBox="0 0 49 48" fill="none" xmlns="http://www.w3.org/2000/svg">
<rect x="0.5" width="48" height="48" rx="4" fill="#F3ECF8"/>
<path fill-rule="evenodd" clip-rule="evenodd" d="M31.1663 10.668C32.2272 10.668 33.2446 11.0894 33.9948 11.8395C34.7449 12.5897 35.1663 13.6071 35.1663 14.668V36.0013C35.1662 36.2524 35.0951 36.4984 34.9613 36.7109C34.8275 36.9234 34.6364 37.0938 34.41 37.2025C34.1836 37.3112 33.9311 37.3537 33.6816 37.3252C33.4321 37.2967 33.1957 37.1983 32.9997 37.0413L30.4997 35.0413L27.9997 37.0413C27.7436 37.2465 27.4208 37.35 27.0931 37.332C26.7654 37.3141 26.4558 37.1759 26.2237 36.944L24.4997 35.22L22.7757 36.944C22.5437 37.1761 22.2342 37.3145 21.9065 37.3327C21.5788 37.3509 21.256 37.2476 20.9997 37.0426L18.4997 35.0413L15.9997 37.0413C15.8036 37.1983 15.5673 37.2967 15.3178 37.3252C15.0683 37.3537 14.8158 37.3112 14.5894 37.2025C14.363 37.0938 14.1719 36.9234 14.0381 36.7109C13.9042 36.4984 13.8332 36.2524 13.833 36.0013V14.668C13.833 13.6071 14.2544 12.5897 15.0046 11.8395C15.7547 11.0894 16.7721 10.668 17.833 10.668H31.1663ZM24.4997 24.0013H20.4997C20.1461 24.0013 19.8069 24.1418 19.5569 24.3918C19.3068 24.6419 19.1663 24.981 19.1663 25.3346C19.1663 25.6883 19.3068 26.0274 19.5569 26.2774C19.8069 26.5275 20.1461 26.668 20.4997 26.668H24.4997C24.8533 26.668 25.1924 26.5275 25.4425 26.2774C25.6925 26.0274 25.833 25.6883 25.833 25.3346C25.833 24.981 25.6925 24.6419 25.4425 24.3918C25.1924 24.1418 24.8533 24.0013 24.4997 24.0013ZM28.4997 18.668H20.4997C20.1598 18.6683 19.833 18.7985 19.5858 19.0318C19.3387 19.2651 19.19 19.5839 19.1701 19.9232C19.1502 20.2624 19.2606 20.5965 19.4787 20.8571C19.6968 21.1177 20.0062 21.2852 20.3437 21.3253L20.4997 21.3346H28.4997C28.8395 21.3343 29.1664 21.2041 29.4135 20.9708C29.6606 20.7375 29.8093 20.4187 29.8292 20.0794C29.8492 19.7402 29.7388 19.4061 29.5207 19.1455C29.3025 18.8849 28.9931 18.7174 28.6557 18.6773L28.4997 18.668Z" fill="#B16CE9"/>
</svg>
