<svg width="48" height="48" viewBox="0 0 48 48" fill="none" xmlns="http://www.w3.org/2000/svg">
<rect width="48" height="48" rx="4" fill="#F3ECF8"/>
<path d="M20.4893 11H27.5107C28.9667 11 30.1213 11 31.0507 11.076C32.0027 11.1533 32.8067 11.316 33.5427 11.6893C34.7342 12.2971 35.7027 13.2666 36.3093 14.4587C36.684 15.192 36.8467 15.9973 36.924 16.9493C37 17.8787 37 19.0333 37 20.4893V27.5107C37 28.9667 37 30.1213 36.924 31.0507C36.8467 32.0027 36.684 32.8067 36.3107 33.5427C35.7032 34.734 34.7343 35.7025 33.5427 36.3093C32.8067 36.684 32.0027 36.8467 31.0507 36.924C30.1213 37 28.9667 37 27.5107 37H20.4893C19.0333 37 17.8787 37 16.9493 36.924C15.9973 36.8467 15.1933 36.684 14.4587 36.3107C13.2669 35.7034 12.2979 34.7345 11.6907 33.5427C11.316 32.8067 11.1533 32.0027 11.076 31.0507C11 30.1213 11 28.9667 11 27.5107V20.4893C11 19.0333 11 17.8787 11.076 16.9493C11.1533 15.9973 11.316 15.1933 11.6893 14.4587C12.2969 13.2666 13.2664 12.2977 14.4587 11.6907C15.192 11.316 15.9973 11.1533 16.9493 11.076C17.8787 11 19.0333 11 20.4893 11ZM19 18C19 18.552 19.448 19 20 19H22C22.8 19 23.3493 19.32 23.72 19.7827C23.9253 20.04 24.0853 20.356 24.1893 20.7027H20C19.7348 20.7027 19.4804 20.808 19.2929 20.9956C19.1054 21.1831 19 21.4375 19 21.7027C19 21.9679 19.1054 22.2222 19.2929 22.4098C19.4804 22.5973 19.7348 22.7027 20 22.7027H24.1893C24.0947 23.0379 23.9352 23.3514 23.72 23.6253C23.3493 24.088 22.8 24.408 22 24.408H20C19.8042 24.4081 19.6128 24.4657 19.4494 24.5736C19.286 24.6815 19.1579 24.8349 19.081 25.015C19.004 25.195 18.9816 25.3936 19.0165 25.5863C19.0514 25.7789 19.1421 25.9571 19.2773 26.0987L24.944 32.024C25.129 32.2074 25.3783 32.3114 25.6389 32.3137C25.8994 32.3161 26.1505 32.2167 26.3389 32.0367C26.5272 31.8567 26.6379 31.6103 26.6473 31.3499C26.6567 31.0896 26.5642 30.8358 26.3893 30.6427L22.3293 26.396C22.9011 26.3661 23.46 26.215 23.9689 25.9527C24.4778 25.6904 24.9252 25.3229 25.2813 24.8747C25.7761 24.2416 26.1063 23.4958 26.2427 22.704H28C28.2652 22.704 28.5196 22.5986 28.7071 22.4111C28.8946 22.2236 29 21.9692 29 21.704C29 21.4388 28.8946 21.1844 28.7071 20.9969C28.5196 20.8094 28.2652 20.704 28 20.704H26.2427C26.1356 20.1024 25.9206 19.5251 25.608 19H28C28.2652 19 28.5196 18.8946 28.7071 18.7071C28.8946 18.5196 29 18.2652 29 18C29 17.7348 28.8946 17.4804 28.7071 17.2929C28.5196 17.1054 28.2652 17 28 17H20C19.7348 17 19.4804 17.1054 19.2929 17.2929C19.1054 17.4804 19 17.7348 19 18Z" fill="#B16CE9"/>
</svg>
