<svg width="49" height="48" viewBox="0 0 49 48" fill="none" xmlns="http://www.w3.org/2000/svg">
<rect x="0.5" width="48" height="48" rx="4" fill="#F3ECF8"/>
<path d="M35.0176 11.1992C36.3883 11.1992 37.5 12.6321 37.5 14.3994V33.5986C37.5 35.3659 36.3883 36.7988 35.0176 36.7988H13.5068C12.1363 36.7985 11.0254 35.3657 11.0254 33.5986V14.3994C11.0254 12.6323 12.1363 11.1996 13.5068 11.1992H35.0176ZM25.5 17.999C22.19 17.999 19.5 20.689 19.5 23.999H15.5L21.5 29.999L27.5 23.999H23.5C23.5 22.339 24.84 20.999 26.5 20.999C28.16 20.999 29.5 22.339 29.5 23.999C29.5 25.659 28.16 26.999 26.5 26.999H25.5V29.999H26.5C29.26 29.999 31.5 27.759 31.5 24.999V23.999C31.5 20.689 28.81 17.999 25.5 17.999Z" fill="#B16CE9"/>
</svg>
