<svg width="48" height="48" viewBox="0 0 48 48" fill="none" xmlns="http://www.w3.org/2000/svg">
<rect width="48" height="48" rx="4" fill="#F3ECF8"/>
<path d="M13.4921 12.8643H34.5079C34.7178 12.8643 34.894 12.9355 35.0365 13.0781C35.179 13.2206 35.2503 13.3973 35.2503 13.6081C35.2503 13.819 35.179 13.9952 35.0365 14.1367C34.894 14.2783 34.7178 14.3491 34.5079 14.3491H13.4921C13.2813 14.3491 13.1051 14.2778 12.9635 14.1352C12.822 13.9927 12.7507 13.816 12.7497 13.6052C12.7487 13.3943 12.82 13.2181 12.9635 13.0766C13.107 12.935 13.2832 12.8643 13.4921 12.8643ZM14.0637 35.1362C13.7242 35.1362 13.4391 35.0214 13.2085 34.7917C12.9779 34.5621 12.863 34.277 12.864 33.9365V26.2274H12.2048C11.8296 26.2274 11.5173 26.0765 11.2679 25.7746C11.0184 25.4727 10.9432 25.1341 11.0422 24.759L12.527 18.2496C12.5883 17.9784 12.7309 17.7557 12.9546 17.5815C13.1783 17.4062 13.4327 17.3186 13.7178 17.3186H34.2822C34.5673 17.3186 34.8217 17.4058 35.0454 17.58C35.2691 17.7552 35.4116 17.9784 35.473 18.2496L36.9578 24.759C37.0568 25.1351 36.9816 25.4736 36.7321 25.7746C36.4827 26.0755 36.1709 26.2264 35.7967 26.2274H35.136V34.3938C35.136 34.6046 35.0647 34.7808 34.9222 34.9224C34.7796 35.0639 34.6029 35.1352 34.3921 35.1362C34.1812 35.1372 34.0051 35.0659 33.8635 34.9224C33.722 34.7789 33.6512 34.6027 33.6512 34.3938V26.2274H26.2272V33.9365C26.2272 34.277 26.1124 34.5621 25.8827 34.7917C25.6531 35.0214 25.368 35.1362 25.0275 35.1362H14.0637ZM14.3488 33.6514H24.7424V26.2274H14.3488V33.6514Z" fill="#B16CE9"/>
</svg>
