<svg width="210" height="98" viewBox="0 0 210 98" fill="none" xmlns="http://www.w3.org/2000/svg">
<path d="M2.16274 17.1234V11.5951H31.2085V17.1234H19.9564V48H13.4148V17.1234H2.16274ZM36.5234 48V20.6963H42.9583V48H36.5234ZM39.7586 16.8212C38.7395 16.8212 37.8625 16.4834 37.1278 15.808C36.3931 15.1206 36.0257 14.297 36.0257 13.3371C36.0257 12.3654 36.3931 11.5418 37.1278 10.8663C37.8625 10.1789 38.7395 9.83528 39.7586 9.83528C40.7896 9.83528 41.6666 10.1789 42.3895 10.8663C43.1242 11.5418 43.4916 12.3654 43.4916 13.3371C43.4916 14.297 43.1242 15.1206 42.3895 15.808C41.6666 16.4834 40.7896 16.8212 39.7586 16.8212ZM57.4323 48.5511C55.7021 48.5511 54.1437 48.2429 52.7572 47.6267C51.3826 46.9986 50.2923 46.0743 49.4865 44.8537C48.6925 43.6331 48.2955 42.128 48.2955 40.3386C48.2955 38.798 48.5799 37.5241 49.1487 36.5168C49.7175 35.5095 50.4938 34.7037 51.4774 34.0993C52.461 33.4949 53.569 33.0387 54.8014 32.7306C56.0457 32.4106 57.3315 32.1795 58.6588 32.0373C60.2586 31.8714 61.5563 31.7233 62.5517 31.5929C63.5472 31.4507 64.27 31.2374 64.7204 30.953C65.1825 30.6567 65.4136 30.2005 65.4136 29.5842V29.4776C65.4136 28.1385 65.0166 27.1015 64.2226 26.3668C63.4286 25.6321 62.2851 25.2647 60.7919 25.2647C59.2158 25.2647 57.9655 25.6084 57.0412 26.2957C56.1287 26.983 55.5125 27.7948 55.1925 28.731L49.1843 27.8778C49.6583 26.2187 50.4404 24.8322 51.5307 23.7182C52.6209 22.5924 53.9541 21.751 55.5302 21.194C57.1064 20.6252 58.8484 20.3408 60.7563 20.3408C62.0718 20.3408 63.3812 20.4949 64.6848 20.803C65.9884 21.1111 67.1793 21.6207 68.2577 22.3317C69.3361 23.0309 70.2012 23.9848 70.853 25.1936C71.5167 26.4024 71.8485 27.9133 71.8485 29.7264V48H65.6625V44.2493H65.4492C65.0581 45.0077 64.507 45.7188 63.796 46.3824C63.0968 47.0342 62.214 47.5615 61.1474 47.9644C60.0927 48.3555 58.8543 48.5511 57.4323 48.5511ZM59.1032 43.8227C60.3949 43.8227 61.5148 43.5679 62.4628 43.0583C63.4109 42.5369 64.1397 41.8496 64.6493 40.9963C65.1707 40.1431 65.4314 39.2128 65.4314 38.2055V34.9881C65.2299 35.154 64.8863 35.3081 64.4004 35.4503C63.9264 35.5925 63.3931 35.7169 62.8006 35.8236C62.208 35.9302 61.6214 36.025 61.0408 36.108C60.4601 36.1909 59.9564 36.262 59.5298 36.3213C58.5699 36.4516 57.7107 36.6649 56.9523 36.9612C56.1939 37.2575 55.5954 37.6722 55.157 38.2055C54.7185 38.7269 54.4992 39.4024 54.4992 40.232C54.4992 41.417 54.9318 42.3117 55.7969 42.9161C56.662 43.5205 57.7641 43.8227 59.1032 43.8227ZM78.6033 11.5951H86.6735L97.4812 37.9744H97.9078L108.716 11.5951H116.786V48H110.458V22.9894H110.12L100.059 47.8933H95.3303L85.2692 22.9361H84.9315V48H78.6033V11.5951ZM135.77 48.5333C133.033 48.5333 130.669 47.9644 128.678 46.8268C126.699 45.6773 125.176 44.0538 124.109 41.9562C123.043 39.8468 122.51 37.3641 122.51 34.5081C122.51 31.6996 123.043 29.2346 124.109 27.1134C125.188 24.9803 126.693 23.3212 128.624 22.1362C130.556 20.9392 132.826 20.3408 135.433 20.3408C137.115 20.3408 138.703 20.6134 140.197 21.1585C141.702 21.6918 143.029 22.5213 144.178 23.6471C145.34 24.7729 146.252 26.2068 146.916 27.9489C147.579 29.679 147.911 31.741 147.911 34.1348V36.108H125.531V31.7707H141.743C141.731 30.5382 141.465 29.442 140.943 28.4821C140.422 27.5104 139.693 26.746 138.757 26.189C137.832 25.6321 136.754 25.3536 135.522 25.3536C134.206 25.3536 133.051 25.6735 132.055 26.3135C131.06 26.9416 130.284 27.7711 129.727 28.8021C129.181 29.8212 128.903 30.9411 128.891 32.1617V35.948C128.891 37.536 129.181 38.8988 129.762 40.0364C130.343 41.1622 131.155 42.0273 132.197 42.6317C133.24 43.2242 134.461 43.5205 135.859 43.5205C136.795 43.5205 137.643 43.3901 138.401 43.1294C139.16 42.8569 139.817 42.4599 140.374 41.9384C140.931 41.417 141.352 40.7712 141.636 40.0009L147.645 40.6764C147.265 42.2643 146.543 43.6508 145.476 44.8359C144.421 46.0091 143.07 46.9216 141.423 47.5734C139.776 48.2133 137.892 48.5333 135.77 48.5333ZM163.487 48.4799C161.342 48.4799 159.423 47.9289 157.728 46.8268C156.033 45.7247 154.694 44.1249 153.711 42.0273C152.727 39.9298 152.235 37.3819 152.235 34.3837C152.235 31.35 152.733 28.7902 153.728 26.7045C154.736 24.607 156.093 23.0249 157.799 21.9584C159.506 20.88 161.408 20.3408 163.505 20.3408C165.105 20.3408 166.42 20.6134 167.451 21.1585C168.482 21.6918 169.3 22.3376 169.904 23.0961C170.509 23.8426 170.977 24.5477 171.309 25.2114H171.575V11.5951H178.028V48H171.7V43.6982H171.309C170.977 44.3619 170.497 45.067 169.869 45.8136C169.241 46.5483 168.411 47.1764 167.38 47.6978C166.349 48.2192 165.052 48.4799 163.487 48.4799ZM165.283 43.2005C166.646 43.2005 167.807 42.8332 168.767 42.0984C169.727 41.3518 170.455 40.3149 170.953 38.9876C171.451 37.6604 171.7 36.1139 171.7 34.3482C171.7 32.5824 171.451 31.0478 170.953 29.7442C170.467 28.4407 169.744 27.4274 168.785 26.7045C167.837 25.9817 166.669 25.6202 165.283 25.6202C163.849 25.6202 162.652 25.9935 161.692 26.7401C160.732 27.4867 160.009 28.5177 159.523 29.8331C159.037 31.1485 158.795 32.6535 158.795 34.3482C158.795 36.0546 159.037 37.5774 159.523 38.9165C160.021 40.2438 160.75 41.2926 161.71 42.0629C162.682 42.8213 163.872 43.2005 165.283 43.2005ZM206.465 27.9133L200.599 28.5532C200.433 27.9607 200.143 27.4037 199.728 26.8823C199.325 26.3609 198.78 25.9402 198.092 25.6202C197.405 25.3003 196.564 25.1403 195.568 25.1403C194.229 25.1403 193.103 25.4306 192.191 26.0113C191.29 26.592 190.846 27.3445 190.858 28.2688C190.846 29.0628 191.136 29.7087 191.729 30.2064C192.333 30.7041 193.329 31.113 194.715 31.4329L199.372 32.4284C201.956 32.9853 203.876 33.8682 205.132 35.077C206.4 36.2857 207.04 37.8678 207.051 39.8231C207.04 41.5414 206.536 43.0583 205.541 44.3737C204.557 45.6773 203.188 46.6964 201.434 47.4312C199.68 48.1659 197.666 48.5333 195.391 48.5333C192.049 48.5333 189.359 47.8341 187.32 46.4357C185.282 45.0255 184.067 43.0642 183.676 40.5519L189.951 39.9475C190.236 41.18 190.84 42.1103 191.764 42.7384C192.689 43.3664 193.891 43.6805 195.373 43.6805C196.901 43.6805 198.128 43.3664 199.052 42.7384C199.989 42.1103 200.457 41.3341 200.457 40.4097C200.457 39.6276 200.154 38.9817 199.55 38.4722C198.958 37.9626 198.033 37.5715 196.777 37.2989L192.12 36.3213C189.501 35.7761 187.563 34.8577 186.307 33.566C185.051 32.2625 184.429 30.6152 184.441 28.6243C184.429 26.9416 184.885 25.4839 185.809 24.2515C186.746 23.0072 188.043 22.0473 189.702 21.3718C191.373 20.6845 193.299 20.3408 195.479 20.3408C198.679 20.3408 201.197 21.0222 203.034 22.385C204.883 23.7478 206.026 25.5906 206.465 27.9133Z" fill="#F3ECF8"/>
<path d="M10.294 63.5037V75H8.55941V63.5037H10.294ZM14.3637 69.8806V75H12.6853V66.3778H14.2963V67.7811H14.403C14.6013 67.3246 14.9119 66.9578 15.3348 66.6809C15.7614 66.404 16.2984 66.2655 16.9459 66.2655C17.5334 66.2655 18.048 66.389 18.4896 66.636C18.9311 66.8792 19.2736 67.2422 19.5168 67.725C19.7601 68.2078 19.8817 68.8047 19.8817 69.5157V75H18.2033V69.7178C18.2033 69.0928 18.0405 68.6044 17.7149 68.2527C17.3893 67.8971 16.9421 67.7194 16.3733 67.7194C15.9841 67.7194 15.6379 67.8036 15.3348 67.972C15.0354 68.1404 14.7978 68.3874 14.6219 68.713C14.4498 69.0348 14.3637 69.424 14.3637 69.8806ZM23.8111 69.8806V75H22.1327V66.3778H23.7437V67.7811H23.8504C24.0487 67.3246 24.3593 66.9578 24.7822 66.6809C25.2088 66.404 25.7458 66.2655 26.3933 66.2655C26.9808 66.2655 27.4954 66.389 27.9369 66.636C28.3785 66.8792 28.7209 67.2422 28.9642 67.725C29.2074 68.2078 29.3291 68.8047 29.3291 69.5157V75H27.6507V69.7178C27.6507 69.0928 27.4879 68.6044 27.1623 68.2527C26.8367 67.8971 26.3895 67.7194 25.8207 67.7194C25.4315 67.7194 25.0853 67.8036 24.7822 67.972C24.4828 68.1404 24.2452 68.3874 24.0693 68.713C23.8971 69.0348 23.8111 69.424 23.8111 69.8806ZM35.2119 75.174C34.4036 75.174 33.6982 74.9888 33.0957 74.6183C32.4932 74.2478 32.0254 73.7295 31.6923 73.0634C31.3593 72.3972 31.1927 71.6188 31.1927 70.7282C31.1927 69.8338 31.3593 69.0516 31.6923 68.3818C32.0254 67.7119 32.4932 67.1917 33.0957 66.8212C33.6982 66.4508 34.4036 66.2655 35.2119 66.2655C36.0203 66.2655 36.7257 66.4508 37.3282 66.8212C37.9307 67.1917 38.3985 67.7119 38.7316 68.3818C39.0646 69.0516 39.2311 69.8338 39.2311 70.7282C39.2311 71.6188 39.0646 72.3972 38.7316 73.0634C38.3985 73.7295 37.9307 74.2478 37.3282 74.6183C36.7257 74.9888 36.0203 75.174 35.2119 75.174ZM35.2176 73.765C35.7415 73.765 36.1756 73.6266 36.5199 73.3497C36.8642 73.0727 37.1186 72.7041 37.2833 72.2438C37.4517 71.7835 37.5359 71.2764 37.5359 70.7226C37.5359 70.1725 37.4517 69.6672 37.2833 69.2069C37.1186 68.7429 36.8642 68.3705 36.5199 68.0899C36.1756 67.8092 35.7415 67.6689 35.2176 67.6689C34.6899 67.6689 34.252 67.8092 33.904 68.0899C33.5597 68.3705 33.3034 68.7429 33.135 69.2069C32.9703 69.6672 32.888 70.1725 32.888 70.7226C32.888 71.2764 32.9703 71.7835 33.135 72.2438C33.3034 72.7041 33.5597 73.0727 33.904 73.3497C34.252 73.6266 34.6899 73.765 35.2176 73.765ZM48.1874 66.3778L45.0607 75H43.2644L40.1321 66.3778H41.934L44.1176 73.0128H44.2074L46.3855 66.3778H48.1874ZM52.0269 75.1909C51.4806 75.1909 50.9866 75.0898 50.545 74.8877C50.1034 74.6819 49.7535 74.3844 49.4953 73.9952C49.2408 73.606 49.1136 73.1289 49.1136 72.5638C49.1136 72.0773 49.2071 71.6769 49.3942 71.3625C49.5814 71.0482 49.834 70.7993 50.1521 70.6159C50.4702 70.4325 50.8257 70.2941 51.2186 70.2005C51.6116 70.107 52.012 70.0359 52.4199 69.9872C52.9363 69.9273 53.3555 69.8787 53.6773 69.8413C53.9991 69.8001 54.233 69.7346 54.379 69.6448C54.5249 69.555 54.5979 69.409 54.5979 69.2069V69.1677C54.5979 68.6774 54.4594 68.2976 54.1825 68.0281C53.9093 67.7587 53.5014 67.624 52.9588 67.624C52.3937 67.624 51.9484 67.7493 51.6228 68.0001C51.3009 68.2471 51.0783 68.5221 50.9548 68.8252L49.3774 68.466C49.5645 67.9421 49.8377 67.5192 50.197 67.1973C50.56 66.8718 50.9772 66.636 51.4488 66.4901C51.9203 66.3404 52.4161 66.2655 52.9363 66.2655C53.2806 66.2655 53.6455 66.3067 54.0309 66.389C54.4201 66.4676 54.7831 66.6135 55.1199 66.8269C55.4605 67.0402 55.7393 67.3452 55.9563 67.7418C56.1734 68.1348 56.2819 68.6456 56.2819 69.2743V75H54.6428V73.8212H54.5754C54.4669 74.0382 54.3041 74.2515 54.0871 74.4611C53.87 74.6707 53.5912 74.8447 53.2507 74.9832C52.9101 75.1216 52.5022 75.1909 52.0269 75.1909ZM52.3918 73.8436C52.8559 73.8436 53.2525 73.7519 53.5819 73.5686C53.9149 73.3852 54.1675 73.1457 54.3397 72.8501C54.5156 72.5507 54.6035 72.2307 54.6035 71.8902V70.7787C54.5436 70.8386 54.4276 70.8947 54.2555 70.9471C54.0871 70.9958 53.8943 71.0388 53.6773 71.0762C53.4602 71.1099 53.2488 71.1417 53.043 71.1716C52.8371 71.1978 52.665 71.2203 52.5265 71.239C52.201 71.2802 51.9034 71.3494 51.634 71.4467C51.3683 71.544 51.155 71.6843 50.9941 71.8677C50.8369 72.0473 50.7583 72.2868 50.7583 72.5862C50.7583 73.0016 50.9117 73.316 51.2186 73.5293C51.5255 73.7389 51.9165 73.8436 52.3918 73.8436ZM62.5423 66.3778V67.725H57.8326V66.3778H62.5423ZM59.0956 64.312H60.7741V72.4683C60.7741 72.7939 60.8227 73.039 60.92 73.2037C61.0173 73.3646 61.1427 73.475 61.2961 73.5349C61.4533 73.591 61.6236 73.6191 61.8069 73.6191C61.9417 73.6191 62.0595 73.6097 62.1606 73.591C62.2616 73.5723 62.3402 73.5574 62.3963 73.5461L62.6995 74.9326C62.6022 74.9701 62.4637 75.0075 62.2841 75.0449C62.1044 75.0861 61.8799 75.1085 61.6105 75.1123C61.1689 75.1198 60.7572 75.0412 60.3755 74.8765C59.9938 74.7118 59.6851 74.4574 59.4493 74.1131C59.2135 73.7688 59.0956 73.3366 59.0956 72.8164V64.312ZM64.3989 75V66.3778H66.0773V75H64.3989ZM65.2466 65.0474C64.9547 65.0474 64.7039 64.9501 64.4944 64.7555C64.2885 64.5572 64.1856 64.3214 64.1856 64.0482C64.1856 63.7713 64.2885 63.5355 64.4944 63.3409C64.7039 63.1426 64.9547 63.0434 65.2466 63.0434C65.5385 63.0434 65.7873 63.1426 65.9931 63.3409C66.2027 63.5355 66.3075 63.7713 66.3075 64.0482C66.3075 64.3214 66.2027 64.5572 65.9931 64.7555C65.7873 64.9501 65.5385 65.0474 65.2466 65.0474ZM70.0138 69.8806V75H68.3353V66.3778H69.9464V67.7811H70.053C70.2514 67.3246 70.562 66.9578 70.9849 66.6809C71.4115 66.404 71.9485 66.2655 72.5959 66.2655C73.1835 66.2655 73.698 66.389 74.1396 66.636C74.5812 66.8792 74.9236 67.2422 75.1669 67.725C75.4101 68.2078 75.5317 68.8047 75.5317 69.5157V75H73.8533V69.7178C73.8533 69.0928 73.6905 68.6044 73.365 68.2527C73.0394 67.8971 72.5922 67.7194 72.0234 67.7194C71.6342 67.7194 71.288 67.8036 70.9849 67.972C70.6855 68.1404 70.4479 68.3874 70.272 68.713C70.0998 69.0348 70.0138 69.424 70.0138 69.8806ZM81.3978 78.413C80.7129 78.413 80.1235 78.3231 79.6295 78.1435C79.1393 77.9639 78.7389 77.7263 78.4283 77.4306C78.1177 77.135 77.8856 76.8113 77.7322 76.4595L79.1749 75.8645C79.2759 76.0291 79.4106 76.2031 79.579 76.3865C79.7512 76.5736 79.9832 76.7327 80.2751 76.8637C80.5707 76.9946 80.9506 77.0601 81.4146 77.0601C82.0508 77.0601 82.5766 76.9048 82.992 76.5942C83.4074 76.2873 83.6151 75.7971 83.6151 75.1235V73.4282H83.5084C83.4074 73.6116 83.2614 73.8156 83.0706 74.0401C82.8835 74.2646 82.6252 74.4592 82.2959 74.6239C81.9666 74.7886 81.5381 74.8709 81.0105 74.8709C80.3294 74.8709 79.7156 74.7118 79.1692 74.3938C78.6266 74.0719 78.1963 73.5985 77.8782 72.9736C77.5638 72.3449 77.4066 71.5721 77.4066 70.6552C77.4066 69.7384 77.5619 68.9525 77.8725 68.2976C78.1869 67.6427 78.6173 67.1412 79.1636 66.7932C79.71 66.4414 80.3294 66.2655 81.0217 66.2655C81.5568 66.2655 81.9891 66.3553 82.3184 66.535C82.6477 66.7108 82.904 66.9167 83.0874 67.1524C83.2745 67.3882 83.4186 67.5959 83.5197 67.7755H83.6431V66.3778H85.2879V75.1909C85.2879 75.9318 85.1157 76.5399 84.7714 77.0152C84.4272 77.4905 83.9612 77.8423 83.3737 78.0705C82.7899 78.2988 82.1313 78.413 81.3978 78.413ZM81.3809 73.4788C81.8637 73.4788 82.2716 73.3665 82.6047 73.142C82.9415 72.9137 83.1959 72.5881 83.3681 72.1652C83.544 71.7386 83.6319 71.2278 83.6319 70.6328C83.6319 70.0527 83.5458 69.5419 83.3737 69.1003C83.2016 68.6587 82.949 68.3144 82.6159 68.0674C82.2828 67.8167 81.8712 67.6913 81.3809 67.6913C80.8757 67.6913 80.4547 67.8223 80.1179 68.0843C79.7811 68.3425 79.5266 68.6943 79.3545 69.1396C79.1861 69.5849 79.1019 70.0826 79.1019 70.6328C79.1019 71.1978 79.188 71.6937 79.3601 72.1203C79.5322 72.5469 79.7867 72.88 80.1235 73.1195C80.4641 73.359 80.8832 73.4788 81.3809 73.4788ZM91.29 64.9969V63.5037H100.187V64.9969H96.6003V75H94.8714V64.9969H91.29ZM104.4 75.174C103.592 75.174 102.886 74.9888 102.284 74.6183C101.681 74.2478 101.214 73.7295 100.881 73.0634C100.547 72.3972 100.381 71.6188 100.381 70.7282C100.381 69.8338 100.547 69.0516 100.881 68.3818C101.214 67.7119 101.681 67.1917 102.284 66.8212C102.886 66.4508 103.592 66.2655 104.4 66.2655C105.209 66.2655 105.914 66.4508 106.516 66.8212C107.119 67.1917 107.587 67.7119 107.92 68.3818C108.253 69.0516 108.419 69.8338 108.419 70.7282C108.419 71.6188 108.253 72.3972 107.92 73.0634C107.587 73.7295 107.119 74.2478 106.516 74.6183C105.914 74.9888 105.209 75.174 104.4 75.174ZM104.406 73.765C104.93 73.765 105.364 73.6266 105.708 73.3497C106.052 73.0727 106.307 72.7041 106.472 72.2438C106.64 71.7835 106.724 71.2764 106.724 70.7226C106.724 70.1725 106.64 69.6672 106.472 69.2069C106.307 68.7429 106.052 68.3705 105.708 68.0899C105.364 67.8092 104.93 67.6689 104.406 67.6689C103.878 67.6689 103.44 67.8092 103.092 68.0899C102.748 68.3705 102.492 68.7429 102.323 69.2069C102.159 69.6672 102.076 70.1725 102.076 70.7226C102.076 71.2764 102.159 71.7835 102.323 72.2438C102.492 72.7041 102.748 73.0727 103.092 73.3497C103.44 73.6266 103.878 73.765 104.406 73.765ZM113.521 75.1684C112.825 75.1684 112.203 74.9906 111.657 74.6351C111.114 74.2759 110.688 73.765 110.377 73.1027C110.07 72.4365 109.917 71.6376 109.917 70.7057C109.917 69.7739 110.072 68.9768 110.383 68.3144C110.697 67.652 111.127 67.145 111.674 66.7932C112.22 66.4414 112.839 66.2655 113.532 66.2655C114.067 66.2655 114.497 66.3553 114.823 66.535C115.152 66.7108 115.407 66.9167 115.586 67.1524C115.77 67.3882 115.912 67.5959 116.013 67.7755H116.114V63.5037H117.792V75H116.153V73.6584H116.013C115.912 73.8418 115.766 74.0513 115.575 74.2871C115.388 74.5229 115.13 74.7287 114.8 74.9046C114.471 75.0805 114.045 75.1684 113.521 75.1684ZM113.891 73.737C114.374 73.737 114.782 73.6097 115.115 73.3553C115.452 73.097 115.706 72.7397 115.878 72.2831C116.054 71.8265 116.142 71.2951 116.142 70.6889C116.142 70.0901 116.056 69.5662 115.884 69.1171C115.712 68.6681 115.459 68.3182 115.126 68.0674C114.793 67.8167 114.381 67.6913 113.891 67.6913C113.386 67.6913 112.965 67.8223 112.628 68.0843C112.291 68.3462 112.037 68.7036 111.865 69.1564C111.696 69.6092 111.612 70.1201 111.612 70.6889C111.612 71.2652 111.698 71.7835 111.87 72.2438C112.042 72.7041 112.297 73.069 112.634 73.3384C112.974 73.6041 113.393 73.737 113.891 73.737ZM122.697 75.1909C122.151 75.1909 121.657 75.0898 121.215 74.8877C120.774 74.6819 120.424 74.3844 120.165 73.9952C119.911 73.606 119.784 73.1289 119.784 72.5638C119.784 72.0773 119.877 71.6769 120.064 71.3625C120.252 71.0482 120.504 70.7993 120.822 70.6159C121.14 70.4325 121.496 70.2941 121.889 70.2005C122.282 70.107 122.682 70.0359 123.09 69.9872C123.607 69.9273 124.026 69.8787 124.347 69.8413C124.669 69.8001 124.903 69.7346 125.049 69.6448C125.195 69.555 125.268 69.409 125.268 69.2069V69.1677C125.268 68.6774 125.13 68.2976 124.853 68.0281C124.579 67.7587 124.172 67.624 123.629 67.624C123.064 67.624 122.619 67.7493 122.293 68.0001C121.971 68.2471 121.748 68.5221 121.625 68.8252L120.048 68.466C120.235 67.9421 120.508 67.5192 120.867 67.1973C121.23 66.8718 121.647 66.636 122.119 66.4901C122.59 66.3404 123.086 66.2655 123.607 66.2655C123.951 66.2655 124.316 66.3067 124.701 66.389C125.09 66.4676 125.453 66.6135 125.79 66.8269C126.131 67.0402 126.409 67.3452 126.627 67.7418C126.844 68.1348 126.952 68.6456 126.952 69.2743V75H125.313V73.8212H125.246C125.137 74.0382 124.974 74.2515 124.757 74.4611C124.54 74.6707 124.261 74.8447 123.921 74.9832C123.58 75.1216 123.172 75.1909 122.697 75.1909ZM123.062 73.8436C123.526 73.8436 123.923 73.7519 124.252 73.5686C124.585 73.3852 124.838 73.1457 125.01 72.8501C125.186 72.5507 125.274 72.2307 125.274 71.8902V70.7787C125.214 70.8386 125.098 70.8947 124.926 70.9471C124.757 70.9958 124.565 71.0388 124.347 71.0762C124.13 71.1099 123.919 71.1417 123.713 71.1716C123.507 71.1978 123.335 71.2203 123.197 71.239C122.871 71.2802 122.574 71.3494 122.304 71.4467C122.038 71.544 121.825 71.6843 121.664 71.8677C121.507 72.0473 121.428 72.2868 121.428 72.5862C121.428 73.0016 121.582 73.316 121.889 73.5293C122.196 73.7389 122.587 73.8436 123.062 73.8436ZM129.94 78.2333C129.689 78.2333 129.461 78.2127 129.255 78.1716C129.049 78.1342 128.896 78.093 128.795 78.0481L129.199 76.6728C129.506 76.7551 129.779 76.7907 130.018 76.7795C130.258 76.7682 130.469 76.6784 130.653 76.51C130.84 76.3416 131.005 76.0666 131.147 75.6848L131.354 75.1123L128.2 66.3778H129.996L132.18 73.069H132.269L134.453 66.3778H136.255L132.702 76.1508C132.537 76.5998 132.327 76.9797 132.073 77.2903C131.818 77.6046 131.515 77.8404 131.164 77.9976C130.812 78.1547 130.404 78.2333 129.94 78.2333ZM139.476 73.4282L139.391 74.0401C139.335 74.4892 139.24 74.957 139.105 75.4435C138.974 75.9337 138.838 76.3884 138.695 76.8075C138.557 77.2267 138.443 77.5597 138.353 77.8067H137.163C137.212 77.5747 137.279 77.2603 137.365 76.8637C137.451 76.4707 137.535 76.031 137.618 75.5445C137.7 75.058 137.762 74.5622 137.803 74.0569L137.859 73.4282H139.476Z" fill="#EDBCD5"/>
<path d="M14.8296 85.5237C14.7697 84.9923 14.5227 84.5807 14.0886 84.2888C13.6545 83.9931 13.1082 83.8453 12.4495 83.8453C11.978 83.8453 11.5701 83.9202 11.2258 84.0699C10.8815 84.2158 10.6139 84.4179 10.4231 84.6761C10.2359 84.9306 10.1424 85.2206 10.1424 85.5462C10.1424 85.8194 10.206 86.0551 10.3332 86.2535C10.4642 86.4518 10.6345 86.6183 10.8441 86.7531C11.0574 86.8841 11.2857 86.9944 11.5289 87.0843C11.7722 87.1703 12.006 87.2414 12.2306 87.2976L13.3533 87.5895C13.72 87.6793 14.0961 87.8009 14.4816 87.9543C14.867 88.1078 15.2244 88.3099 15.5537 88.5606C15.8831 88.8113 16.1488 89.1219 16.3508 89.4924C16.5567 89.8629 16.6596 90.3064 16.6596 90.8228C16.6596 91.474 16.4912 92.0521 16.1544 92.5574C15.8213 93.0626 15.3367 93.4611 14.7005 93.753C14.068 94.0449 13.3027 94.1909 12.4046 94.1909C11.5439 94.1909 10.7992 94.0543 10.1705 93.7811C9.54176 93.5079 9.04965 93.1206 8.69413 92.6191C8.33861 92.1139 8.14214 91.5151 8.10472 90.8228H9.84488C9.87856 91.2382 10.0133 91.5844 10.249 91.8613C10.4886 92.1345 10.7935 92.3384 11.164 92.4731C11.5383 92.6041 11.948 92.6696 12.3934 92.6696C12.8836 92.6696 13.3196 92.5929 13.7013 92.4395C14.0868 92.2823 14.3899 92.0652 14.6107 91.7883C14.8315 91.5076 14.9419 91.1802 14.9419 90.806C14.9419 90.4654 14.8446 90.1866 14.65 89.9696C14.4591 89.7525 14.199 89.5729 13.8697 89.4307C13.5441 89.2885 13.1755 89.1631 12.7639 89.0546L11.4054 88.6841C10.4848 88.4334 9.75507 88.0647 9.21618 87.5782C8.68103 87.0917 8.41346 86.4481 8.41346 85.6472C8.41346 84.9848 8.59309 84.4067 8.95235 83.9127C9.31161 83.4187 9.7981 83.0351 10.4118 82.7619C11.0256 82.485 11.7179 82.3465 12.4888 82.3465C13.2672 82.3465 13.9539 82.4831 14.5489 82.7563C15.1477 83.0295 15.6192 83.4056 15.9635 83.8846C16.3078 84.3599 16.4874 84.9063 16.5024 85.5237H14.8296ZM20.276 88.8806V94H18.5976V82.5037H20.2536V86.7811H20.3602C20.5623 86.3171 20.871 85.9485 21.2864 85.6753C21.7018 85.4021 22.2445 85.2655 22.9143 85.2655C23.5056 85.2655 24.022 85.3871 24.4636 85.6304C24.909 85.8736 25.2533 86.2366 25.4965 86.7194C25.7435 87.1984 25.867 87.7972 25.867 88.5157V94H24.1886V88.7178C24.1886 88.0853 24.0258 87.5951 23.7002 87.2471C23.3746 86.8953 22.9218 86.7194 22.3418 86.7194C21.9451 86.7194 21.5896 86.8036 21.2752 86.972C20.9646 87.1404 20.7195 87.3874 20.5399 87.713C20.364 88.0348 20.276 88.424 20.276 88.8806ZM30.6159 94.1909C30.0696 94.1909 29.5756 94.0898 29.134 93.8877C28.6924 93.6819 28.3425 93.3844 28.0843 92.9952C27.8298 92.606 27.7026 92.1289 27.7026 91.5638C27.7026 91.0773 27.7961 90.6769 27.9833 90.3625C28.1704 90.0482 28.423 89.7993 28.7411 89.6159C29.0592 89.4325 29.4147 89.2941 29.8076 89.2005C30.2006 89.107 30.601 89.0359 31.0089 88.9872C31.5253 88.9273 31.9445 88.8787 32.2663 88.8413C32.5881 88.8001 32.822 88.7346 32.968 88.6448C33.1139 88.555 33.1869 88.409 33.1869 88.2069V88.1677C33.1869 87.6774 33.0484 87.2976 32.7715 87.0281C32.4983 86.7587 32.0904 86.624 31.5478 86.624C30.9827 86.624 30.5374 86.7493 30.2118 87.0001C29.8899 87.2471 29.6673 87.5221 29.5438 87.8252L27.9664 87.466C28.1535 86.9421 28.4267 86.5192 28.786 86.1973C29.149 85.8718 29.5662 85.636 30.0378 85.4901C30.5093 85.3404 31.0051 85.2655 31.5253 85.2655C31.8696 85.2655 32.2345 85.3067 32.6199 85.389C33.0091 85.4676 33.3721 85.6135 33.7089 85.8269C34.0495 86.0402 34.3283 86.3452 34.5453 86.7418C34.7624 87.1348 34.8709 87.6456 34.8709 88.2743V94H33.2318V92.8212H33.1644C33.0559 93.0382 32.8931 93.2515 32.6761 93.4611C32.459 93.6707 32.1802 93.8447 31.8397 93.9832C31.4991 94.1216 31.0912 94.1909 30.6159 94.1909ZM30.9808 92.8436C31.4449 92.8436 31.8415 92.7519 32.1709 92.5686C32.5039 92.3852 32.7565 92.1457 32.9287 91.8501C33.1046 91.5507 33.1925 91.2307 33.1925 90.8902V89.7787C33.1326 89.8386 33.0166 89.8947 32.8445 89.9471C32.6761 89.9958 32.4833 90.0388 32.2663 90.0762C32.0492 90.1099 31.8378 90.1417 31.632 90.1716C31.4262 90.1978 31.254 90.2203 31.1155 90.239C30.79 90.2802 30.4925 90.3494 30.223 90.4467C29.9573 90.544 29.744 90.6843 29.5831 90.8677C29.4259 91.0473 29.3473 91.2868 29.3473 91.5862C29.3473 92.0016 29.5007 92.316 29.8076 92.5293C30.1145 92.7389 30.5056 92.8436 30.9808 92.8436ZM37.1065 97.2333V85.3778H38.7456V86.7755H38.8859C38.9832 86.5959 39.1236 86.3882 39.3069 86.1524C39.4903 85.9167 39.7448 85.7108 40.0704 85.535C40.3959 85.3553 40.8263 85.2655 41.3614 85.2655C42.0575 85.2655 42.6787 85.4414 43.2251 85.7932C43.7715 86.145 44.2 86.652 44.5106 87.3144C44.8249 87.9768 44.9821 88.7739 44.9821 89.7057C44.9821 90.6376 44.8268 91.4365 44.5162 92.1027C44.2056 92.765 43.779 93.2759 43.2363 93.6351C42.6937 93.9906 42.0743 94.1684 41.3783 94.1684C40.8544 94.1684 40.4259 94.0805 40.0928 93.9046C39.7635 93.7287 39.5053 93.5229 39.3182 93.2871C39.131 93.0513 38.987 92.8418 38.8859 92.6584H38.7849V97.2333H37.1065ZM38.7512 89.6889C38.7512 90.2951 38.8391 90.8265 39.015 91.2831C39.1909 91.7397 39.4454 92.097 39.7785 92.3553C40.1115 92.6097 40.5194 92.737 41.0022 92.737C41.5036 92.737 41.9228 92.6041 42.2596 92.3384C42.5964 92.069 42.8509 91.7041 43.023 91.2438C43.1989 90.7835 43.2868 90.2652 43.2868 89.6889C43.2868 89.1201 43.2008 88.6092 43.0286 88.1564C42.8602 87.7036 42.6057 87.3462 42.2652 87.0843C41.9284 86.8223 41.5074 86.6913 41.0022 86.6913C40.5157 86.6913 40.104 86.8167 39.7672 87.0674C39.4342 87.3182 39.1816 87.6681 39.0094 88.1171C38.8373 88.5662 38.7512 89.0901 38.7512 89.6889ZM46.8626 94V85.3778H48.541V94H46.8626ZM47.7102 84.0474C47.4183 84.0474 47.1676 83.9501 46.958 83.7555C46.7522 83.5572 46.6493 83.3214 46.6493 83.0482C46.6493 82.7713 46.7522 82.5355 46.958 82.3409C47.1676 82.1426 47.4183 82.0434 47.7102 82.0434C48.0021 82.0434 48.251 82.1426 48.4568 82.3409C48.6664 82.5355 48.7712 82.7713 48.7712 83.0482C48.7712 83.3214 48.6664 83.5572 48.4568 83.7555C48.251 83.9501 48.0021 84.0474 47.7102 84.0474ZM52.4774 88.8806V94H50.799V85.3778H52.4101V86.7811H52.5167C52.7151 86.3246 53.0257 85.9578 53.4485 85.6809C53.8752 85.404 54.4122 85.2655 55.0596 85.2655C55.6471 85.2655 56.1617 85.389 56.6033 85.636C57.0449 85.8792 57.3873 86.2422 57.6305 86.725C57.8738 87.2078 57.9954 87.8047 57.9954 88.5157V94H56.317V88.7178C56.317 88.0928 56.1542 87.6044 55.8286 87.2527C55.5031 86.8971 55.0559 86.7194 54.487 86.7194C54.0978 86.7194 53.7517 86.8036 53.4485 86.972C53.1492 87.1404 52.9115 87.3874 52.7356 87.713C52.5635 88.0348 52.4774 88.424 52.4774 88.8806ZM63.8614 97.413C63.1766 97.413 62.5872 97.3231 62.0932 97.1435C61.603 96.9639 61.2026 96.7263 60.8919 96.4306C60.5813 96.135 60.3493 95.8113 60.1959 95.4595L61.6385 94.8645C61.7396 95.0291 61.8743 95.2031 62.0427 95.3865C62.2148 95.5736 62.4469 95.7327 62.7388 95.8637C63.0344 95.9946 63.4142 96.0601 63.8783 96.0601C64.5145 96.0601 65.0403 95.9048 65.4557 95.5942C65.871 95.2873 66.0787 94.7971 66.0787 94.1235V92.4282H65.9721C65.871 92.6116 65.7251 92.8156 65.5342 93.0401C65.3471 93.2646 65.0889 93.4592 64.7596 93.6239C64.4303 93.7886 64.0018 93.8709 63.4741 93.8709C62.793 93.8709 62.1793 93.7118 61.6329 93.3938C61.0903 93.0719 60.6599 92.5985 60.3418 91.9736C60.0275 91.3449 59.8703 90.5721 59.8703 89.6552C59.8703 88.7384 60.0256 87.9525 60.3362 87.2976C60.6506 86.6427 61.0809 86.1412 61.6273 85.7932C62.1737 85.4414 62.793 85.2655 63.4853 85.2655C64.0205 85.2655 64.4527 85.3553 64.782 85.535C65.1114 85.7108 65.3677 85.9167 65.5511 86.1524C65.7382 86.3882 65.8823 86.5959 65.9833 86.7755H66.1068V85.3778H67.7515V94.1909C67.7515 94.9318 67.5794 95.5399 67.2351 96.0152C66.8908 96.4905 66.4249 96.8423 65.8374 97.0705C65.2536 97.2988 64.5949 97.413 63.8614 97.413ZM63.8446 92.4788C64.3274 92.4788 64.7353 92.3665 65.0683 92.142C65.4051 91.9137 65.6596 91.5881 65.8318 91.1652C66.0076 90.7386 66.0956 90.2278 66.0956 89.6328C66.0956 89.0527 66.0095 88.5419 65.8374 88.1003C65.6652 87.6587 65.4126 87.3144 65.0796 87.0674C64.7465 86.8167 64.3348 86.6913 63.8446 86.6913C63.3394 86.6913 62.9184 86.8223 62.5816 87.0843C62.2448 87.3425 61.9903 87.6943 61.8182 88.1396C61.6498 88.5849 61.5656 89.0826 61.5656 89.6328C61.5656 90.1978 61.6516 90.6937 61.8238 91.1203C61.9959 91.5469 62.2504 91.88 62.5872 92.1195C62.9277 92.359 63.3469 92.4788 63.8446 92.4788ZM73.7537 83.9969V82.5037H82.651V83.9969H79.064V94H77.3351V83.9969H73.7537ZM86.8638 94.174C86.0555 94.174 85.3501 93.9888 84.7476 93.6183C84.1451 93.2478 83.6773 92.7295 83.3442 92.0634C83.0112 91.3972 82.8446 90.6188 82.8446 89.7282C82.8446 88.8338 83.0112 88.0516 83.3442 87.3818C83.6773 86.7119 84.1451 86.1917 84.7476 85.8212C85.3501 85.4508 86.0555 85.2655 86.8638 85.2655C87.6722 85.2655 88.3776 85.4508 88.9801 85.8212C89.5826 86.1917 90.0504 86.7119 90.3835 87.3818C90.7165 88.0516 90.8831 88.8338 90.8831 89.7282C90.8831 90.6188 90.7165 91.3972 90.3835 92.0634C90.0504 92.7295 89.5826 93.2478 88.9801 93.6183C88.3776 93.9888 87.6722 94.174 86.8638 94.174ZM86.8695 92.765C87.3934 92.765 87.8275 92.6266 88.1718 92.3497C88.5161 92.0727 88.7705 91.7041 88.9352 91.2438C89.1036 90.7835 89.1878 90.2764 89.1878 89.7226C89.1878 89.1725 89.1036 88.6672 88.9352 88.2069C88.7705 87.7429 88.5161 87.3705 88.1718 87.0899C87.8275 86.8092 87.3934 86.6689 86.8695 86.6689C86.3418 86.6689 85.9039 86.8092 85.5559 87.0899C85.2116 87.3705 84.9553 87.7429 84.7869 88.2069C84.6222 88.6672 84.5399 89.1725 84.5399 89.7226C84.5399 90.2764 84.6222 90.7835 84.7869 91.2438C84.9553 91.7041 85.2116 92.0727 85.5559 92.3497C85.9039 92.6266 86.3418 92.765 86.8695 92.765ZM92.7565 94V85.3778H94.3676V86.7811H94.4742C94.6539 86.3059 94.9476 85.9354 95.3555 85.6697C95.7635 85.4002 96.2518 85.2655 96.8207 85.2655C97.397 85.2655 97.8797 85.4002 98.2689 85.6697C98.6619 85.9391 98.9519 86.3096 99.139 86.7811H99.2288C99.4346 86.3208 99.7621 85.9541 100.211 85.6809C100.66 85.404 101.195 85.2655 101.817 85.2655C102.599 85.2655 103.237 85.5106 103.731 86.0009C104.228 86.4911 104.477 87.2302 104.477 88.2182V94H102.799V88.3754C102.799 87.7916 102.64 87.3687 102.322 87.1067C102.004 86.8448 101.624 86.7138 101.182 86.7138C100.636 86.7138 100.211 86.8822 99.908 87.219C99.6049 87.552 99.4533 87.9805 99.4533 88.5045V94H97.7805V88.2687C97.7805 87.8009 97.6346 87.4248 97.3427 87.1404C97.0508 86.856 96.671 86.7138 96.2032 86.7138C95.8851 86.7138 95.5913 86.798 95.3219 86.9664C95.0562 87.131 94.841 87.3612 94.6763 87.6568C94.5154 87.9525 94.4349 88.2949 94.4349 88.6841V94H92.7565ZM110.359 94.174C109.55 94.174 108.845 93.9888 108.243 93.6183C107.64 93.2478 107.172 92.7295 106.839 92.0634C106.506 91.3972 106.34 90.6188 106.34 89.7282C106.34 88.8338 106.506 88.0516 106.839 87.3818C107.172 86.7119 107.64 86.1917 108.243 85.8212C108.845 85.4508 109.55 85.2655 110.359 85.2655C111.167 85.2655 111.873 85.4508 112.475 85.8212C113.078 86.1917 113.545 86.7119 113.878 87.3818C114.212 88.0516 114.378 88.8338 114.378 89.7282C114.378 90.6188 114.212 91.3972 113.878 92.0634C113.545 92.7295 113.078 93.2478 112.475 93.6183C111.873 93.9888 111.167 94.174 110.359 94.174ZM110.364 92.765C110.888 92.765 111.322 92.6266 111.667 92.3497C112.011 92.0727 112.266 91.7041 112.43 91.2438C112.599 90.7835 112.683 90.2764 112.683 89.7226C112.683 89.1725 112.599 88.6672 112.43 88.2069C112.266 87.7429 112.011 87.3705 111.667 87.0899C111.322 86.8092 110.888 86.6689 110.364 86.6689C109.837 86.6689 109.399 86.8092 109.051 87.0899C108.707 87.3705 108.45 87.7429 108.282 88.2069C108.117 88.6672 108.035 89.1725 108.035 89.7226C108.035 90.2764 108.117 90.7835 108.282 91.2438C108.45 91.7041 108.707 92.0727 109.051 92.3497C109.399 92.6266 109.837 92.765 110.364 92.765ZM116.252 94V85.3778H117.874V86.7475H117.964C118.121 86.2834 118.398 85.9185 118.794 85.6528C119.195 85.3834 119.648 85.2487 120.153 85.2487C120.258 85.2487 120.381 85.2524 120.523 85.2599C120.669 85.2674 120.783 85.2767 120.866 85.288V86.8934C120.798 86.8747 120.679 86.8541 120.506 86.8317C120.334 86.8055 120.162 86.7924 119.99 86.7924C119.593 86.7924 119.24 86.8766 118.929 87.045C118.622 87.2096 118.379 87.4398 118.199 87.7354C118.02 88.0273 117.93 88.3604 117.93 88.7346V94H116.252ZM122.318 94V85.3778H123.941V86.7475H124.03C124.187 86.2834 124.464 85.9185 124.861 85.6528C125.262 85.3834 125.714 85.2487 126.22 85.2487C126.324 85.2487 126.448 85.2524 126.59 85.2599C126.736 85.2674 126.85 85.2767 126.932 85.288V86.8934C126.865 86.8747 126.745 86.8541 126.573 86.8317C126.401 86.8055 126.229 86.7924 126.057 86.7924C125.66 86.7924 125.306 86.8766 124.996 87.045C124.689 87.2096 124.446 87.4398 124.266 87.7354C124.086 88.0273 123.997 88.3604 123.997 88.7346V94H122.318ZM131.708 94.174C130.9 94.174 130.194 93.9888 129.592 93.6183C128.989 93.2478 128.522 92.7295 128.188 92.0634C127.855 91.3972 127.689 90.6188 127.689 89.7282C127.689 88.8338 127.855 88.0516 128.188 87.3818C128.522 86.7119 128.989 86.1917 129.592 85.8212C130.194 85.4508 130.9 85.2655 131.708 85.2655C132.516 85.2655 133.222 85.4508 133.824 85.8212C134.427 86.1917 134.895 86.7119 135.228 87.3818C135.561 88.0516 135.727 88.8338 135.727 89.7282C135.727 90.6188 135.561 91.3972 135.228 92.0634C134.895 92.7295 134.427 93.2478 133.824 93.6183C133.222 93.9888 132.516 94.174 131.708 94.174ZM131.714 92.765C132.238 92.765 132.672 92.6266 133.016 92.3497C133.36 92.0727 133.615 91.7041 133.779 91.2438C133.948 90.7835 134.032 90.2764 134.032 89.7226C134.032 89.1725 133.948 88.6672 133.779 88.2069C133.615 87.7429 133.36 87.3705 133.016 87.0899C132.672 86.8092 132.238 86.6689 131.714 86.6689C131.186 86.6689 130.748 86.8092 130.4 87.0899C130.056 87.3705 129.8 87.7429 129.631 88.2069C129.466 88.6672 129.384 89.1725 129.384 89.7226C129.384 90.2764 129.466 90.7835 129.631 91.2438C129.8 91.7041 130.056 92.0727 130.4 92.3497C130.748 92.6266 131.186 92.765 131.714 92.765ZM139.208 94L136.67 85.3778H138.405L140.095 91.7097H140.179L141.874 85.3778H143.609L145.293 91.6817H145.377L147.055 85.3778H148.79L146.258 94H144.546L142.795 87.7747H142.665L140.914 94H139.208ZM152.499 82.5037L152.353 90.6937H150.798L150.652 82.5037H152.499ZM151.578 94.1067C151.268 94.1067 151.002 93.9981 150.781 93.7811C150.56 93.5603 150.452 93.2946 150.455 92.984C150.452 92.6771 150.56 92.4151 150.781 92.1981C151.002 91.9773 151.268 91.8669 151.578 91.8669C151.881 91.8669 152.143 91.9773 152.364 92.1981C152.585 92.4151 152.697 92.6771 152.701 92.984C152.697 93.1898 152.643 93.3788 152.538 93.5509C152.437 93.7193 152.302 93.8541 152.134 93.9551C151.966 94.0561 151.78 94.1067 151.578 94.1067Z" fill="#EDBCD5"/>
</svg>
