<svg width="131" height="62" viewBox="0 0 131 62" fill="none" xmlns="http://www.w3.org/2000/svg">
<path d="M2.11543 11.4137V7.99636H20.07V11.4137H13.1145V30.5H9.0709V11.4137H2.11543ZM23.3554 30.5V13.6223H27.3331V30.5H23.3554ZM25.3553 11.2269C24.7253 11.2269 24.1832 11.0181 23.729 10.6005C23.2749 10.1757 23.0478 9.66655 23.0478 9.0732C23.0478 8.47251 23.2749 7.9634 23.729 7.54585C24.1832 7.12098 24.7253 6.90854 25.3553 6.90854C25.9926 6.90854 26.5347 7.12098 26.9815 7.54585C27.4357 7.9634 27.6628 8.47251 27.6628 9.0732C27.6628 9.66655 27.4357 10.1757 26.9815 10.6005C26.5347 11.0181 25.9926 11.2269 25.3553 11.2269ZM36.2802 30.8406C35.2107 30.8406 34.2474 30.6502 33.3903 30.2692C32.5406 29.881 31.8666 29.3096 31.3685 28.5551C30.8777 27.8006 30.6323 26.8703 30.6323 25.7641C30.6323 24.8118 30.8081 24.0243 31.1597 23.4017C31.5114 22.779 31.9912 22.2809 32.5992 21.9073C33.2072 21.5337 33.8921 21.2517 34.654 21.0612C35.4231 20.8634 36.2179 20.7206 37.0384 20.6327C38.0273 20.5301 38.8294 20.4386 39.4448 20.358C40.0601 20.2701 40.507 20.1382 40.7853 19.9624C41.071 19.7793 41.2139 19.4972 41.2139 19.1163V19.0504C41.2139 18.2226 40.9685 17.5817 40.4777 17.1275C39.9868 16.6733 39.2799 16.4462 38.3569 16.4462C37.3827 16.4462 36.6098 16.6587 36.0385 17.0835C35.4744 17.5084 35.0935 18.0102 34.8957 18.5889L31.1817 18.0615C31.4747 17.0359 31.9582 16.1788 32.6321 15.4902C33.3061 14.7943 34.1302 14.2742 35.1045 13.9299C36.0787 13.5783 37.1556 13.4025 38.335 13.4025C39.1481 13.4025 39.9575 13.4977 40.7633 13.6882C41.5691 13.8787 42.3053 14.1937 42.972 14.6332C43.6386 15.0654 44.1733 15.6551 44.5762 16.4023C44.9864 17.1495 45.1915 18.0834 45.1915 19.2042V30.5H41.3677V28.1815H41.2358C40.9941 28.6503 40.6535 29.0899 40.2139 29.5001C39.7817 29.903 39.236 30.229 38.5767 30.478C37.9247 30.7198 37.1592 30.8406 36.2802 30.8406ZM37.3131 27.9178C38.1115 27.9178 38.8038 27.7603 39.3898 27.4453C39.9759 27.123 40.4264 26.6981 40.7414 26.1707C41.0637 25.6433 41.2248 25.0682 41.2248 24.4456V22.4567C41.1003 22.5593 40.8879 22.6545 40.5875 22.7424C40.2945 22.8303 39.9649 22.9072 39.5986 22.9731C39.2323 23.0391 38.8697 23.0977 38.5108 23.149C38.1518 23.2002 37.8405 23.2442 37.5768 23.2808C36.9834 23.3614 36.4523 23.4933 35.9835 23.6764C35.5147 23.8595 35.1448 24.1159 34.8737 24.4456C34.6027 24.7679 34.4672 25.1854 34.4672 25.6982C34.4672 26.4307 34.7345 26.9838 35.2693 27.3574C35.804 27.731 36.4853 27.9178 37.3131 27.9178ZM49.367 7.99636H54.3556L61.0364 24.3027H61.3001L67.9809 7.99636H72.9695V30.5H69.0577V15.0397H68.8489L62.6297 30.4341H59.7068L53.4876 15.0068H53.2788V30.5H49.367V7.99636ZM84.7048 30.8296C83.0126 30.8296 81.5512 30.478 80.3205 29.7748C79.0972 29.0642 78.1559 28.0606 77.4966 26.764C76.8373 25.4601 76.5076 23.9255 76.5076 22.16C76.5076 20.4239 76.8373 18.9002 77.4966 17.589C78.1632 16.2704 79.0935 15.2448 80.2876 14.5123C81.4816 13.7724 82.8844 13.4025 84.496 13.4025C85.5362 13.4025 86.5178 13.571 87.4408 13.908C88.3711 14.2376 89.1916 14.7504 89.9021 15.4463C90.62 16.1422 91.1841 17.0286 91.5943 18.1054C92.0045 19.1749 92.2096 20.4495 92.2096 21.9293V23.149H78.3756V20.4679H88.3968C88.3894 19.706 88.2246 19.0284 87.9023 18.4351C87.58 17.8344 87.1295 17.3619 86.5508 17.0176C85.9794 16.6733 85.3128 16.5012 84.5509 16.5012C83.7378 16.5012 83.0236 16.6989 82.4083 17.0945C81.7929 17.4828 81.3131 17.9955 80.9688 18.6328C80.6318 19.2628 80.4597 19.9551 80.4524 20.7096V23.0501C80.4524 24.0317 80.6318 24.8741 80.9908 25.5773C81.3497 26.2732 81.8515 26.808 82.4962 27.1816C83.1408 27.5479 83.8953 27.731 84.7597 27.731C85.3384 27.731 85.8622 27.6504 86.331 27.4893C86.7998 27.3208 87.2064 27.0754 87.5507 26.7531C87.895 26.4307 88.155 26.0315 88.3308 25.5554L92.0448 25.9729C91.8104 26.9545 91.3636 27.8116 90.7043 28.5441C90.0523 29.2693 89.2172 29.8334 88.199 30.2363C87.1808 30.6319 86.016 30.8296 84.7048 30.8296ZM101.838 30.7967C100.512 30.7967 99.3254 30.456 98.2778 29.7748C97.2303 29.0935 96.4025 28.1046 95.7945 26.808C95.1865 25.5114 94.8825 23.9364 94.8825 22.0831C94.8825 20.2078 95.1902 18.6255 95.8055 17.3363C96.4282 16.0397 97.2669 15.0617 98.3218 14.4024C99.3766 13.7358 100.552 13.4025 101.849 13.4025C102.838 13.4025 103.651 13.571 104.288 13.908C104.926 14.2376 105.431 14.6368 105.805 15.1057C106.178 15.5672 106.468 16.003 106.673 16.4133H106.838V7.99636H110.826V30.5H106.914V27.8409H106.673C106.468 28.2511 106.171 28.687 105.783 29.1485C105.394 29.6026 104.882 29.9909 104.244 30.3132C103.607 30.6355 102.805 30.7967 101.838 30.7967ZM102.948 27.5332C103.79 27.5332 104.508 27.3061 105.101 26.8519C105.695 26.3904 106.145 25.7495 106.453 24.929C106.761 24.1086 106.914 23.1526 106.914 22.0611C106.914 20.9697 106.761 20.021 106.453 19.2152C106.153 18.4094 105.706 17.7831 105.112 17.3363C104.526 16.8894 103.805 16.666 102.948 16.666C102.061 16.666 101.322 16.8967 100.728 17.3582C100.135 17.8197 99.688 18.457 99.3876 19.2702C99.0873 20.0833 98.9371 21.0136 98.9371 22.0611C98.9371 23.116 99.0873 24.0573 99.3876 24.8851C99.6953 25.7055 100.146 26.3538 100.739 26.83C101.34 27.2988 102.076 27.5332 102.948 27.5332ZM128.404 18.0834L124.778 18.479C124.676 18.1127 124.496 17.7685 124.24 17.4461C123.991 17.1238 123.654 16.8638 123.229 16.666C122.804 16.4682 122.284 16.3693 121.669 16.3693C120.841 16.3693 120.145 16.5488 119.581 16.9077C119.024 17.2667 118.75 17.7318 118.757 18.3032C118.75 18.794 118.929 19.1932 119.295 19.5009C119.669 19.8086 120.284 20.0613 121.141 20.2591L124.02 20.8744C125.617 21.2187 126.804 21.7645 127.58 22.5116C128.364 23.2588 128.76 24.2368 128.767 25.4455C128.76 26.5077 128.448 27.4453 127.833 28.2584C127.225 29.0642 126.379 29.6942 125.295 30.1484C124.211 30.6026 122.965 30.8296 121.559 30.8296C119.493 30.8296 117.83 30.3974 116.57 29.533C115.31 28.6613 114.559 27.449 114.318 25.896L118.197 25.5224C118.372 26.2842 118.746 26.8593 119.317 27.2475C119.889 27.6358 120.632 27.8299 121.548 27.8299C122.493 27.8299 123.251 27.6358 123.822 27.2475C124.401 26.8593 124.69 26.3795 124.69 25.8081C124.69 25.3246 124.504 24.9254 124.13 24.6104C123.764 24.2954 123.192 24.0536 122.416 23.8852L119.537 23.2808C117.918 22.9438 116.72 22.3761 115.944 21.5777C115.167 20.7719 114.783 19.7536 114.79 18.523C114.783 17.4828 115.065 16.5817 115.636 15.8199C116.215 15.0507 117.017 14.4574 118.043 14.0398C119.076 13.6149 120.266 13.4025 121.614 13.4025C123.592 13.4025 125.148 13.8237 126.284 14.6661C127.427 15.5086 128.133 16.6477 128.404 18.0834Z" fill="#4B0082"/>
<path d="M7.21622 40.3936V47.5H6.14402V40.3936H7.21622ZM9.73192 44.3354V47.5H8.69441V42.1702H9.69028V43.0377H9.75621C9.87881 42.7555 10.0708 42.5288 10.3322 42.3576C10.5959 42.1864 10.9279 42.1008 11.3281 42.1008C11.6913 42.1008 12.0093 42.1771 12.2823 42.3298C12.5553 42.4802 12.767 42.7046 12.9173 43.003C13.0677 43.3014 13.1429 43.6704 13.1429 44.1099V47.5H12.1054V44.2348C12.1054 43.8485 12.0047 43.5466 11.8035 43.3291C11.6022 43.1094 11.3258 42.9995 10.9742 42.9995C10.7336 42.9995 10.5196 43.0516 10.3322 43.1557C10.1472 43.2597 10.0003 43.4124 9.89154 43.6137C9.78513 43.8126 9.73192 44.0532 9.73192 44.3354ZM15.5718 44.3354V47.5H14.5343V42.1702H15.5302V43.0377H15.5961C15.7187 42.7555 15.9107 42.5288 16.1721 42.3576C16.4358 42.1864 16.7678 42.1008 17.168 42.1008C17.5312 42.1008 17.8492 42.1771 18.1222 42.3298C18.3952 42.4802 18.6068 42.7046 18.7572 43.003C18.9076 43.3014 18.9827 43.6704 18.9827 44.1099V47.5H17.9452V44.2348C17.9452 43.8485 17.8446 43.5466 17.6434 43.3291C17.4421 43.1094 17.1657 42.9995 16.814 42.9995C16.5735 42.9995 16.3595 43.0516 16.1721 43.1557C15.987 43.2597 15.8402 43.4124 15.7314 43.6137C15.625 43.8126 15.5718 44.0532 15.5718 44.3354ZM22.6192 47.6076C22.1196 47.6076 21.6835 47.4931 21.3111 47.264C20.9386 47.035 20.6495 46.7146 20.4436 46.3029C20.2377 45.8911 20.1348 45.4099 20.1348 44.8594C20.1348 44.3065 20.2377 43.823 20.4436 43.409C20.6495 42.9949 20.9386 42.6733 21.3111 42.4443C21.6835 42.2153 22.1196 42.1008 22.6192 42.1008C23.1189 42.1008 23.555 42.2153 23.9274 42.4443C24.2998 42.6733 24.589 42.9949 24.7949 43.409C25.0008 43.823 25.1037 44.3065 25.1037 44.8594C25.1037 45.4099 25.0008 45.8911 24.7949 46.3029C24.589 46.7146 24.2998 47.035 23.9274 47.264C23.555 47.4931 23.1189 47.6076 22.6192 47.6076ZM22.6227 46.7366C22.9466 46.7366 23.2149 46.651 23.4277 46.4798C23.6405 46.3087 23.7979 46.0808 23.8996 45.7963C24.0037 45.5117 24.0558 45.1983 24.0558 44.8559C24.0558 44.5159 24.0037 44.2036 23.8996 43.919C23.7979 43.6322 23.6405 43.402 23.4277 43.2285C23.2149 43.055 22.9466 42.9683 22.6227 42.9683C22.2965 42.9683 22.0259 43.055 21.8107 43.2285C21.5979 43.402 21.4395 43.6322 21.3354 43.919C21.2336 44.2036 21.1827 44.5159 21.1827 44.8559C21.1827 45.1983 21.2336 45.5117 21.3354 45.7963C21.4395 46.0808 21.5979 46.3087 21.8107 46.4798C22.0259 46.651 22.2965 46.7366 22.6227 46.7366ZM30.64 42.1702L28.7072 47.5H27.5968L25.6606 42.1702H26.7745L28.1243 46.2716H28.1798L29.5261 42.1702H30.64ZM33.0134 47.618C32.6757 47.618 32.3703 47.5555 32.0973 47.4306C31.8244 47.3034 31.6081 47.1195 31.4485 46.8789C31.2912 46.6383 31.2125 46.3434 31.2125 45.9941C31.2125 45.6933 31.2703 45.4458 31.386 45.2515C31.5017 45.0572 31.6578 44.9033 31.8544 44.79C32.0511 44.6766 32.2708 44.591 32.5137 44.5332C32.7566 44.4754 33.0041 44.4314 33.2563 44.4014C33.5755 44.3643 33.8346 44.3343 34.0336 44.3111C34.2325 44.2857 34.3771 44.2452 34.4673 44.1897C34.5575 44.1342 34.6026 44.044 34.6026 43.919V43.8947C34.6026 43.5917 34.517 43.3569 34.3459 43.1903C34.177 43.0238 33.9248 42.9405 33.5894 42.9405C33.2401 42.9405 32.9648 43.018 32.7636 43.173C32.5646 43.3257 32.427 43.4957 32.3506 43.6831L31.3756 43.461C31.4913 43.1371 31.6601 42.8757 31.8822 42.6768C32.1066 42.4755 32.3645 42.3298 32.656 42.2396C32.9475 42.1471 33.254 42.1008 33.5755 42.1008C33.7884 42.1008 34.0139 42.1262 34.2522 42.1771C34.4927 42.2257 34.7171 42.3159 34.9253 42.4478C35.1358 42.5796 35.3082 42.7682 35.4423 43.0134C35.5765 43.2563 35.6436 43.572 35.6436 43.9607V47.5H34.6304V46.7713H34.5887C34.5217 46.9055 34.421 47.0373 34.2869 47.1669C34.1527 47.2964 33.9804 47.404 33.7698 47.4896C33.5593 47.5752 33.3072 47.618 33.0134 47.618ZM33.2389 46.7852C33.5258 46.7852 33.771 46.7285 33.9746 46.6152C34.1805 46.5018 34.3366 46.3538 34.443 46.171C34.5517 45.986 34.6061 45.7882 34.6061 45.5777V44.8906C34.5691 44.9276 34.4974 44.9623 34.391 44.9947C34.2869 45.0248 34.1677 45.0514 34.0336 45.0745C33.8994 45.0953 33.7687 45.115 33.6415 45.1335C33.5142 45.1497 33.4078 45.1636 33.3222 45.1751C33.121 45.2006 32.9371 45.2434 32.7705 45.3035C32.6063 45.3637 32.4744 45.4504 32.3749 45.5638C32.2778 45.6748 32.2292 45.8229 32.2292 46.0079C32.2292 46.2647 32.324 46.459 32.5137 46.5909C32.7034 46.7204 32.9452 46.7852 33.2389 46.7852ZM39.5134 42.1702V43.003H36.6022V42.1702H39.5134ZM37.3829 40.8933H38.4204V45.9351C38.4204 46.1363 38.4505 46.2878 38.5106 46.3896C38.5708 46.4891 38.6483 46.5573 38.7431 46.5943C38.8403 46.629 38.9455 46.6464 39.0589 46.6464C39.1422 46.6464 39.215 46.6406 39.2775 46.629C39.3399 46.6175 39.3885 46.6082 39.4232 46.6013L39.6106 47.4584C39.5505 47.4815 39.4649 47.5046 39.3538 47.5278C39.2428 47.5532 39.104 47.5671 38.9374 47.5694C38.6645 47.574 38.41 47.5254 38.1741 47.4237C37.9381 47.3219 37.7472 47.1646 37.6015 46.9518C37.4558 46.7389 37.3829 46.4717 37.3829 46.1502V40.8933ZM40.6611 47.5V42.1702H41.6986V47.5H40.6611ZM41.1851 41.3478C41.0046 41.3478 40.8497 41.2877 40.7201 41.1674C40.5929 41.0448 40.5293 40.899 40.5293 40.7302C40.5293 40.559 40.5929 40.4133 40.7201 40.293C40.8497 40.1704 41.0046 40.1091 41.1851 40.1091C41.3655 40.1091 41.5193 40.1704 41.6466 40.293C41.7761 40.4133 41.8409 40.559 41.8409 40.7302C41.8409 40.899 41.7761 41.0448 41.6466 41.1674C41.5193 41.2877 41.3655 41.3478 41.1851 41.3478ZM44.1319 44.3354V47.5H43.0944V42.1702H44.0903V43.0377H44.1562C44.2788 42.7555 44.4708 42.5288 44.7322 42.3576C44.9959 42.1864 45.3279 42.1008 45.7281 42.1008C46.0913 42.1008 46.4093 42.1771 46.6823 42.3298C46.9553 42.4802 47.1669 42.7046 47.3173 43.003C47.4677 43.3014 47.5429 43.6704 47.5429 44.1099V47.5H46.5053V44.2348C46.5053 43.8485 46.4047 43.5466 46.2035 43.3291C46.0022 43.1094 45.7258 42.9995 45.3742 42.9995C45.1336 42.9995 44.9196 43.0516 44.7322 43.1557C44.5472 43.2597 44.4003 43.4124 44.2915 43.6137C44.1851 43.8126 44.1319 44.0532 44.1319 44.3354ZM51.1689 49.6097C50.7456 49.6097 50.3813 49.5542 50.0759 49.4432C49.7729 49.3321 49.5253 49.1852 49.3333 49.0025C49.1413 48.8197 48.9979 48.6196 48.9031 48.4022L49.7948 48.0344C49.8573 48.1362 49.9406 48.2437 50.0447 48.3571C50.1511 48.4727 50.2945 48.5711 50.4749 48.652C50.6577 48.733 50.8925 48.7735 51.1793 48.7735C51.5726 48.7735 51.8976 48.6775 52.1544 48.4855C52.4112 48.2958 52.5396 47.9927 52.5396 47.5763V46.5284H52.4736C52.4112 46.6418 52.3209 46.7678 52.203 46.9066C52.0873 47.0454 51.9277 47.1657 51.7241 47.2675C51.5206 47.3693 51.2557 47.4202 50.9295 47.4202C50.5085 47.4202 50.1291 47.3219 49.7914 47.1252C49.4559 46.9263 49.1899 46.6337 48.9933 46.2474C48.799 45.8587 48.7018 45.381 48.7018 44.8143C48.7018 44.2475 48.7978 43.7617 48.9898 43.3569C49.1841 42.9521 49.4502 42.6421 49.7879 42.427C50.1256 42.2095 50.5085 42.1008 50.9364 42.1008C51.2672 42.1008 51.5344 42.1563 51.738 42.2673C51.9416 42.3761 52.1 42.5033 52.2134 42.649C52.329 42.7948 52.4181 42.9232 52.4806 43.0342H52.5569V42.1702H53.5736V47.618C53.5736 48.076 53.4672 48.4519 53.2544 48.7457C53.0415 49.0395 52.7535 49.2569 52.3903 49.3981C52.0295 49.5392 51.6223 49.6097 51.1689 49.6097ZM51.1585 46.5596C51.4569 46.5596 51.7091 46.4903 51.915 46.3515C52.1232 46.2103 52.2805 46.0091 52.3869 45.7477C52.4956 45.484 52.55 45.1682 52.55 44.8004C52.55 44.4418 52.4968 44.1261 52.3903 43.8531C52.2839 43.5801 52.1278 43.3673 51.9219 43.2146C51.716 43.0596 51.4616 42.9822 51.1585 42.9822C50.8462 42.9822 50.586 43.0631 50.3778 43.225C50.1696 43.3847 50.0123 43.6021 49.9059 43.8774C49.8018 44.1527 49.7497 44.4603 49.7497 44.8004C49.7497 45.1497 49.8029 45.4562 49.9093 45.7199C50.0158 45.9836 50.1731 46.1895 50.3813 46.3376C50.5918 46.4856 50.8509 46.5596 51.1585 46.5596ZM57.2838 41.3166V40.3936H62.7836V41.3166H60.5664V47.5H59.4976V41.3166H57.2838ZM65.3878 47.6076C64.8882 47.6076 64.4521 47.4931 64.0797 47.264C63.7072 47.035 63.4181 46.7146 63.2122 46.3029C63.0063 45.8911 62.9034 45.4099 62.9034 44.8594C62.9034 44.3065 63.0063 43.823 63.2122 43.409C63.4181 42.9949 63.7072 42.6733 64.0797 42.4443C64.4521 42.2153 64.8882 42.1008 65.3878 42.1008C65.8875 42.1008 66.3236 42.2153 66.696 42.4443C67.0684 42.6733 67.3576 42.9949 67.5635 43.409C67.7694 43.823 67.8723 44.3065 67.8723 44.8594C67.8723 45.4099 67.7694 45.8911 67.5635 46.3029C67.3576 46.7146 67.0684 47.035 66.696 47.264C66.3236 47.4931 65.8875 47.6076 65.3878 47.6076ZM65.3913 46.7366C65.7152 46.7366 65.9835 46.651 66.1963 46.4798C66.4091 46.3087 66.5664 46.0808 66.6682 45.7963C66.7723 45.5117 66.8244 45.1983 66.8244 44.8559C66.8244 44.5159 66.7723 44.2036 66.6682 43.919C66.5664 43.6322 66.4091 43.402 66.1963 43.2285C65.9835 43.055 65.7152 42.9683 65.3913 42.9683C65.0651 42.9683 64.7945 43.055 64.5793 43.2285C64.3665 43.402 64.2081 43.6322 64.104 43.919C64.0022 44.2036 63.9513 44.5159 63.9513 44.8559C63.9513 45.1983 64.0022 45.5117 64.104 45.7963C64.2081 46.0808 64.3665 46.3087 64.5793 46.4798C64.7945 46.651 65.0651 46.7366 65.3913 46.7366ZM71.0256 47.6041C70.5953 47.6041 70.2113 47.4942 69.8736 47.2745C69.5381 47.0524 69.2744 46.7366 69.0824 46.3272C68.8927 45.9154 68.7979 45.4215 68.7979 44.8455C68.7979 44.2695 68.8939 43.7768 69.0859 43.3673C69.2802 42.9579 69.5462 42.6444 69.884 42.427C70.2217 42.2095 70.6046 42.1008 71.0325 42.1008C71.3633 42.1008 71.6294 42.1563 71.8306 42.2673C72.0342 42.3761 72.1915 42.5033 72.3025 42.649C72.4159 42.7948 72.5038 42.9232 72.5662 43.0342H72.6287V40.3936H73.6662V47.5H72.653V46.6707H72.5662C72.5038 46.784 72.4136 46.9136 72.2956 47.0593C72.1799 47.2051 72.0203 47.3323 71.8167 47.441C71.6132 47.5497 71.3495 47.6041 71.0256 47.6041ZM71.2546 46.7193C71.553 46.7193 71.8052 46.6406 72.0111 46.4833C72.2192 46.3237 72.3766 46.1028 72.483 45.8206C72.5917 45.5383 72.646 45.2098 72.646 44.8351C72.646 44.465 72.5928 44.1411 72.4864 43.8635C72.38 43.5859 72.2239 43.3696 72.018 43.2146C71.8121 43.0596 71.5576 42.9822 71.2546 42.9822C70.9423 42.9822 70.6821 43.0631 70.4739 43.225C70.2657 43.387 70.1084 43.6079 70.002 43.8878C69.8979 44.1677 69.8458 44.4835 69.8458 44.8351C69.8458 45.1913 69.899 45.5117 70.0054 45.7963C70.1118 46.0808 70.2691 46.3063 70.4773 46.4729C70.6879 46.6371 70.9469 46.7193 71.2546 46.7193ZM76.6981 47.618C76.3603 47.618 76.055 47.5555 75.782 47.4306C75.509 47.3034 75.2927 47.1195 75.1331 46.8789C74.9758 46.6383 74.8972 46.3434 74.8972 45.9941C74.8972 45.6933 74.955 45.4458 75.0707 45.2515C75.1863 45.0572 75.3425 44.9033 75.5391 44.79C75.7357 44.6766 75.9555 44.591 76.1984 44.5332C76.4413 44.4754 76.6888 44.4314 76.941 44.4014C77.2602 44.3643 77.5193 44.3343 77.7182 44.3111C77.9172 44.2857 78.0617 44.2452 78.152 44.1897C78.2422 44.1342 78.2873 44.044 78.2873 43.919V43.8947C78.2873 43.5917 78.2017 43.3569 78.0305 43.1903C77.8616 43.0238 77.6095 42.9405 77.2741 42.9405C76.9248 42.9405 76.6495 43.018 76.4482 43.173C76.2493 43.3257 76.1116 43.4957 76.0353 43.6831L75.0603 43.461C75.1759 43.1371 75.3448 42.8757 75.5669 42.6768C75.7913 42.4755 76.0492 42.3298 76.3407 42.2396C76.6321 42.1471 76.9386 42.1008 77.2602 42.1008C77.473 42.1008 77.6986 42.1262 77.9368 42.1771C78.1774 42.2257 78.4018 42.3159 78.61 42.4478C78.8205 42.5796 78.9928 42.7682 79.127 43.0134C79.2612 43.2563 79.3283 43.572 79.3283 43.9607V47.5H78.315V46.7713H78.2734C78.2063 46.9055 78.1057 47.0373 77.9715 47.1669C77.8374 47.2964 77.665 47.404 77.4545 47.4896C77.244 47.5752 76.9918 47.618 76.6981 47.618ZM76.9236 46.7852C77.2105 46.7852 77.4557 46.7285 77.6592 46.6152C77.8651 46.5018 78.0213 46.3538 78.1277 46.171C78.2364 45.986 78.2908 45.7882 78.2908 45.5777V44.8906C78.2537 44.9276 78.182 44.9623 78.0756 44.9947C77.9715 45.0248 77.8524 45.0514 77.7182 45.0745C77.584 45.0953 77.4533 45.115 77.3261 45.1335C77.1989 45.1497 77.0925 45.1636 77.0069 45.1751C76.8056 45.2006 76.6217 45.2434 76.4552 45.3035C76.2909 45.3637 76.1591 45.4504 76.0596 45.5638C75.9624 45.6748 75.9139 45.8229 75.9139 46.0079C75.9139 46.2647 76.0087 46.459 76.1984 46.5909C76.3881 46.7204 76.6298 46.7852 76.9236 46.7852ZM81.1751 49.4987C81.0201 49.4987 80.879 49.486 80.7518 49.4605C80.6246 49.4374 80.5297 49.4119 80.4673 49.3842L80.7171 48.534C80.9068 48.5849 81.0757 48.6069 81.2237 48.6C81.3718 48.593 81.5025 48.5375 81.6158 48.4334C81.7315 48.3293 81.8333 48.1593 81.9212 47.9233L82.0496 47.5694L80.0995 42.1702H81.2098L82.5596 46.3063H82.6152L83.965 42.1702H85.0788L82.8823 48.2113C82.7806 48.4889 82.651 48.7237 82.4937 48.9157C82.3364 49.11 82.149 49.2558 81.9316 49.3529C81.7141 49.4501 81.462 49.4987 81.1751 49.4987ZM87.0697 46.5284L87.0176 46.9066C86.9829 47.1842 86.9239 47.4734 86.8407 47.7741C86.7597 48.0772 86.6753 48.3582 86.5874 48.6173C86.5018 48.8764 86.4312 49.0823 86.3757 49.235H85.6401C85.6701 49.0915 85.7118 48.8972 85.765 48.652C85.8182 48.4091 85.8702 48.1373 85.9211 47.8366C85.972 47.5359 86.0102 47.2293 86.0356 46.9171L86.0703 46.5284H87.0697Z" fill="#8F255A"/>
<path d="M10.0199 54.2604C9.98291 53.9319 9.83023 53.6775 9.56189 53.497C9.29355 53.3143 8.95581 53.2229 8.54868 53.2229C8.2572 53.2229 8.00505 53.2692 7.79223 53.3617C7.57941 53.4519 7.41401 53.5768 7.29603 53.7365C7.18037 53.8938 7.12253 54.073 7.12253 54.2743C7.12253 54.4432 7.16186 54.5889 7.24051 54.7115C7.32148 54.8341 7.42673 54.937 7.55628 55.0203C7.68813 55.1013 7.82924 55.1695 7.97961 55.225C8.12997 55.2783 8.27455 55.3222 8.41335 55.3569L9.10733 55.5373C9.33404 55.5929 9.56652 55.668 9.80479 55.7629C10.0431 55.8577 10.264 55.9826 10.4675 56.1376C10.6711 56.2926 10.8354 56.4846 10.9603 56.7136C11.0875 56.9427 11.1511 57.2168 11.1511 57.536C11.1511 57.9385 11.047 58.2959 10.8388 58.6082C10.6329 58.9205 10.3334 59.1669 9.94012 59.3473C9.54917 59.5278 9.0761 59.618 8.52092 59.618C7.98886 59.618 7.52852 59.5335 7.13988 59.3647C6.75125 59.1958 6.44706 58.9564 6.22729 58.6464C6.00753 58.3341 5.88608 57.964 5.86295 57.536H6.93863C6.95945 57.7928 7.04273 58.0068 7.18846 58.178C7.33651 58.3468 7.52505 58.4729 7.75406 58.5562C7.98539 58.6371 8.23869 58.6776 8.51398 58.6776C8.81702 58.6776 9.08651 58.6302 9.32247 58.5354C9.56074 58.4382 9.74811 58.304 9.8846 58.1328C10.0211 57.9594 10.0893 57.7569 10.0893 57.5256C10.0893 57.3151 10.0292 57.1428 9.90889 57.0086C9.79091 56.8744 9.63014 56.7634 9.42657 56.6755C9.22531 56.5876 8.99745 56.5101 8.74299 56.443L7.90327 56.214C7.3342 56.059 6.88311 55.8311 6.55 55.5304C6.2192 55.2297 6.0538 54.8318 6.0538 54.3367C6.0538 53.9273 6.16483 53.5699 6.38691 53.2645C6.60899 52.9592 6.90971 52.7221 7.28909 52.5532C7.66847 52.382 8.09643 52.2964 8.57296 52.2964C9.05413 52.2964 9.47862 52.3809 9.84643 52.5497C10.2166 52.7186 10.508 52.9511 10.7209 53.2472C10.9337 53.541 11.0447 53.8787 11.054 54.2604H10.0199ZM13.3866 56.3354V59.5H12.3491V52.3936H13.3727V55.0377H13.4387C13.5636 54.7508 13.7544 54.523 14.0112 54.3541C14.268 54.1852 14.6034 54.1008 15.0175 54.1008C15.383 54.1008 15.7022 54.176 15.9752 54.3263C16.2505 54.4767 16.4633 54.7011 16.6137 54.9995C16.7663 55.2956 16.8427 55.6657 16.8427 56.1099V59.5H15.8052V56.2348C15.8052 55.8439 15.7045 55.5408 15.5033 55.3257C15.302 55.1082 15.0221 54.9995 14.6636 54.9995C14.4183 54.9995 14.1986 55.0516 14.0043 55.1557C13.8123 55.2597 13.6607 55.4124 13.5497 55.6137C13.441 55.8126 13.3866 56.0532 13.3866 56.3354ZM19.7782 59.618C19.4405 59.618 19.1351 59.5555 18.8622 59.4306C18.5892 59.3034 18.3729 59.1195 18.2133 58.8789C18.056 58.6383 17.9773 58.3434 17.9773 57.9941C17.9773 57.6933 18.0352 57.4458 18.1508 57.2515C18.2665 57.0572 18.4226 56.9033 18.6193 56.79C18.8159 56.6766 19.0357 56.591 19.2786 56.5332C19.5215 56.4754 19.769 56.4314 20.0211 56.4014C20.3404 56.3643 20.5994 56.3343 20.7984 56.3111C20.9973 56.2857 21.1419 56.2452 21.2321 56.1897C21.3223 56.1342 21.3675 56.044 21.3675 55.919V55.8947C21.3675 55.5917 21.2819 55.3569 21.1107 55.1903C20.9418 55.0238 20.6897 54.9405 20.3542 54.9405C20.0049 54.9405 19.7296 55.018 19.5284 55.173C19.3295 55.3257 19.1918 55.4957 19.1155 55.6831L18.1404 55.461C18.2561 55.1371 18.425 54.8757 18.647 54.6768C18.8714 54.4755 19.1294 54.3298 19.4208 54.2396C19.7123 54.1471 20.0188 54.1008 20.3404 54.1008C20.5532 54.1008 20.7787 54.1262 21.017 54.1771C21.2576 54.2257 21.482 54.3159 21.6902 54.4478C21.9007 54.5796 22.073 54.7682 22.2072 55.0134C22.3413 55.2563 22.4084 55.572 22.4084 55.9607V59.5H21.3952V58.7713H21.3536C21.2865 58.9055 21.1859 59.0373 21.0517 59.1669C20.9175 59.2964 20.7452 59.404 20.5347 59.4896C20.3242 59.5752 20.072 59.618 19.7782 59.618ZM20.0038 58.7852C20.2906 58.7852 20.5358 58.7285 20.7394 58.6152C20.9453 58.5018 21.1014 58.3538 21.2078 58.171C21.3166 57.986 21.3709 57.7882 21.3709 57.5777V56.8906C21.3339 56.9276 21.2622 56.9623 21.1558 56.9947C21.0517 57.0248 20.9326 57.0514 20.7984 57.0745C20.6642 57.0953 20.5335 57.115 20.4063 57.1335C20.2791 57.1497 20.1726 57.1636 20.0871 57.1751C19.8858 57.2006 19.7019 57.2434 19.5353 57.3035C19.3711 57.3637 19.2392 57.4504 19.1398 57.5638C19.0426 57.6748 18.994 57.8229 18.994 58.0079C18.994 58.2647 19.0889 58.459 19.2786 58.5909C19.4682 58.7204 19.71 58.7852 20.0038 58.7852ZM23.7903 61.4987V54.1702H24.8036V55.0342H24.8903C24.9504 54.9232 25.0372 54.7948 25.1505 54.649C25.2639 54.5033 25.4212 54.3761 25.6225 54.2673C25.8237 54.1563 26.0897 54.1008 26.4205 54.1008C26.8508 54.1008 27.2348 54.2095 27.5726 54.427C27.9103 54.6444 28.1752 54.9579 28.3672 55.3673C28.5615 55.7768 28.6586 56.2695 28.6586 56.8455C28.6586 57.4215 28.5626 57.9154 28.3706 58.3272C28.1786 58.7366 27.9149 59.0524 27.5795 59.2745C27.2441 59.4942 26.8612 59.6041 26.4309 59.6041C26.1071 59.6041 25.8422 59.5497 25.6363 59.441C25.4328 59.3323 25.2731 59.2051 25.1575 59.0593C25.0418 58.9136 24.9528 58.784 24.8903 58.6707H24.8278V61.4987H23.7903ZM24.807 56.8351C24.807 57.2098 24.8614 57.5383 24.9701 57.8206C25.0788 58.1028 25.2361 58.3237 25.442 58.4833C25.6479 58.6406 25.9 58.7193 26.1985 58.7193C26.5084 58.7193 26.7675 58.6371 26.9757 58.4729C27.1839 58.3063 27.3412 58.0808 27.4476 57.7963C27.5564 57.5117 27.6107 57.1913 27.6107 56.8351C27.6107 56.4835 27.5575 56.1677 27.4511 55.8878C27.347 55.6079 27.1897 55.387 26.9792 55.225C26.771 55.0631 26.5108 54.9822 26.1985 54.9822C25.8977 54.9822 25.6433 55.0596 25.4351 55.2146C25.2292 55.3696 25.073 55.5859 24.9666 55.8635C24.8602 56.1411 24.807 56.465 24.807 56.8351ZM29.8211 59.5V54.1702H30.8586V59.5H29.8211ZM30.345 53.3478C30.1646 53.3478 30.0096 53.2877 29.8801 53.1674C29.7528 53.0448 29.6892 52.899 29.6892 52.7302C29.6892 52.559 29.7528 52.4133 29.8801 52.293C30.0096 52.1704 30.1646 52.1091 30.345 52.1091C30.5255 52.1091 30.6793 52.1704 30.8065 52.293C30.9361 52.4133 31.0008 52.559 31.0008 52.7302C31.0008 52.899 30.9361 53.0448 30.8065 53.1674C30.6793 53.2877 30.5255 53.3478 30.345 53.3478ZM33.2919 56.3354V59.5H32.2544V54.1702H33.2502V55.0377H33.3162C33.4388 54.7555 33.6308 54.5288 33.8922 54.3576C34.1559 54.1864 34.4878 54.1008 34.888 54.1008C35.2512 54.1008 35.5693 54.1771 35.8423 54.3298C36.1152 54.4802 36.3269 54.7046 36.4773 55.003C36.6276 55.3014 36.7028 55.6704 36.7028 56.1099V59.5H35.6653V56.2348C35.6653 55.8485 35.5647 55.5466 35.3634 55.3291C35.1622 55.1094 34.8857 54.9995 34.5341 54.9995C34.2935 54.9995 34.0795 55.0516 33.8922 55.1557C33.7071 55.2597 33.5602 55.4124 33.4515 55.6137C33.3451 55.8126 33.2919 56.0532 33.2919 56.3354ZM40.3289 61.6097C39.9055 61.6097 39.5412 61.5542 39.2358 61.4432C38.9328 61.3321 38.6853 61.1852 38.4933 61.0025C38.3013 60.8197 38.1579 60.6196 38.063 60.4022L38.9548 60.0344C39.0172 60.1362 39.1005 60.2437 39.2046 60.3571C39.311 60.4727 39.4545 60.5711 39.6349 60.652C39.8176 60.733 40.0524 60.7735 40.3393 60.7735C40.7325 60.7735 41.0576 60.6775 41.3143 60.4855C41.5711 60.2958 41.6995 59.9927 41.6995 59.5763V58.5284H41.6336C41.5711 58.6418 41.4809 58.7678 41.3629 58.9066C41.2472 59.0454 41.0876 59.1657 40.8841 59.2675C40.6805 59.3693 40.4156 59.4202 40.0894 59.4202C39.6684 59.4202 39.2891 59.3219 38.9513 59.1252C38.6159 58.9263 38.3499 58.6337 38.1532 58.2474C37.9589 57.8587 37.8618 57.381 37.8618 56.8143C37.8618 56.2475 37.9578 55.7617 38.1498 55.3569C38.3441 54.9521 38.6101 54.6421 38.9478 54.427C39.2856 54.2095 39.6684 54.1008 40.0964 54.1008C40.4272 54.1008 40.6944 54.1563 40.8979 54.2673C41.1015 54.3761 41.26 54.5033 41.3733 54.649C41.489 54.7948 41.578 54.9232 41.6405 55.0342H41.7168V54.1702H42.7335V59.618C42.7335 60.076 42.6271 60.4519 42.4143 60.7457C42.2015 61.0395 41.9135 61.2569 41.5503 61.3981C41.1894 61.5392 40.7823 61.6097 40.3289 61.6097ZM40.3185 58.5596C40.6169 58.5596 40.869 58.4903 41.0749 58.3515C41.2831 58.2103 41.4404 58.0091 41.5468 57.7477C41.6555 57.484 41.7099 57.1682 41.7099 56.8004C41.7099 56.4418 41.6567 56.1261 41.5503 55.8531C41.4439 55.5801 41.2877 55.3673 41.0818 55.2146C40.876 55.0596 40.6215 54.9822 40.3185 54.9822C40.0062 54.9822 39.7459 55.0631 39.5377 55.225C39.3295 55.3847 39.1722 55.6021 39.0658 55.8774C38.9617 56.1527 38.9097 56.4603 38.9097 56.8004C38.9097 57.1497 38.9629 57.4562 39.0693 57.7199C39.1757 57.9836 39.333 58.1895 39.5412 58.3376C39.7517 58.4856 40.0108 58.5596 40.3185 58.5596ZM46.4438 53.3166V52.3936H51.9436V53.3166H49.7263V59.5H48.6576V53.3166H46.4438ZM54.5478 59.6076C54.0481 59.6076 53.612 59.4931 53.2396 59.264C52.8672 59.035 52.578 58.7146 52.3721 58.3029C52.1662 57.8911 52.0633 57.4099 52.0633 56.8594C52.0633 56.3065 52.1662 55.823 52.3721 55.409C52.578 54.9949 52.8672 54.6733 53.2396 54.4443C53.612 54.2153 54.0481 54.1008 54.5478 54.1008C55.0474 54.1008 55.4835 54.2153 55.8559 54.4443C56.2284 54.6733 56.5175 54.9949 56.7234 55.409C56.9293 55.823 57.0322 56.3065 57.0322 56.8594C57.0322 57.4099 56.9293 57.8911 56.7234 58.3029C56.5175 58.7146 56.2284 59.035 55.8559 59.264C55.4835 59.4931 55.0474 59.6076 54.5478 59.6076ZM54.5512 58.7366C54.8751 58.7366 55.1434 58.651 55.3563 58.4798C55.5691 58.3087 55.7264 58.0808 55.8282 57.7963C55.9323 57.5117 55.9843 57.1983 55.9843 56.8559C55.9843 56.5159 55.9323 56.2036 55.8282 55.919C55.7264 55.6322 55.5691 55.402 55.3563 55.2285C55.1434 55.055 54.8751 54.9683 54.5512 54.9683C54.2251 54.9683 53.9544 55.055 53.7393 55.2285C53.5265 55.402 53.368 55.6322 53.2639 55.919C53.1621 56.2036 53.1112 56.5159 53.1112 56.8559C53.1112 57.1983 53.1621 57.5117 53.2639 57.7963C53.368 58.0808 53.5265 58.3087 53.7393 58.4798C53.9544 58.651 54.2251 58.7366 54.5512 58.7366ZM58.1903 59.5V54.1702H59.1862V55.0377H59.2521C59.3632 54.7439 59.5448 54.5149 59.7969 54.3506C60.0491 54.1841 60.3509 54.1008 60.7026 54.1008C61.0588 54.1008 61.3572 54.1841 61.5978 54.3506C61.8407 54.5172 62.02 54.7462 62.1356 55.0377H62.1912C62.3184 54.7531 62.5208 54.5264 62.7984 54.3576C63.076 54.1864 63.4068 54.1008 63.7908 54.1008C64.2743 54.1008 64.6687 54.2523 64.974 54.5554C65.2817 54.8584 65.4355 55.3153 65.4355 55.926V59.5H64.398V56.0231C64.398 55.6623 64.2997 55.4009 64.1031 55.2389C63.9065 55.077 63.6717 54.996 63.3987 54.996C63.061 54.996 62.7984 55.1001 62.611 55.3083C62.4236 55.5142 62.33 55.7791 62.33 56.1029V59.5H61.2959V55.9572C61.2959 55.668 61.2057 55.4356 61.0253 55.2597C60.8448 55.0839 60.61 54.996 60.3209 54.996C60.1242 54.996 59.9426 55.0481 59.7761 55.1522C59.6118 55.254 59.4788 55.3962 59.377 55.579C59.2776 55.7617 59.2278 55.9734 59.2278 56.214V59.5H58.1903ZM69.0712 59.6076C68.5715 59.6076 68.1354 59.4931 67.763 59.264C67.3906 59.035 67.1014 58.7146 66.8955 58.3029C66.6896 57.8911 66.5867 57.4099 66.5867 56.8594C66.5867 56.3065 66.6896 55.823 66.8955 55.409C67.1014 54.9949 67.3906 54.6733 67.763 54.4443C68.1354 54.2153 68.5715 54.1008 69.0712 54.1008C69.5708 54.1008 70.0069 54.2153 70.3793 54.4443C70.7518 54.6733 71.0409 54.9949 71.2468 55.409C71.4527 55.823 71.5556 56.3065 71.5556 56.8594C71.5556 57.4099 71.4527 57.8911 71.2468 58.3029C71.0409 58.7146 70.7518 59.035 70.3793 59.264C70.0069 59.4931 69.5708 59.6076 69.0712 59.6076ZM69.0746 58.7366C69.3985 58.7366 69.6668 58.651 69.8796 58.4798C70.0925 58.3087 70.2498 58.0808 70.3516 57.7963C70.4557 57.5117 70.5077 57.1983 70.5077 56.8559C70.5077 56.5159 70.4557 56.2036 70.3516 55.919C70.2498 55.6322 70.0925 55.402 69.8796 55.2285C69.6668 55.055 69.3985 54.9683 69.0746 54.9683C68.7485 54.9683 68.4778 55.055 68.2627 55.2285C68.0498 55.402 67.8914 55.6322 67.7873 55.919C67.6855 56.2036 67.6346 56.5159 67.6346 56.8559C67.6346 57.1983 67.6855 57.5117 67.7873 57.7963C67.8914 58.0808 68.0498 58.3087 68.2627 58.4798C68.4778 58.651 68.7485 58.7366 69.0746 58.7366ZM72.7137 59.5V54.1702H73.7165V55.0169H73.772C73.8692 54.73 74.0404 54.5045 74.2856 54.3402C74.5331 54.1737 74.813 54.0904 75.1253 54.0904C75.1901 54.0904 75.2664 54.0927 75.3543 54.0973C75.4445 54.1019 75.5151 54.1077 75.566 54.1147V55.1071C75.5244 55.0955 75.4503 55.0828 75.3439 55.0689C75.2375 55.0527 75.1311 55.0446 75.0247 55.0446C74.7795 55.0446 74.5609 55.0967 74.3689 55.2008C74.1792 55.3025 74.0288 55.4448 73.9178 55.6276C73.8067 55.808 73.7512 56.0139 73.7512 56.2452V59.5H72.7137ZM76.4638 59.5V54.1702H77.4666V55.0169H77.5222C77.6193 54.73 77.7905 54.5045 78.0357 54.3402C78.2832 54.1737 78.5631 54.0904 78.8754 54.0904C78.9402 54.0904 79.0165 54.0927 79.1045 54.0973C79.1947 54.1019 79.2652 54.1077 79.3161 54.1147V55.1071C79.2745 55.0955 79.2005 55.0828 79.094 55.0689C78.9876 55.0527 78.8812 55.0446 78.7748 55.0446C78.5296 55.0446 78.311 55.0967 78.119 55.2008C77.9293 55.3025 77.7789 55.4448 77.6679 55.6276C77.5569 55.808 77.5013 56.0139 77.5013 56.2452V59.5H76.4638ZM82.2682 59.6076C81.7685 59.6076 81.3324 59.4931 80.96 59.264C80.5876 59.035 80.2984 58.7146 80.0925 58.3029C79.8866 57.8911 79.7837 57.4099 79.7837 56.8594C79.7837 56.3065 79.8866 55.823 80.0925 55.409C80.2984 54.9949 80.5876 54.6733 80.96 54.4443C81.3324 54.2153 81.7685 54.1008 82.2682 54.1008C82.7678 54.1008 83.2039 54.2153 83.5763 54.4443C83.9488 54.6733 84.2379 54.9949 84.4438 55.409C84.6497 55.823 84.7526 56.3065 84.7526 56.8594C84.7526 57.4099 84.6497 57.8911 84.4438 58.3029C84.2379 58.7146 83.9488 59.035 83.5763 59.264C83.2039 59.4931 82.7678 59.6076 82.2682 59.6076ZM82.2716 58.7366C82.5955 58.7366 82.8638 58.651 83.0767 58.4798C83.2895 58.3087 83.4468 58.0808 83.5486 57.7963C83.6527 57.5117 83.7047 57.1983 83.7047 56.8559C83.7047 56.5159 83.6527 56.2036 83.5486 55.919C83.4468 55.6322 83.2895 55.402 83.0767 55.2285C82.8638 55.055 82.5955 54.9683 82.2716 54.9683C81.9455 54.9683 81.6748 55.055 81.4597 55.2285C81.2468 55.402 81.0884 55.6322 80.9843 55.919C80.8825 56.2036 80.8316 56.5159 80.8316 56.8559C80.8316 57.1983 80.8825 57.5117 80.9843 57.7963C81.0884 58.0808 81.2468 58.3087 81.4597 58.4798C81.6748 58.651 81.9455 58.7366 82.2716 58.7366ZM86.904 59.5L85.3356 54.1702H86.4078L87.4522 58.0843H87.5043L88.5522 54.1702H89.6244L90.6654 58.0669H90.7174L91.7549 54.1702H92.8271L91.2622 59.5H90.2039L89.1213 55.6519H89.0415L87.9588 59.5H86.904ZM95.1199 52.3936L95.0297 57.4562H94.0685L93.9783 52.3936H95.1199ZM94.5508 59.5659C94.3588 59.5659 94.1946 59.4988 94.0581 59.3647C93.9216 59.2282 93.8545 59.0639 93.8569 58.8719C93.8545 58.6823 93.9216 58.5203 94.0581 58.3862C94.1946 58.2497 94.3588 58.1814 94.5508 58.1814C94.7382 58.1814 94.9001 58.2497 95.0366 58.3862C95.1731 58.5203 95.2425 58.6823 95.2448 58.8719C95.2425 58.9992 95.209 59.116 95.1442 59.2224C95.0817 59.3265 94.9985 59.4098 94.8944 59.4722C94.7903 59.5347 94.6758 59.5659 94.5508 59.5659Z" fill="#8F255A"/>
</svg>
