<svg width="101" height="94" viewBox="0 0 101 94" fill="none" xmlns="http://www.w3.org/2000/svg">
<path d="M37.6809 34.5022C37.7763 34.502 37.8716 34.5019 37.967 34.5017C38.1729 34.5014 38.3789 34.5013 38.5848 34.5015C38.891 34.5017 39.1972 34.5014 39.5035 34.5011C40.0824 34.5005 40.6613 34.5005 41.2402 34.5005C41.6874 34.5006 42.1346 34.5006 42.5819 34.5004C42.6463 34.5004 42.7107 34.5003 42.7751 34.5003C42.8722 34.5003 42.9693 34.5002 43.0663 34.5002C43.968 34.4999 44.8697 34.4997 45.7714 34.4999C45.8223 34.4999 45.8223 34.4999 45.8743 34.4999C46.0463 34.4999 46.2182 34.5 46.3902 34.5C46.4244 34.5 46.4585 34.5 46.4937 34.5C46.5628 34.5 46.6319 34.5 46.7009 34.5001C47.7756 34.5003 48.8502 34.5 49.9249 34.4992C51.1342 34.4984 52.3435 34.498 53.5528 34.4982C53.6818 34.4982 53.8109 34.4982 53.94 34.4982C53.9718 34.4982 54.0036 34.4982 54.0364 34.4982C54.5147 34.4983 54.9931 34.498 55.4715 34.4976C56.016 34.4972 56.5604 34.4971 57.1048 34.4976C57.4089 34.4978 57.713 34.4978 58.0171 34.4972C58.245 34.4969 58.4729 34.4971 58.7008 34.4976C58.7923 34.4977 58.8839 34.4976 58.9755 34.4973C59.7135 34.495 60.4397 34.5513 61.1607 34.7172C61.1971 34.7255 61.2335 34.7337 61.271 34.7422C63.0003 35.1425 64.6044 35.9806 65.9 37.1952C65.9849 37.274 66.0712 37.3492 66.1601 37.4235C66.7383 37.9274 67.2201 38.574 67.6261 39.2205C67.641 39.2441 67.6559 39.2677 67.6713 39.2921C67.8996 39.6554 68.0994 40.0293 68.283 40.4169C68.2959 40.4439 68.3088 40.4709 68.3221 40.4987C69.5468 43.082 69.4563 45.9246 68.5921 48.5985C68.575 48.6515 68.575 48.6515 68.5576 48.7056C68.3926 49.21 68.1925 49.6974 67.9738 50.1808C67.9579 50.2162 67.942 50.2515 67.9256 50.288C67.3591 51.535 66.6165 52.7085 65.7132 53.7402C65.6688 53.7925 65.6256 53.8458 65.5829 53.8995C65.3629 54.1754 65.1258 54.4264 64.8754 54.6747C64.8101 54.7395 64.7452 54.8047 64.6803 54.8699C64.4246 55.1256 64.1612 55.3588 63.8777 55.5837C63.8351 55.6198 63.7928 55.6561 63.7508 55.6929C63.4106 55.9891 63.0496 56.252 62.6798 56.51C62.6552 56.5272 62.6306 56.5445 62.6053 56.5623C62.1833 56.8567 61.7395 57.1115 61.2887 57.359C61.253 57.3786 61.2173 57.3983 61.1805 57.4185C59.7083 58.2216 58.1023 58.7479 56.4511 59.0281C56.4228 59.033 56.3945 59.0378 56.3654 59.0428C55.5712 59.1771 54.7873 59.2229 53.9824 59.2215C53.887 59.2216 53.7916 59.2218 53.6963 59.222C53.4903 59.2223 53.2844 59.2223 53.0785 59.2222C52.7723 59.222 52.466 59.2222 52.1598 59.2226C51.5809 59.2231 51.002 59.2232 50.423 59.2231C49.9758 59.223 49.5286 59.2231 49.0814 59.2233C49.017 59.2233 48.9526 59.2233 48.8882 59.2233C48.7911 59.2234 48.694 59.2234 48.5969 59.2234C47.6952 59.2238 46.7936 59.2239 45.8919 59.2238C45.8409 59.2238 45.8409 59.2238 45.789 59.2238C45.617 59.2237 45.445 59.2237 45.273 59.2237C45.2389 59.2237 45.2047 59.2237 45.1695 59.2236C45.1005 59.2236 45.0314 59.2236 44.9623 59.2236C43.8877 59.2234 42.8131 59.2237 41.7384 59.2244C40.5291 59.2252 39.3198 59.2256 38.1105 59.2255C37.9814 59.2255 37.8523 59.2254 37.7232 59.2254C37.6756 59.2254 37.6756 59.2254 37.6269 59.2254C37.1485 59.2254 36.6701 59.2256 36.1917 59.226C35.6473 59.2265 35.1029 59.2266 34.5585 59.2261C34.2544 59.2258 33.9503 59.2259 33.6462 59.2264C33.4183 59.2268 33.1904 59.2265 32.9625 59.226C32.8709 59.2259 32.7794 59.226 32.6878 59.2263C31.9498 59.2287 31.2236 59.1723 30.5026 59.0064C30.448 58.9941 30.448 58.9941 30.3922 58.9815C28.663 58.5811 27.0588 57.743 25.7633 56.5285C25.6784 56.4497 25.5921 56.3744 25.5032 56.3001C24.925 55.7963 24.4432 55.1496 24.0372 54.5032C24.0223 54.4795 24.0073 54.4559 23.992 54.4316C23.7637 54.0683 23.5639 53.6944 23.3803 53.3068C23.3674 53.2798 23.3545 53.2528 23.3412 53.225C22.1165 50.6417 22.207 47.799 23.0711 45.1252C23.0826 45.0898 23.094 45.0545 23.1057 45.018C23.2707 44.5137 23.4708 44.0262 23.6894 43.5429C23.7054 43.5075 23.7213 43.4721 23.7377 43.4357C24.3042 42.1887 25.0468 41.0152 25.9501 39.9834C25.9945 39.9311 26.0377 39.8778 26.0804 39.8241C26.3003 39.5482 26.5375 39.2972 26.7879 39.049C26.8532 38.9842 26.9181 38.919 26.983 38.8537C27.2386 38.5981 27.5021 38.3648 27.7855 38.1399C27.8281 38.1038 27.8705 38.0675 27.9125 38.0308C28.2527 37.7345 28.6136 37.4717 28.9835 37.2137C29.0081 37.1964 29.0327 37.1792 29.058 37.1614C29.48 36.8669 29.9238 36.6122 30.3746 36.3647C30.4103 36.345 30.446 36.3254 30.4828 36.3052C31.955 35.502 33.5609 34.9757 35.2122 34.6955C35.2405 34.6907 35.2687 34.6859 35.2979 34.6809C36.092 34.5466 36.876 34.5007 37.6809 34.5022Z" fill="#F3ECF8"/>
<path d="M49.2707 37.5991C50.5535 37.5973 51.8364 37.596 53.1193 37.5951C53.271 37.595 53.4228 37.5949 53.5746 37.5948C53.6048 37.5948 53.635 37.5948 53.6661 37.5948C54.154 37.5945 54.642 37.5938 55.1299 37.5931C55.6313 37.5924 56.1326 37.592 56.634 37.5918C56.9429 37.5917 57.2518 37.5914 57.5607 37.5908C57.7984 37.5903 58.036 37.5903 58.2736 37.5904C58.3705 37.5903 58.4675 37.5902 58.5644 37.5899C60.6937 37.5837 62.5791 38.2527 64.1094 39.7603C65.5127 41.1762 66.1356 43.0423 66.1307 44.9989C66.1217 46.3064 65.7207 47.6022 65.1914 48.7909C65.1757 48.8264 65.1599 48.8619 65.1437 48.8984C64.6741 49.9447 64.0577 50.9915 63.2655 51.8281C63.1953 51.9028 63.1285 51.9789 63.0617 52.0565C62.888 52.2555 62.7022 52.4418 62.5154 52.6285C62.4815 52.6628 62.4476 52.6972 62.4126 52.7326C62.1789 52.9664 61.9344 53.1787 61.6749 53.3834C61.634 53.4166 61.593 53.4497 61.5521 53.4828C60.9856 53.9264 60.3804 54.3232 59.7428 54.657C59.7056 54.6765 59.7056 54.6765 59.6676 54.6964C59.4882 54.7896 59.307 54.8787 59.1245 54.9657C59.099 54.978 59.0734 54.9903 59.0471 55.0029C58.1307 55.4389 57.1796 55.7279 56.1877 55.9305C56.1544 55.9375 56.121 55.9446 56.0867 55.9518C54.9215 56.1921 53.7038 56.1341 52.5213 56.1313C52.2773 56.1308 52.0332 56.1308 51.7892 56.1307C51.3809 56.1305 50.9726 56.13 50.5642 56.1293C50.1443 56.1286 49.7244 56.1281 49.3044 56.1278C49.2654 56.1277 49.2654 56.1277 49.2255 56.1277C49.0949 56.1276 48.9643 56.1275 48.8336 56.1274C47.7556 56.1266 46.6776 56.1252 45.5996 56.1235C45.6207 55.9125 45.6485 55.7059 45.6905 55.4978C45.6957 55.4717 45.701 55.4455 45.7063 55.4185C45.7241 55.3302 45.742 55.2419 45.7599 55.1536C45.7731 55.0878 45.7863 55.022 45.7996 54.9562C45.829 54.8099 45.8584 54.6635 45.888 54.5173C45.9379 54.2704 45.9875 54.0234 46.0372 53.7765C46.0945 53.4911 46.1519 53.2058 46.2093 52.9205C46.3862 52.0414 46.5625 51.1622 46.7386 50.283C46.7494 50.2288 46.7494 50.2288 46.7605 50.1735C46.8357 49.7979 46.9109 49.4224 46.9861 49.0468C47.0873 48.5418 47.1884 48.0367 47.2896 47.5317C47.2974 47.4928 47.3052 47.4539 47.3132 47.4138C47.3449 47.2557 47.3766 47.0976 47.4082 46.9396C47.4641 46.6605 47.52 46.3815 47.5759 46.1025C47.7476 45.2451 47.9194 44.3877 48.0912 43.5304C48.2278 42.8486 48.3643 42.1669 48.5009 41.4851C48.5844 41.0682 48.6679 40.6512 48.7515 40.2343C48.8082 39.9512 48.8649 39.6681 48.9216 39.3851C48.9542 39.2221 48.9869 39.0592 49.0195 38.8962C49.0494 38.7473 49.0792 38.5983 49.109 38.4493C49.1198 38.3955 49.1306 38.3416 49.1414 38.2878C49.1561 38.2146 49.1707 38.1415 49.1854 38.0683C49.1935 38.0277 49.2016 37.9871 49.21 37.9453C49.2321 37.8301 49.2518 37.7148 49.2707 37.5991Z" fill="#E5D2F4"/>
<path d="M39.1413 37.5916C39.3854 37.592 39.6294 37.5921 39.8735 37.5922C40.2818 37.5924 40.6901 37.5929 41.0984 37.5936C41.5184 37.5943 41.9383 37.5948 42.3582 37.5951C42.3973 37.5952 42.3973 37.5952 42.4371 37.5952C42.5678 37.5953 42.6984 37.5954 42.829 37.5955C43.907 37.5963 44.9851 37.5976 46.0631 37.5994C46.0571 37.6546 46.0511 37.7099 46.0451 37.7651C46.0401 37.8113 46.0401 37.8113 46.035 37.8583C46.0217 37.9697 46.0018 38.079 45.9797 38.189C45.9713 38.231 45.9629 38.2731 45.9542 38.3164C45.9455 38.3592 45.9368 38.4019 45.9278 38.446C45.9191 38.4898 45.9104 38.5336 45.9014 38.5787C45.8363 38.9014 45.8363 38.9014 45.7926 38.9887C45.747 38.9888 45.7014 38.9889 45.6545 38.989C44.5702 38.9912 43.486 38.994 42.4018 38.9975C42.268 38.998 42.1342 38.9984 42.0005 38.9988C41.9738 38.9989 41.9472 38.999 41.9198 38.9991C41.4899 39.0005 41.0601 39.0014 40.6303 39.0022C40.1885 39.0031 39.7466 39.0044 39.3048 39.006C39.057 39.0069 38.8091 39.0077 38.5613 39.0079C38.3276 39.0081 38.0938 39.0089 37.86 39.0101C37.7747 39.0104 37.6894 39.0106 37.6041 39.0105C36.9572 39.0102 36.3444 39.0643 35.7213 39.2492C35.6871 39.2593 35.6529 39.2693 35.6177 39.2797C35.2997 39.3761 35.0013 39.501 34.7021 39.6448C34.642 39.6735 34.642 39.6735 34.5807 39.7027C34.341 39.8174 34.1016 39.9329 33.8626 40.0489C33.6624 40.1461 33.4618 40.2421 33.2606 40.3371C32.8491 40.5318 32.4405 40.7324 32.0327 40.9347C31.9681 40.9667 31.9035 40.9986 31.8389 41.0305C31.4865 41.2042 31.1446 41.3833 30.8144 41.5967C30.7219 41.6516 30.7219 41.6516 30.6447 41.6516C30.6447 41.6771 30.6447 41.7025 30.6447 41.7288C30.6815 41.7152 30.7184 41.7016 30.7564 41.6876C32.1674 41.169 33.582 40.671 35.0946 40.5667C35.1414 40.5635 35.1882 40.5602 35.2364 40.5569C35.7218 40.5255 36.2058 40.5221 36.692 40.5236C36.7889 40.5237 36.8858 40.5237 36.9826 40.5236C37.1885 40.5236 37.3944 40.5238 37.6003 40.5242C37.898 40.5249 38.1957 40.5251 38.4934 40.5252C38.9767 40.5253 39.46 40.5259 39.9433 40.5266C40.412 40.5273 40.8807 40.5278 41.3493 40.5282C41.3929 40.5282 41.3929 40.5282 41.4373 40.5282C41.583 40.5283 41.7287 40.5284 41.8744 40.5285C43.0774 40.5293 44.2804 40.5307 45.4834 40.5324C45.4292 40.9098 45.3595 41.2833 45.2841 41.657C45.2718 41.7185 45.2595 41.7801 45.2472 41.8416C45.2136 42.0095 45.1799 42.1773 45.1462 42.3451C45.1097 42.5266 45.0734 42.7081 45.037 42.8896C44.9741 43.2036 44.9111 43.5177 44.8481 43.8317C44.7569 44.286 44.6658 44.7404 44.5748 45.1947C44.427 45.9323 44.2791 46.6698 44.1312 47.4073C43.9876 48.123 43.8441 48.8386 43.7006 49.5543C43.6917 49.5984 43.6829 49.6425 43.6738 49.6879C43.5772 50.1695 43.4807 50.6511 43.3842 51.1326C43.3757 51.175 43.3672 51.2173 43.3585 51.2608C43.3246 51.43 43.2907 51.5991 43.2568 51.7682C43.1575 52.2633 43.0583 52.7584 42.9589 53.2535C42.8967 53.5638 42.8344 53.8741 42.7722 54.1844C42.7363 54.3635 42.7004 54.5426 42.6644 54.7217C42.6315 54.8856 42.5987 55.0495 42.5658 55.2134C42.5539 55.2727 42.542 55.3321 42.5301 55.3914C42.5139 55.472 42.4978 55.5525 42.4817 55.6331C42.4727 55.6779 42.4637 55.7227 42.4544 55.7688C42.4317 55.8869 42.4112 56.0051 42.392 56.1238C41.0911 56.1282 39.7902 56.1316 38.4893 56.1337C38.3351 56.1339 38.181 56.1341 38.0268 56.1344C37.9808 56.1345 37.9808 56.1345 37.9338 56.1346C37.4393 56.1354 36.9447 56.1369 36.4502 56.1387C35.9414 56.1405 35.4326 56.1416 34.9238 56.142C34.6107 56.1422 34.2977 56.143 33.9846 56.1446C33.7689 56.1457 33.5532 56.1459 33.3374 56.1457C33.2136 56.1456 33.0899 56.1459 32.9661 56.1468C31.7481 56.1557 30.6191 55.9199 29.524 55.3905C29.4989 55.3785 29.4738 55.3665 29.448 55.3541C28.1242 54.7106 27.0352 53.5998 26.3553 52.3031C26.3414 52.2769 26.3275 52.2506 26.3132 52.2235C25.8637 51.3606 25.5438 50.3797 25.5346 49.4012C25.5342 49.3679 25.5339 49.3347 25.5335 49.3004C25.5215 47.977 25.5215 47.977 25.6739 47.3824C25.7005 47.278 25.7237 47.1731 25.7467 47.0678C26.0782 45.6011 26.7148 44.1499 27.5919 42.9251C27.6129 42.8956 27.634 42.8661 27.6556 42.8357C27.8889 42.5101 28.1213 42.1861 28.3972 41.8948C28.4674 41.8201 28.5342 41.744 28.601 41.6664C28.7747 41.4674 28.9605 41.2811 29.1473 41.0944C29.1812 41.0601 29.2151 41.0257 29.25 40.9903C29.4837 40.7564 29.7283 40.5442 29.9877 40.3394C30.0287 40.3063 30.0696 40.2732 30.1106 40.2401C31.1314 39.4408 32.284 38.7763 33.5042 38.3326C33.5324 38.3223 33.5606 38.3119 33.5897 38.3012C35.414 37.6388 37.2251 37.5871 39.1413 37.5916Z" fill="#E5D2F4"/>
<path d="M27.9017 36.5189C27.795 36.6017 27.6865 36.6725 27.5692 36.7394C27.1087 37.0048 26.6669 37.2828 26.2401 37.5995C26.2179 37.6158 26.1956 37.6322 26.1727 37.649C25.2261 38.3478 24.3365 39.1807 23.6124 40.108C23.569 40.1627 23.5256 40.2173 23.4821 40.272C23.2483 40.568 23.0228 40.8605 22.8297 41.1851C22.7416 41.2904 22.7053 41.2893 22.569 41.3044C22.4454 41.3019 22.3227 41.2915 22.1996 41.281C22.162 41.278 22.1244 41.275 22.0856 41.2719C21.9589 41.2618 21.8322 41.2512 21.7055 41.2407C21.614 41.2332 21.5225 41.2258 21.431 41.2185C21.2318 41.2024 21.0325 41.1861 20.8333 41.1696C20.537 41.1452 20.2407 41.1211 19.9444 41.097C19.3845 41.0515 18.8246 41.0057 18.2648 40.9597C17.8326 40.9243 17.4005 40.8889 16.9683 40.8536C16.9063 40.8485 16.8443 40.8435 16.7822 40.8384C16.6888 40.8308 16.5953 40.8231 16.5018 40.8155C15.6326 40.7445 14.7634 40.6734 13.8942 40.602C13.8614 40.5993 13.8287 40.5967 13.7949 40.5939C13.5287 40.572 13.2625 40.5502 12.9963 40.5283C11.9573 40.443 10.9183 40.3581 9.8793 40.2734C8.71271 40.1783 7.54613 40.083 6.37959 39.9873C6.25534 39.9771 6.13109 39.9669 6.00683 39.9567C5.96094 39.953 5.96094 39.953 5.91412 39.9491C5.45131 39.9112 4.98849 39.8734 4.52565 39.8358C3.99971 39.793 3.47379 39.7499 2.94789 39.7065C2.65326 39.6822 2.35862 39.6581 2.06395 39.6343C1.84452 39.6165 1.62513 39.5984 1.40575 39.5801C1.31655 39.5727 1.22733 39.5654 1.13811 39.5583C1.01765 39.5487 0.89725 39.5386 0.776845 39.5284C0.741478 39.5257 0.706111 39.523 0.669673 39.5202C0.588431 39.5131 0.507532 39.5022 0.426826 39.4905C0.414074 39.465 0.401322 39.4396 0.388184 39.4133C2.14487 39.2261 3.90156 39.0388 5.65825 38.8516C5.68477 38.8488 5.71128 38.8459 5.7386 38.843C6.3165 38.7814 6.89441 38.7198 7.47231 38.6582C7.75621 38.628 8.04012 38.5977 8.32402 38.5675C8.35225 38.5644 8.38049 38.5614 8.40958 38.5583C9.19527 38.4746 9.98096 38.3909 10.7667 38.3071C10.9582 38.2867 11.1497 38.2663 11.3412 38.2459C11.4231 38.2371 11.505 38.2284 11.5868 38.2197C11.6414 38.2139 11.6959 38.2081 11.7504 38.2022C12.0497 38.1703 12.349 38.1384 12.6483 38.1065C12.9741 38.0718 13.2999 38.0371 13.6257 38.0024C13.6525 37.9995 13.6793 37.9966 13.7069 37.9937C14.4609 37.9133 15.215 37.833 15.969 37.7527C16.4469 37.7018 16.9248 37.6509 17.4026 37.6C17.4813 37.5916 17.5599 37.5832 17.6385 37.5748C19.0414 37.4254 20.4443 37.2756 21.8471 37.1253C22.17 37.0907 22.4928 37.0562 22.8157 37.0217C22.86 37.0169 22.9044 37.0122 22.9501 37.0073C23.1692 36.9839 23.3884 36.9604 23.6075 36.937C24.0659 36.888 24.5243 36.8389 24.9826 36.7896C25.2879 36.7568 25.5932 36.7242 25.8985 36.6916C26.0721 36.6731 26.2457 36.6545 26.4193 36.6357C26.5768 36.6187 26.7343 36.6019 26.8918 36.5852C26.9484 36.5791 27.005 36.573 27.0615 36.5669C27.343 36.5362 27.6185 36.5116 27.9017 36.5189Z" fill="#FAD692"/>
<path d="M21.4867 44.6233C21.4611 44.766 21.423 44.899 21.3763 45.0362C21.0155 46.1137 20.7711 47.1905 20.7138 48.3282C20.4048 48.3055 20.1032 48.2619 19.7983 48.2073C19.7507 48.1989 19.703 48.1905 19.6539 48.1819C19.5225 48.1587 19.3912 48.1354 19.2599 48.112C19.1175 48.0867 18.975 48.0616 18.8326 48.0364C18.5854 47.9928 18.3382 47.949 18.0911 47.9051C17.7327 47.8415 17.3742 47.7781 17.0157 47.7147C16.463 47.617 15.9103 47.5192 15.3576 47.4213C14.4299 47.257 13.5022 47.0931 12.5744 46.9293C12.5004 46.9163 12.4264 46.9032 12.3524 46.8901C12.0613 46.8388 11.7702 46.7874 11.4791 46.736C10.7562 46.6084 10.0334 46.4807 9.31056 46.353C9.21795 46.3367 9.12533 46.3203 9.03272 46.3039C8.7015 46.2454 8.37028 46.1869 8.03906 46.1284C8.03906 46.1029 8.03906 46.0775 8.03906 46.0512C9.70196 45.8691 11.3649 45.6871 13.0278 45.5055C13.2242 45.484 13.4205 45.4626 13.6168 45.4411C13.6754 45.4347 13.6754 45.4347 13.7353 45.4282C14.3681 45.359 15.001 45.2898 15.6338 45.2204C16.2831 45.1493 16.9325 45.0783 17.5819 45.0074C17.9826 44.9637 18.3833 44.9199 18.7839 44.8759C19.0587 44.8457 19.3335 44.8157 19.6083 44.7858C19.7668 44.7686 19.9253 44.7513 20.0838 44.7338C20.2291 44.7178 20.3743 44.7019 20.5196 44.6862C20.5968 44.6778 20.674 44.6692 20.7511 44.6607C20.998 44.6341 21.2384 44.6173 21.4867 44.6233Z" fill="#FAD692"/>
<path d="M61.2112 51.9942C60.914 52.2084 60.5927 52.3717 60.2669 52.5369C60.2099 52.5659 60.153 52.595 60.096 52.6241C59.927 52.7104 59.7576 52.7961 59.5882 52.8818C59.564 52.8941 59.5397 52.9063 59.5147 52.919C58.9502 53.2047 58.3827 53.4841 57.8102 53.7535C57.6871 53.8116 57.5645 53.8704 57.4418 53.9292C56.5176 54.3683 55.5616 54.7037 54.5274 54.7003C54.4715 54.7003 54.4715 54.7003 54.4146 54.7004C54.2907 54.7004 54.1668 54.7002 54.0429 54.7C53.9538 54.7 53.8647 54.7 53.7755 54.7C53.5341 54.7 53.2927 54.6998 53.0513 54.6996C52.7988 54.6993 52.5463 54.6993 52.2938 54.6992C51.8702 54.6991 51.4466 54.6989 51.0229 54.6986C50.5867 54.6982 50.1505 54.6979 49.7143 54.6978C49.674 54.6977 49.674 54.6977 49.6328 54.6977C49.4977 54.6977 49.3627 54.6976 49.2276 54.6976C48.1084 54.6972 46.9893 54.6965 45.8701 54.6956C45.8824 54.615 45.8948 54.5344 45.9071 54.4538C45.914 54.4089 45.9209 54.364 45.928 54.3178C45.948 54.1901 45.9706 54.0633 45.9959 53.9366C46.0042 53.895 46.0124 53.8535 46.021 53.8106C46.0294 53.7692 46.0378 53.7277 46.0464 53.685C46.055 53.6419 46.0635 53.5988 46.0723 53.5544C46.0806 53.5134 46.0888 53.4723 46.0973 53.4301C46.1047 53.3933 46.1121 53.3564 46.1197 53.3185C46.1406 53.2291 46.1406 53.2291 46.1793 53.1519C46.2004 53.1519 46.2216 53.1519 46.2434 53.1518C47.5026 53.1496 48.7617 53.1467 50.0209 53.1431C50.1727 53.1427 50.3245 53.1422 50.4763 53.1418C50.5216 53.1417 50.5216 53.1417 50.5679 53.1416C51.0546 53.1402 51.5414 53.1392 52.0282 53.1384C52.5291 53.1376 53.03 53.1363 53.5309 53.1346C53.839 53.1336 54.1471 53.1329 54.4553 53.1327C54.6931 53.1324 54.9309 53.1316 55.1687 53.1305C55.2651 53.1302 55.3615 53.1301 55.458 53.1301C56.3669 53.1306 57.275 53.0713 58.1633 52.8697C58.2172 52.8579 58.2711 52.8461 58.325 52.8342C58.7019 52.7503 59.0712 52.6496 59.4357 52.522C59.5543 52.4808 59.6741 52.4429 59.7935 52.4042C60.0825 52.3076 60.3685 52.203 60.6544 52.0975C60.6892 52.0847 60.7241 52.0719 60.76 52.0587C60.7912 52.0472 60.8223 52.0357 60.8543 52.0238C61.0739 51.9484 61.0739 51.9484 61.2112 51.9942Z" fill="#F3ECF8"/>
<path d="M21.0615 51.4929C21.0792 51.5405 21.0969 51.588 21.1151 51.637C21.612 53.0051 21.612 53.0051 22.2127 54.3296C22.2595 54.426 22.2595 54.426 22.2595 54.5031C22.0698 54.4794 21.8919 54.4422 21.7073 54.3911C21.6802 54.3836 21.6531 54.3762 21.6252 54.3685C21.5351 54.3436 21.4449 54.3185 21.3548 54.2935C21.2898 54.2755 21.2247 54.2575 21.1597 54.2396C20.9828 54.1907 20.806 54.1416 20.6291 54.0925C20.4423 54.0407 20.2555 53.9891 20.0686 53.9374C19.7519 53.8499 19.4352 53.7622 19.1186 53.6744C18.6275 53.5384 18.1362 53.4027 17.645 53.2671C17.4833 53.2225 17.3217 53.1779 17.16 53.1333C17.1205 53.1224 17.081 53.1115 17.0403 53.1002C15.8945 52.7839 14.7489 52.4671 13.6035 52.149C13.6035 52.1235 13.6035 52.0981 13.6035 52.0718C14.5017 51.9961 15.4 51.9206 16.2982 51.8454C16.7153 51.8105 17.1324 51.7754 17.5495 51.7403C17.9132 51.7096 18.2769 51.679 18.6406 51.6487C18.8331 51.6326 19.0255 51.6165 19.2179 51.6001C19.3993 51.5847 19.5808 51.5696 19.7623 51.5545C19.8286 51.549 19.8948 51.5434 19.9611 51.5377C20.3292 51.5062 20.6918 51.4848 21.0615 51.4929Z" fill="#FAD692"/>
<path fill-rule="evenodd" clip-rule="evenodd" d="M4.17478 9.99109C6.069 9.99109 7.8965 8.86855 8.89488 7.26227L52.2391 7.26227L52.886 3.62384L9.54171 3.62384C9.11445 2.01756 7.68608 0.89502 5.79186 0.89502C3.24066 0.89502 0.810517 2.93124 0.363973 5.44305C-0.0825711 7.95486 1.62358 9.99109 4.17478 9.99109ZM4.6599 7.26227C5.68038 7.26227 6.65244 6.44778 6.83105 5.44305C7.00967 4.43833 6.32721 3.62384 5.30673 3.62384C4.28626 3.62384 3.3142 4.43833 3.13558 5.44305C2.95696 6.44778 3.63942 7.26227 4.6599 7.26227Z" fill="#F3ECF8"/>
<path fill-rule="evenodd" clip-rule="evenodd" d="M94.483 9.99109C92.5006 9.99109 91.0284 8.7616 90.68 7.03486H59.4396L54.9916 32.0547H51.2961L56.3909 3.39644H91.529C92.5535 1.91261 94.2966 0.89502 96.1001 0.89502C98.6512 0.89502 100.357 2.93124 99.9109 5.44305C99.4643 7.95486 97.0342 9.99109 94.483 9.99109ZM94.9681 7.26227C93.9476 7.26227 93.2652 6.44778 93.4438 5.44305C93.6224 4.43833 94.5945 3.62384 95.6149 3.62384C96.6354 3.62384 97.3179 4.43833 97.1393 5.44305C96.9606 6.44778 95.9886 7.26227 94.9681 7.26227Z" fill="#F3ECF8"/>
<path fill-rule="evenodd" clip-rule="evenodd" d="M47.2545 32.0547L50.9748 11.1281H16.6163C16.2679 9.40131 14.7958 8.17183 12.8134 8.17183C10.2622 8.17183 7.83202 10.2081 7.38548 12.7199C6.93893 15.2317 8.64509 17.2679 11.1963 17.2679C12.9998 17.2679 14.7428 16.2503 15.7673 14.7665H46.6325L43.559 32.0547H47.2545ZM13.8526 12.7199C13.6739 13.7246 12.7019 14.5391 11.6814 14.5391C10.6609 14.5391 9.97847 13.7246 10.1571 12.7199C10.3357 11.7151 11.3078 10.9006 12.3282 10.9006C13.3487 10.9006 14.0312 11.7151 13.8526 12.7199Z" fill="#F3ECF8"/>
<path fill-rule="evenodd" clip-rule="evenodd" d="M38.2247 62.0604H41.9202L39.2731 76.9503C40.846 77.625 41.7497 79.2591 41.4104 81.1678C40.9639 83.6796 38.5337 85.7158 35.9825 85.7158C33.4313 85.7158 31.7252 83.6796 32.1717 81.1678C32.4954 79.3471 33.8612 77.7763 35.5599 77.0497L38.2247 62.0604ZM36.4676 82.987C37.4881 82.987 38.4602 82.1725 38.6388 81.1678C38.8174 80.1631 38.135 79.3486 37.1145 79.3486C36.094 79.3486 35.1219 80.1631 34.9433 81.1678C34.7647 82.1725 35.4472 82.987 36.4676 82.987Z" fill="#F3ECF8"/>
<path fill-rule="evenodd" clip-rule="evenodd" d="M39.7479 32.0547L42.0937 18.8597H22.77C22.3427 17.2535 20.9144 16.1309 19.0202 16.1309C16.469 16.1309 14.0388 18.1671 13.5923 20.679C13.1457 23.1908 14.8519 25.227 17.4031 25.227C19.2973 25.227 21.1248 24.1044 22.1232 22.4982H37.7514L36.0525 32.0547H39.7479ZM20.0594 20.679C19.8807 21.6837 18.9087 22.4982 17.8882 22.4982C16.8677 22.4982 16.1853 21.6837 16.3639 20.679C16.5425 19.6742 17.5146 18.8597 18.535 18.8597C19.5555 18.8597 20.238 19.6742 20.0594 20.679Z" fill="#F3ECF8"/>
<path fill-rule="evenodd" clip-rule="evenodd" d="M30.7181 62.0604H34.4136L32.9708 70.1761C34.4776 70.8779 35.3328 72.4807 35.0013 74.3457C34.5547 76.8575 32.1246 78.8938 29.5734 78.8938C27.0222 78.8938 25.316 76.8575 25.7626 74.3457C26.0941 72.4808 27.5192 70.878 29.2753 70.1762L30.7181 62.0604ZM30.0585 76.1649C31.079 76.1649 32.051 75.3505 32.2297 74.3457C32.4083 73.341 31.7258 72.5265 30.7053 72.5265C29.6849 72.5265 28.7128 73.341 28.5342 74.3457C28.3556 75.3505 29.038 76.1649 30.0585 76.1649Z" fill="#F3ECF8"/>
<path fill-rule="evenodd" clip-rule="evenodd" d="M45.9618 62.0604H49.6573L45.6676 84.5024C47.1744 85.2042 48.0296 86.807 47.6981 88.6721C47.2515 91.1839 44.8214 93.2201 42.2702 93.2201C39.719 93.2201 38.0128 91.1839 38.4594 88.6721C38.7909 86.8071 40.2159 85.2044 41.9721 84.5025L45.9618 62.0604ZM41.231 88.6721C41.0524 89.6768 41.7348 90.4913 42.7553 90.4913C43.7758 90.4913 44.7478 89.6768 44.9265 88.6721C45.1051 87.6673 44.4226 86.8528 43.4021 86.8528C42.3817 86.8528 41.4096 87.6673 41.231 88.6721Z" fill="#F3ECF8"/>
<path fill-rule="evenodd" clip-rule="evenodd" d="M81.3153 14.7665C81.7426 16.3728 83.171 17.4953 85.0652 17.4953C87.6164 17.4953 90.0465 15.4591 90.4931 12.9473C90.9396 10.4355 89.2335 8.39925 86.6823 8.39925C84.788 8.39925 82.9605 9.52179 81.9622 11.1281L61.9456 11.1281L61.2987 14.7665L81.3153 14.7665ZM84.026 12.9473C83.8474 13.952 84.5298 14.7665 85.5503 14.7665C86.5708 14.7665 87.5428 13.952 87.7215 12.9473C87.9001 11.9426 87.2176 11.1281 86.1971 11.1281C85.1767 11.1281 84.2046 11.9426 84.026 12.9473Z" fill="#F3ECF8"/>
<path fill-rule="evenodd" clip-rule="evenodd" d="M75.8379 25.227C73.9437 25.227 72.5153 24.1045 72.0881 22.4982L59.9242 22.4982L60.5711 18.8598L72.7349 18.8598C73.7333 17.2535 75.5608 16.1309 77.455 16.1309C80.0062 16.1309 81.7124 18.1672 81.2658 20.679C80.8193 23.1908 78.3891 25.227 75.8379 25.227ZM76.323 22.4982C75.3026 22.4982 74.6201 21.6837 74.7987 20.679C74.9773 19.6742 75.9494 18.8598 76.9699 18.8598C77.9904 18.8598 78.6728 19.6742 78.4942 20.679C78.3156 21.6837 77.3435 22.4982 76.323 22.4982Z" fill="#F3ECF8"/>
</svg>
