<svg width="63" height="58" viewBox="0 0 63 58" fill="none" xmlns="http://www.w3.org/2000/svg">
<path d="M23.3377 21.259C23.3967 21.2589 23.4556 21.2588 23.5145 21.2587C23.6417 21.2585 23.7689 21.2585 23.8961 21.2586C24.0852 21.2587 24.2744 21.2585 24.4635 21.2583C24.8211 21.258 25.1787 21.2579 25.5363 21.258C25.8126 21.258 26.0888 21.258 26.365 21.2579C26.4048 21.2579 26.4446 21.2579 26.4844 21.2578C26.5444 21.2578 26.6043 21.2578 26.6643 21.2578C27.2213 21.2576 27.7782 21.2575 28.3352 21.2576C28.3666 21.2576 28.3666 21.2576 28.3987 21.2576C28.505 21.2576 28.6112 21.2576 28.7174 21.2577C28.7385 21.2577 28.7596 21.2577 28.7814 21.2577C28.824 21.2577 28.8667 21.2577 28.9093 21.2577C29.5731 21.2578 30.2369 21.2576 30.9007 21.2572C31.6477 21.2567 32.3947 21.2564 33.1416 21.2565C33.2214 21.2565 33.3011 21.2566 33.3809 21.2566C33.4005 21.2566 33.4201 21.2566 33.4404 21.2566C33.7359 21.2566 34.0314 21.2564 34.3269 21.2562C34.6631 21.2559 34.9994 21.2559 35.3357 21.2562C35.5235 21.2563 35.7114 21.2563 35.8992 21.2559C36.04 21.2557 36.1808 21.2559 36.3215 21.2562C36.3781 21.2562 36.4346 21.2562 36.4912 21.256C36.9471 21.2546 37.3956 21.2894 37.841 21.3918C37.8635 21.3969 37.886 21.402 37.9092 21.4072C38.9773 21.6545 39.9682 22.1722 40.7684 22.9224C40.8209 22.9711 40.8742 23.0176 40.9291 23.0635C41.2862 23.3747 41.5838 23.7741 41.8346 24.1735C41.8438 24.1881 41.853 24.2026 41.8625 24.2177C42.0036 24.4421 42.127 24.673 42.2404 24.9125C42.2483 24.9291 42.2563 24.9458 42.2645 24.963C43.021 26.5587 42.9651 28.3145 42.4313 29.9662C42.4208 29.9989 42.4208 29.9989 42.41 30.0323C42.3081 30.3439 42.1845 30.6449 42.0494 30.9435C42.0396 30.9654 42.0297 30.9872 42.0196 31.0097C41.6697 31.78 41.211 32.5049 40.653 33.1421C40.6256 33.1745 40.5989 33.2074 40.5726 33.2406C40.4367 33.411 40.2902 33.566 40.1355 33.7193C40.0952 33.7594 40.0551 33.7997 40.015 33.84C39.8571 33.9979 39.6944 34.142 39.5193 34.2809C39.493 34.3032 39.4668 34.3256 39.4409 34.3483C39.2307 34.5313 39.0078 34.6936 38.7793 34.853C38.7641 34.8637 38.749 34.8743 38.7333 34.8853C38.4727 35.0672 38.1985 35.2245 37.9201 35.3774C37.898 35.3896 37.876 35.4017 37.8532 35.4142C36.9439 35.9103 35.9519 36.2354 34.9319 36.4084C34.9145 36.4114 34.897 36.4144 34.879 36.4175C34.3885 36.5005 33.9042 36.5288 33.407 36.5279C33.3481 36.528 33.2892 36.5281 33.2303 36.5282C33.1031 36.5284 32.9759 36.5284 32.8487 36.5283C32.6596 36.5282 32.4704 36.5283 32.2812 36.5285C31.9237 36.5289 31.5661 36.5289 31.2085 36.5289C30.9322 36.5288 30.656 36.5289 30.3797 36.529C30.34 36.529 30.3002 36.529 30.2604 36.529C30.2004 36.529 30.1405 36.5291 30.0805 36.5291C29.5235 36.5293 28.9666 36.5294 28.4096 36.5293C28.3781 36.5293 28.3781 36.5293 28.3461 36.5293C28.2398 36.5293 28.1336 36.5292 28.0274 36.5292C28.0063 36.5292 27.9852 36.5292 27.9634 36.5292C27.9208 36.5292 27.8781 36.5292 27.8354 36.5292C27.1716 36.5291 26.5078 36.5292 25.844 36.5297C25.0971 36.5302 24.3501 36.5304 23.6031 36.5303C23.5234 36.5303 23.4437 36.5303 23.3639 36.5303C23.3345 36.5303 23.3345 36.5303 23.3044 36.5303C23.0089 36.5303 22.7134 36.5304 22.4179 36.5307C22.0816 36.531 21.7454 36.531 21.4091 36.5307C21.2212 36.5306 21.0334 36.5306 20.8456 36.5309C20.7048 36.5311 20.564 36.531 20.4232 36.5307C20.3667 36.5306 20.3101 36.5307 20.2536 36.5309C19.7977 36.5323 19.3491 36.4975 18.9038 36.395C18.8701 36.3874 18.8701 36.3874 18.8356 36.3796C17.7675 36.1323 16.7766 35.6146 15.9764 34.8644C15.9239 34.8157 15.8706 34.7693 15.8157 34.7234C15.4585 34.4122 15.161 34.0127 14.9102 33.6134C14.901 33.5988 14.8917 33.5842 14.8822 33.5692C14.7412 33.3448 14.6178 33.1138 14.5044 32.8744C14.4964 32.8577 14.4885 32.8411 14.4803 32.8239C13.7238 31.2282 13.7797 29.4723 14.3135 27.8207C14.3205 27.7989 14.3276 27.777 14.3348 27.7545C14.4367 27.443 14.5603 27.1419 14.6954 26.8433C14.7052 26.8215 14.7151 26.7997 14.7252 26.7771C15.0751 26.0069 15.5338 25.282 16.0918 24.6447C16.1192 24.6124 16.1459 24.5795 16.1722 24.5463C16.3081 24.3759 16.4546 24.2209 16.6093 24.0675C16.6496 24.0275 16.6897 23.9872 16.7297 23.9469C16.8877 23.789 17.0504 23.6449 17.2255 23.506C17.2518 23.4837 17.278 23.4613 17.3039 23.4386C17.514 23.2556 17.737 23.0932 17.9654 22.9339C17.9806 22.9232 17.9958 22.9126 18.0115 22.9016C18.2721 22.7197 18.5463 22.5623 18.8247 22.4094C18.8468 22.3973 18.8688 22.3852 18.8915 22.3727C19.8009 21.8766 20.7929 21.5515 21.8128 21.3784C21.8303 21.3754 21.8478 21.3725 21.8658 21.3694C22.3563 21.2864 22.8406 21.2581 23.3377 21.259Z" fill="url(#paint0_linear_8540_6540)"/>
<path d="M30.4961 23.1724C31.2885 23.1713 32.0809 23.1705 32.8733 23.17C32.9671 23.1699 33.0608 23.1698 33.1546 23.1698C33.1732 23.1698 33.1919 23.1698 33.2111 23.1697C33.5125 23.1695 33.8139 23.1692 34.1153 23.1687C34.425 23.1683 34.7347 23.168 35.0444 23.1679C35.2352 23.1678 35.426 23.1676 35.6168 23.1673C35.7636 23.167 35.9103 23.1669 36.0571 23.167C36.117 23.167 36.1769 23.1669 36.2367 23.1667C37.552 23.1629 38.7166 23.5761 39.6618 24.5073C40.5286 25.3819 40.9134 26.5346 40.9104 27.7432C40.9048 28.5508 40.6571 29.3512 40.3302 30.0855C40.3205 30.1074 40.3107 30.1293 40.3007 30.1519C40.0107 30.7981 39.6299 31.4447 39.1405 31.9615C39.0972 32.0077 39.0559 32.0546 39.0147 32.1026C38.9074 32.2255 38.7926 32.3406 38.6772 32.4559C38.6563 32.4771 38.6353 32.4983 38.6137 32.5202C38.4694 32.6647 38.3184 32.7957 38.1581 32.9222C38.1328 32.9427 38.1075 32.9631 38.0822 32.9836C37.7323 33.2576 37.3585 33.5027 36.9646 33.7089C36.9416 33.7209 36.9416 33.7209 36.9182 33.7332C36.8074 33.7908 36.6954 33.8458 36.5827 33.8996C36.5669 33.9072 36.5512 33.9148 36.5349 33.9226C35.9688 34.1919 35.3813 34.3704 34.7687 34.4956C34.7481 34.4999 34.7275 34.5042 34.7063 34.5087C33.9865 34.6571 33.2344 34.6213 32.504 34.6196C32.3532 34.6193 32.2025 34.6193 32.0518 34.6192C31.7995 34.6191 31.5473 34.6188 31.2951 34.6183C31.0357 34.6179 30.7763 34.6176 30.5169 34.6174C30.4928 34.6174 30.4928 34.6174 30.4682 34.6173C30.3875 34.6173 30.3068 34.6172 30.2261 34.6172C29.5603 34.6167 28.8944 34.6158 28.2285 34.6148C28.2415 34.4844 28.2587 34.3568 28.2846 34.2283C28.2879 34.2121 28.2911 34.1959 28.2944 34.1793C28.3054 34.1247 28.3165 34.0702 28.3275 34.0157C28.3357 33.975 28.3439 33.9344 28.352 33.8937C28.3702 33.8033 28.3884 33.7129 28.4067 33.6226C28.4375 33.4701 28.4681 33.3175 28.4988 33.165C28.5342 32.9888 28.5696 32.8125 28.6051 32.6363C28.7144 32.0933 28.8233 31.5502 28.932 31.0071C28.9387 30.9736 28.9387 30.9736 28.9456 30.9395C28.992 30.7075 29.0385 30.4755 29.085 30.2435C29.1474 29.9316 29.2099 29.6196 29.2724 29.3077C29.2772 29.2836 29.282 29.2596 29.287 29.2348C29.3066 29.1372 29.3261 29.0395 29.3457 28.9419C29.3802 28.7696 29.4147 28.5972 29.4493 28.4248C29.5553 27.8953 29.6614 27.3657 29.7675 26.8361C29.8519 26.415 29.9363 25.9939 30.0206 25.5728C30.0722 25.3152 30.1238 25.0577 30.1754 24.8001C30.2104 24.6253 30.2455 24.4504 30.2805 24.2756C30.3006 24.1749 30.3208 24.0743 30.341 23.9736C30.3594 23.8816 30.3779 23.7896 30.3963 23.6976C30.4029 23.6643 30.4096 23.6311 30.4163 23.5978C30.4253 23.5526 30.4344 23.5074 30.4434 23.4623C30.4484 23.4372 30.4535 23.4121 30.4586 23.3862C30.4723 23.3151 30.4845 23.2439 30.4961 23.1724Z" fill="url(#paint1_linear_8540_6540)"/>
<path d="M24.2399 23.1674C24.3906 23.1677 24.5414 23.1678 24.6921 23.1678C24.9443 23.1679 25.1965 23.1682 25.4487 23.1687C25.7081 23.1691 25.9675 23.1694 26.2269 23.1696C26.251 23.1697 26.251 23.1697 26.2756 23.1697C26.3563 23.1697 26.437 23.1698 26.5177 23.1699C27.1836 23.1704 27.8495 23.1712 28.5153 23.1723C28.5117 23.2064 28.508 23.2405 28.5042 23.2746C28.5011 23.3031 28.5011 23.3031 28.498 23.3322C28.4898 23.401 28.4775 23.4685 28.4639 23.5365C28.4587 23.5624 28.4535 23.5884 28.4481 23.6152C28.4427 23.6416 28.4374 23.668 28.4318 23.6952C28.4264 23.7223 28.421 23.7493 28.4155 23.7772C28.3753 23.9765 28.3753 23.9765 28.3483 24.0304C28.3201 24.0305 28.292 24.0306 28.263 24.0306C27.5933 24.032 26.9235 24.0337 26.2538 24.0359C26.1712 24.0362 26.0886 24.0364 26.0059 24.0367C25.9895 24.0368 25.973 24.0368 25.9561 24.0369C25.6906 24.0377 25.4251 24.0383 25.1596 24.0388C24.8867 24.0393 24.6138 24.0401 24.3408 24.0411C24.1878 24.0417 24.0347 24.0422 23.8816 24.0423C23.7372 24.0424 23.5928 24.0429 23.4484 24.0437C23.3957 24.0439 23.343 24.044 23.2903 24.0439C22.8908 24.0437 22.5122 24.0771 22.1274 24.1914C22.1062 24.1976 22.0851 24.2038 22.0634 24.2102C21.8669 24.2697 21.6826 24.3469 21.4978 24.4357C21.4607 24.4534 21.4607 24.4534 21.4228 24.4715C21.2747 24.5423 21.1269 24.6136 20.9792 24.6853C20.8556 24.7454 20.7317 24.8046 20.6074 24.8633C20.3532 24.9836 20.1008 25.1075 19.8489 25.2325C19.809 25.2522 19.7691 25.272 19.7292 25.2916C19.5115 25.3989 19.3003 25.5096 19.0964 25.6414C19.0393 25.6753 19.0393 25.6753 18.9916 25.6753C18.9916 25.691 18.9916 25.7067 18.9916 25.723C19.0143 25.7146 19.0371 25.7062 19.0606 25.6975C19.9322 25.3772 20.8059 25.0696 21.7402 25.0052C21.7692 25.0032 21.7981 25.0011 21.8279 24.9991C22.1277 24.9797 22.4266 24.9776 22.727 24.9786C22.7868 24.9786 22.8466 24.9786 22.9064 24.9785C23.0336 24.9785 23.1608 24.9787 23.288 24.9789C23.4719 24.9793 23.6558 24.9794 23.8396 24.9795C24.1382 24.9796 24.4367 24.9799 24.7353 24.9804C25.0247 24.9808 25.3142 24.9812 25.6037 24.9814C25.6306 24.9814 25.6306 24.9814 25.6581 24.9814C25.7481 24.9815 25.8381 24.9815 25.9281 24.9816C26.6711 24.9821 27.4142 24.9829 28.1573 24.984C28.1238 25.2171 28.0807 25.4478 28.0342 25.6786C28.0266 25.7166 28.019 25.7546 28.0114 25.7927C27.9907 25.8963 27.9698 26 27.949 26.1037C27.9265 26.2157 27.904 26.3279 27.8816 26.44C27.8427 26.634 27.8038 26.828 27.7649 27.0219C27.7085 27.3026 27.6523 27.5832 27.5961 27.8638C27.5048 28.3194 27.4134 28.775 27.322 29.2305C27.2334 29.6726 27.1447 30.1146 27.0561 30.5567C27.0506 30.5839 27.0451 30.6112 27.0395 30.6393C26.9799 30.9367 26.9202 31.2342 26.8606 31.5316C26.8554 31.5578 26.8501 31.5839 26.8447 31.6108C26.8238 31.7153 26.8029 31.8197 26.7819 31.9242C26.7206 32.23 26.6593 32.5359 26.598 32.8417C26.5595 33.0333 26.5211 33.225 26.4826 33.4167C26.4605 33.5273 26.4383 33.638 26.4161 33.7486C26.3957 33.8498 26.3754 33.951 26.3552 34.0523C26.3478 34.0889 26.3404 34.1256 26.3331 34.1622C26.3231 34.212 26.3131 34.2618 26.3032 34.3115C26.2976 34.3392 26.2921 34.3668 26.2863 34.3953C26.2723 34.4683 26.2597 34.5413 26.2478 34.6146C25.4442 34.6174 24.6407 34.6195 23.8371 34.6207C23.7419 34.6209 23.6467 34.621 23.5514 34.6212C23.523 34.6212 23.523 34.6212 23.494 34.6213C23.1885 34.6218 22.883 34.6227 22.5776 34.6238C22.2633 34.6249 21.949 34.6256 21.6347 34.6258C21.4413 34.626 21.248 34.6265 21.0546 34.6275C20.9214 34.6281 20.7881 34.6283 20.6549 34.6281C20.5784 34.6281 20.5019 34.6282 20.4255 34.6288C19.6732 34.6343 18.9758 34.4887 18.2993 34.1617C18.2838 34.1543 18.2684 34.1468 18.2524 34.1392C17.4347 33.7417 16.7621 33.0556 16.3421 32.2546C16.3335 32.2384 16.3249 32.2222 16.3161 32.2054C16.0384 31.6724 15.8408 31.0665 15.8351 30.4621C15.8349 30.4416 15.8347 30.421 15.8344 30.3999C15.827 29.5824 15.827 29.5824 15.9212 29.2152C15.9376 29.1506 15.9519 29.0858 15.9661 29.0208C16.1709 28.1148 16.5641 27.2184 17.1059 26.4619C17.1189 26.4437 17.1319 26.4255 17.1453 26.4067C17.2893 26.2055 17.4329 26.0055 17.6033 25.8255C17.6467 25.7794 17.6879 25.7324 17.7292 25.6844C17.8365 25.5615 17.9513 25.4464 18.0666 25.3311C18.0876 25.3099 18.1085 25.2887 18.1301 25.2668C18.2745 25.1224 18.4255 24.9913 18.5858 24.8648C18.6111 24.8443 18.6364 24.8239 18.6617 24.8034C19.2922 24.3097 20.0041 23.8993 20.7579 23.6252C20.7753 23.6188 20.7927 23.6124 20.8107 23.6058C21.9375 23.1966 23.0562 23.1647 24.2399 23.1674Z" fill="#F3ECF8"/>
<path d="M17.4177 22.7047C17.3518 22.7559 17.2848 22.7996 17.2123 22.8409C16.9278 23.0049 16.6549 23.1765 16.3913 23.3722C16.3776 23.3823 16.3639 23.3924 16.3497 23.4028C15.765 23.8344 15.2155 24.3489 14.7682 24.9216C14.7414 24.9554 14.7146 24.9892 14.6878 25.023C14.5433 25.2058 14.404 25.3865 14.2848 25.587C14.2304 25.652 14.2079 25.6513 14.1237 25.6606C14.0474 25.6591 13.9716 25.6527 13.8955 25.6462C13.8723 25.6444 13.8491 25.6425 13.8252 25.6406C13.7469 25.6343 13.6686 25.6278 13.5903 25.6213C13.5338 25.6167 13.4773 25.6121 13.4208 25.6076C13.2977 25.5976 13.1747 25.5876 13.0516 25.5774C12.8686 25.5623 12.6855 25.5474 12.5025 25.5326C12.1567 25.5045 11.8109 25.4762 11.465 25.4478C11.1981 25.4259 10.9312 25.404 10.6643 25.3822C10.6259 25.3791 10.5876 25.3759 10.5493 25.3728C10.4916 25.3681 10.4338 25.3634 10.3761 25.3587C9.83918 25.3148 9.30228 25.2709 8.76539 25.2268C8.74515 25.2252 8.7249 25.2235 8.70404 25.2218C8.53961 25.2083 8.37519 25.1948 8.21076 25.1813C7.56899 25.1286 6.92722 25.0761 6.28542 25.0238C5.56483 24.9651 4.84425 24.9062 4.12368 24.8471C4.04694 24.8408 3.97019 24.8345 3.89344 24.8282C3.86509 24.8259 3.86509 24.8259 3.83617 24.8235C3.5503 24.8001 3.26441 24.7768 2.97853 24.7535C2.65366 24.7271 2.3288 24.7005 2.00396 24.6736C1.82197 24.6586 1.63997 24.6437 1.45795 24.629C1.32242 24.6181 1.1869 24.6069 1.05139 24.5956C0.996293 24.591 0.941185 24.5865 0.886071 24.5821C0.81167 24.5762 0.737297 24.57 0.662924 24.5637C0.641078 24.562 0.619232 24.5603 0.596725 24.5586C0.546543 24.5542 0.496572 24.5475 0.446721 24.5402C0.438844 24.5245 0.430967 24.5088 0.422852 24.4926C1.50794 24.3769 2.59303 24.2612 3.67812 24.1456C3.6945 24.1438 3.71088 24.1421 3.72775 24.1403C4.08472 24.1022 4.44168 24.0642 4.79865 24.0262C4.97401 24.0075 5.14938 23.9888 5.32474 23.9701C5.34218 23.9682 5.35962 23.9664 5.37759 23.9644C5.8629 23.9127 6.34822 23.861 6.83353 23.8093C6.95182 23.7967 7.07012 23.784 7.18841 23.7714C7.23899 23.766 7.28957 23.7607 7.34016 23.7553C7.37383 23.7517 7.4075 23.7481 7.44117 23.7445C7.62604 23.7248 7.81092 23.7051 7.99579 23.6854C8.19704 23.6639 8.39829 23.6425 8.59954 23.621C8.61609 23.6193 8.63264 23.6175 8.64969 23.6157C9.11545 23.566 9.58121 23.5164 10.047 23.4668C10.3422 23.4354 10.6373 23.4039 10.9325 23.3725C10.9811 23.3673 11.0297 23.3621 11.0782 23.3569C11.9448 23.2646 12.8113 23.1721 13.6778 23.0793C13.8773 23.0579 14.0767 23.0366 14.2761 23.0153C14.3035 23.0123 14.3309 23.0094 14.3591 23.0064C14.4945 22.9919 14.6298 22.9774 14.7652 22.963C15.0483 22.9327 15.3315 22.9024 15.6146 22.8719C15.8032 22.8517 15.9918 22.8315 16.1803 22.8114C16.2876 22.7999 16.3948 22.7884 16.502 22.7769C16.5993 22.7664 16.6966 22.756 16.7939 22.7456C16.8288 22.7419 16.8638 22.7381 16.8987 22.7343C17.0726 22.7154 17.2427 22.7002 17.4177 22.7047Z" fill="url(#paint2_linear_8540_6540)"/>
<path d="M13.3343 27.511C13.3185 27.5991 13.295 27.6813 13.2661 27.766C13.0433 28.4316 12.8923 29.0967 12.8569 29.7994C12.666 29.7855 12.4797 29.7585 12.2914 29.7248C12.262 29.7196 12.2325 29.7144 12.2022 29.7091C12.1211 29.6948 12.04 29.6804 11.9589 29.6659C11.8709 29.6503 11.7829 29.6348 11.6949 29.6192C11.5422 29.5923 11.3895 29.5652 11.2369 29.5381C11.0155 29.4988 10.794 29.4597 10.5726 29.4205C10.2312 29.3602 9.88979 29.2997 9.5484 29.2393C8.9754 29.1378 8.40235 29.0366 7.82929 28.9354C7.78357 28.9273 7.73784 28.9193 7.69212 28.9112C7.51231 28.8794 7.3325 28.8477 7.1527 28.816C6.7062 28.7372 6.25971 28.6583 5.81323 28.5794C5.75602 28.5693 5.69881 28.5592 5.6416 28.5491C5.43701 28.513 5.23242 28.4768 5.02783 28.4407C5.02783 28.4249 5.02783 28.4092 5.02783 28.393C6.05499 28.2805 7.08216 28.1681 8.10934 28.0559C8.23061 28.0426 8.35188 28.0294 8.47315 28.0162C8.50937 28.0122 8.50937 28.0122 8.54631 28.0082C8.93722 27.9654 9.32812 27.9227 9.71902 27.8798C10.1201 27.8359 10.5212 27.792 10.9223 27.7483C11.1699 27.7213 11.4174 27.6942 11.6648 27.667C11.8346 27.6484 12.0043 27.6298 12.174 27.6114C12.2719 27.6007 12.3699 27.59 12.4678 27.5792C12.5575 27.5693 12.6472 27.5595 12.7369 27.5498C12.7846 27.5447 12.8323 27.5394 12.88 27.5341C13.0325 27.5177 13.1809 27.5073 13.3343 27.511Z" fill="url(#paint3_linear_8540_6540)"/>
<path d="M37.8725 32.0639C37.689 32.1962 37.4905 32.2971 37.2892 32.3991C37.2541 32.4171 37.2189 32.4351 37.1837 32.453C37.0793 32.5063 36.9747 32.5593 36.87 32.6122C36.8551 32.6198 36.8401 32.6274 36.8246 32.6352C36.4759 32.8117 36.1254 32.9842 35.7717 33.1507C35.6957 33.1865 35.62 33.2229 35.5442 33.2592C34.9733 33.5304 34.3828 33.7376 33.744 33.7355C33.7095 33.7355 33.7095 33.7355 33.6743 33.7355C33.5978 33.7356 33.5213 33.7354 33.4448 33.7353C33.3897 33.7353 33.3346 33.7353 33.2796 33.7353C33.1305 33.7353 32.9813 33.7352 32.8322 33.735C32.6763 33.7349 32.5203 33.7348 32.3643 33.7348C32.1027 33.7348 31.841 33.7346 31.5793 33.7344C31.3099 33.7342 31.0405 33.734 30.771 33.7339C30.7461 33.7339 30.7461 33.7339 30.7206 33.7339C30.6372 33.7339 30.5538 33.7338 30.4704 33.7338C29.7791 33.7335 29.0878 33.7331 28.3965 33.7326C28.4041 33.6828 28.4117 33.633 28.4194 33.5832C28.4236 33.5555 28.4278 33.5278 28.4322 33.4992C28.4446 33.4203 28.4585 33.342 28.4742 33.2637C28.4793 33.2381 28.4844 33.2124 28.4897 33.1859C28.4949 33.1603 28.5 33.1347 28.5054 33.1083C28.5107 33.0817 28.5159 33.0551 28.5214 33.0276C28.5265 33.0023 28.5316 32.977 28.5368 32.9509C28.5414 32.9281 28.546 32.9054 28.5507 32.8819C28.5636 32.8267 28.5636 32.8267 28.5874 32.7791C28.6005 32.779 28.6136 32.779 28.627 32.779C29.4048 32.7776 30.1826 32.7758 30.9604 32.7736C31.0542 32.7733 31.1479 32.7731 31.2417 32.7728C31.2697 32.7727 31.2697 32.7727 31.2982 32.7726C31.5989 32.7718 31.8996 32.7712 32.2003 32.7707C32.5097 32.7702 32.8191 32.7694 33.1285 32.7684C33.3188 32.7677 33.5091 32.7673 33.6994 32.7672C33.8463 32.767 33.9932 32.7665 34.1401 32.7659C34.1997 32.7656 34.2592 32.7656 34.3188 32.7656C34.8802 32.7659 35.4412 32.7292 35.9899 32.6047C36.0232 32.5974 36.0565 32.5901 36.0898 32.5828C36.3226 32.531 36.5507 32.4688 36.7758 32.39C36.8491 32.3645 36.923 32.3411 36.9968 32.3172C37.1753 32.2575 37.352 32.1929 37.5286 32.1278C37.5501 32.1198 37.5717 32.1119 37.5938 32.1038C37.6131 32.0967 37.6323 32.0896 37.6521 32.0822C37.7877 32.0357 37.7877 32.0357 37.8725 32.0639Z" fill="#F3ECF8"/>
<path d="M13.0726 31.7542C13.0835 31.7836 13.0944 31.813 13.1056 31.8432C13.4126 32.6883 13.4126 32.6883 13.7836 33.5064C13.8125 33.5659 13.8125 33.5659 13.8125 33.6136C13.6954 33.599 13.5855 33.576 13.4714 33.5444C13.4547 33.5398 13.438 33.5352 13.4208 33.5304C13.3651 33.5151 13.3094 33.4996 13.2537 33.4841C13.2136 33.473 13.1734 33.4619 13.1332 33.4508C13.0239 33.4206 12.9147 33.3903 12.8055 33.36C12.6901 33.328 12.5747 33.2961 12.4593 33.2642C12.2636 33.2101 12.068 33.1559 11.8724 33.1017C11.5691 33.0177 11.2656 32.9339 10.9622 32.8501C10.8623 32.8226 10.7625 32.795 10.6626 32.7674C10.6382 32.7607 10.6138 32.754 10.5887 32.747C9.88095 32.5517 9.17329 32.3559 8.46582 32.1595C8.46582 32.1438 8.46582 32.128 8.46582 32.1118C9.02064 32.065 9.57546 32.0184 10.1303 31.9719C10.3879 31.9504 10.6456 31.9287 10.9032 31.907C11.1279 31.8881 11.3525 31.8692 11.5772 31.8504C11.6961 31.8405 11.8149 31.8305 11.9338 31.8205C12.0458 31.811 12.1579 31.8016 12.27 31.7923C12.311 31.7889 12.3519 31.7854 12.3928 31.7819C12.6202 31.7625 12.8442 31.7492 13.0726 31.7542Z" fill="url(#paint4_linear_8540_6540)"/>
<path fill-rule="evenodd" clip-rule="evenodd" d="M2.64043 6.11907C3.81048 6.11907 4.9393 5.42569 5.55599 4.43351L32.3293 4.43351L32.7289 2.18609L5.95553 2.18608C5.69162 1.1939 4.80933 0.500519 3.63929 0.500519C2.06344 0.500519 0.56236 1.75827 0.286534 3.3098C0.0107085 4.86132 1.06458 6.11907 2.64043 6.11907ZM2.94009 4.43351C3.57043 4.43351 4.17086 3.9304 4.28119 3.3098C4.39152 2.68919 3.96997 2.18608 3.33963 2.18608C2.70929 2.18608 2.10886 2.68919 1.99853 3.3098C1.8882 3.9304 2.30975 4.43351 2.94009 4.43351Z" fill="#4B0082"/>
<path fill-rule="evenodd" clip-rule="evenodd" d="M58.4229 6.11907C57.1984 6.11907 56.2891 5.35963 56.0739 4.29304H36.777L34.0295 19.7476H31.7468L34.8938 2.04562H56.5983C57.2311 1.12907 58.3078 0.500519 59.4218 0.500519C60.9976 0.500519 62.0515 1.75827 61.7757 3.3098C61.4999 4.86132 59.9988 6.11907 58.4229 6.11907ZM58.7226 4.43351C58.0922 4.43351 57.6707 3.9304 57.781 3.3098C57.8914 2.68919 58.4918 2.18608 59.1221 2.18608C59.7525 2.18608 60.174 2.68919 60.0637 3.3098C59.9534 3.9304 59.3529 4.43351 58.7226 4.43351Z" fill="#4B0082"/>
<path fill-rule="evenodd" clip-rule="evenodd" d="M29.2504 19.7476L31.5484 6.82136H10.3255C10.1103 5.75477 9.20091 4.99533 7.9764 4.99533C6.40055 4.99533 4.89948 6.25309 4.62365 7.80461C4.34782 9.35613 5.4017 10.6139 6.97755 10.6139C8.09155 10.6139 9.16819 9.98533 9.80102 9.06879H28.8662L26.9677 19.7476H29.2504ZM8.6183 7.80461C8.50797 8.42522 7.90754 8.92832 7.2772 8.92832C6.64686 8.92832 6.22531 8.42522 6.33564 7.80461C6.44598 7.184 7.04641 6.6809 7.67674 6.6809C8.30708 6.6809 8.72863 7.184 8.6183 7.80461Z" fill="#4B0082"/>
<path fill-rule="evenodd" clip-rule="evenodd" d="M23.6727 38.2818H25.9554L24.3203 47.4791C25.2919 47.8959 25.8501 48.9052 25.6405 50.0842C25.3647 51.6357 23.8636 52.8935 22.2878 52.8935C20.7119 52.8935 19.658 51.6357 19.9339 50.0842C20.1338 48.9596 20.9775 47.9894 22.0267 47.5406L23.6727 38.2818ZM22.5874 51.2079C23.2178 51.2079 23.8182 50.7048 23.9285 50.0842C24.0389 49.4636 23.6173 48.9605 22.987 48.9605C22.3566 48.9605 21.7562 49.4636 21.6459 50.0842C21.5355 50.7048 21.9571 51.2079 22.5874 51.2079Z" fill="#4B0082"/>
<path fill-rule="evenodd" clip-rule="evenodd" d="M24.6136 19.7476L26.0626 11.5971H14.1265C13.8626 10.605 12.9803 9.91159 11.8103 9.91159C10.2344 9.91159 8.73335 11.1693 8.45753 12.7209C8.1817 14.2724 9.23558 15.5301 10.8114 15.5301C11.9815 15.5301 13.1103 14.8368 13.727 13.8446H23.3804L22.331 19.7476H24.6136ZM12.4522 12.7209C12.3418 13.3415 11.7414 13.8446 11.1111 13.8446C10.4807 13.8446 10.0592 13.3415 10.1695 12.7209C10.2799 12.1003 10.8803 11.5972 11.5106 11.5972C12.141 11.5972 12.5625 12.1003 12.4522 12.7209Z" fill="#4B0082"/>
<path fill-rule="evenodd" clip-rule="evenodd" d="M19.036 38.2818H21.3187L20.4275 43.2948C21.3582 43.7282 21.8865 44.7183 21.6817 45.8703C21.4058 47.4218 19.9048 48.6796 18.3289 48.6796C16.7531 48.6796 15.6992 47.4218 15.975 45.8703C16.1798 44.7184 17.06 43.7283 18.1448 43.2948L19.036 38.2818ZM18.6286 46.994C19.2589 46.994 19.8593 46.4909 19.9697 45.8703C20.08 45.2497 19.6584 44.7466 19.0281 44.7466C18.3978 44.7466 17.7973 45.2497 17.687 45.8703C17.5767 46.4909 17.9982 46.994 18.6286 46.994Z" fill="#4B0082"/>
<path fill-rule="evenodd" clip-rule="evenodd" d="M28.4519 38.2818H30.7345L28.2701 52.144C29.2009 52.5775 29.7291 53.5675 29.5243 54.7195C29.2485 56.2711 27.7474 57.5288 26.1716 57.5288C24.5957 57.5288 23.5419 56.2711 23.8177 54.7195C24.0225 53.5676 24.9027 52.5776 25.9875 52.1441L28.4519 38.2818ZM25.5297 54.7195C25.4194 55.3401 25.8409 55.8433 26.4712 55.8433C27.1016 55.8433 27.702 55.3401 27.8123 54.7195C27.9227 54.0989 27.5011 53.5958 26.8708 53.5958C26.2404 53.5958 25.64 54.0989 25.5297 54.7195Z" fill="#4B0082"/>
<path fill-rule="evenodd" clip-rule="evenodd" d="M50.2894 9.0688C50.5533 10.061 51.4356 10.7544 52.6057 10.7544C54.1815 10.7544 55.6826 9.49661 55.9584 7.94509C56.2342 6.39357 55.1804 5.13581 53.6045 5.13581C52.4345 5.13581 51.3056 5.82919 50.6889 6.82138L38.3249 6.82138L37.9254 9.0688L50.2894 9.0688ZM51.9637 7.94509C51.8534 8.56569 52.275 9.0688 52.9053 9.0688C53.5356 9.0688 54.1361 8.56569 54.2464 7.94509C54.3567 7.32448 53.9352 6.82138 53.3048 6.82138C52.6745 6.82138 52.0741 7.32448 51.9637 7.94509Z" fill="#4B0082"/>
<path fill-rule="evenodd" clip-rule="evenodd" d="M46.9061 15.5301C45.736 15.5301 44.8537 14.8368 44.5898 13.8446H37.0763L37.4759 11.5972L44.9894 11.5972C45.606 10.605 46.7349 9.9116 47.9049 9.9116C49.4808 9.9116 50.5346 11.1693 50.2588 12.7209C49.983 14.2724 48.4819 15.5301 46.9061 15.5301ZM47.2057 13.8446C46.5754 13.8446 46.1538 13.3415 46.2642 12.7209C46.3745 12.1003 46.9749 11.5972 47.6053 11.5972C48.2356 11.5972 48.6571 12.1003 48.5468 12.7209C48.4365 13.3415 47.8361 13.8446 47.2057 13.8446Z" fill="#4B0082"/>
<defs>
<linearGradient id="paint0_linear_8540_6540" x1="28.3724" y1="21.2558" x2="28.3724" y2="36.531" gradientUnits="userSpaceOnUse">
<stop stop-color="#4B0082"/>
<stop offset="1" stop-color="#7C00D6"/>
</linearGradient>
<linearGradient id="paint1_linear_8540_6540" x1="34.5695" y1="23.1667" x2="34.5695" y2="34.6246" gradientUnits="userSpaceOnUse">
<stop stop-color="#4B0082"/>
<stop offset="1" stop-color="#7C00D6"/>
</linearGradient>
<linearGradient id="paint2_linear_8540_6540" x1="8.92027" y1="22.7039" x2="8.92027" y2="25.6606" gradientUnits="userSpaceOnUse">
<stop stop-color="#F5AC24"/>
<stop offset="1" stop-color="#FFF6E6"/>
</linearGradient>
<linearGradient id="paint3_linear_8540_6540" x1="9.18107" y1="27.5102" x2="9.18107" y2="29.7994" gradientUnits="userSpaceOnUse">
<stop stop-color="#F5AC24"/>
<stop offset="1" stop-color="#FFF6E6"/>
</linearGradient>
<linearGradient id="paint4_linear_8540_6540" x1="11.1392" y1="31.7532" x2="11.1392" y2="33.6136" gradientUnits="userSpaceOnUse">
<stop stop-color="#F5AC24"/>
<stop offset="1" stop-color="#FFF6E6"/>
</linearGradient>
</defs>
</svg>
